<?xml version="1.0" encoding="utf-8"?>
<svg xmlns="http://www.w3.org/2000/svg" xmlns:xlink="http://www.w3.org/1999/xlink" width="600" height="400" viewBox="0 0 2400 1600">
<defs>
  <clipPath id="clip400">
    <rect x="0" y="0" width="2400" height="1600"/>
  </clipPath>
</defs>
<path clip-path="url(#clip400)" d="M0 1600 L2400 1600 L2400 0 L0 0  Z" fill="#ffffff" fill-rule="evenodd" fill-opacity="1"/>
<defs>
  <clipPath id="clip401">
    <rect x="203" y="123" width="2150" height="1301"/>
  </clipPath>
</defs>
<path clip-path="url(#clip400)" d="M203.964 1423.18 L2352.76 1423.18 L2352.76 123.472 L203.964 123.472  Z" fill="#ffffff" fill-rule="evenodd" fill-opacity="1"/>
<polyline clip-path="url(#clip401)" style="stroke:#000000; stroke-linecap:round; stroke-linejoin:round; stroke-width:2; stroke-opacity:0.1; fill:none" points="264.778,1423.18 264.778,123.472 "/>
<polyline clip-path="url(#clip401)" style="stroke:#000000; stroke-linecap:round; stroke-linejoin:round; stroke-width:2; stroke-opacity:0.1; fill:none" points="771.569,1423.18 771.569,123.472 "/>
<polyline clip-path="url(#clip401)" style="stroke:#000000; stroke-linecap:round; stroke-linejoin:round; stroke-width:2; stroke-opacity:0.1; fill:none" points="1278.36,1423.18 1278.36,123.472 "/>
<polyline clip-path="url(#clip401)" style="stroke:#000000; stroke-linecap:round; stroke-linejoin:round; stroke-width:2; stroke-opacity:0.1; fill:none" points="1785.15,1423.18 1785.15,123.472 "/>
<polyline clip-path="url(#clip401)" style="stroke:#000000; stroke-linecap:round; stroke-linejoin:round; stroke-width:2; stroke-opacity:0.1; fill:none" points="2291.94,1423.18 2291.94,123.472 "/>
<polyline clip-path="url(#clip401)" style="stroke:#000000; stroke-linecap:round; stroke-linejoin:round; stroke-width:2; stroke-opacity:0.1; fill:none" points="203.964,1391.15 2352.76,1391.15 "/>
<polyline clip-path="url(#clip401)" style="stroke:#000000; stroke-linecap:round; stroke-linejoin:round; stroke-width:2; stroke-opacity:0.1; fill:none" points="203.964,1083.43 2352.76,1083.43 "/>
<polyline clip-path="url(#clip401)" style="stroke:#000000; stroke-linecap:round; stroke-linejoin:round; stroke-width:2; stroke-opacity:0.1; fill:none" points="203.964,775.705 2352.76,775.705 "/>
<polyline clip-path="url(#clip401)" style="stroke:#000000; stroke-linecap:round; stroke-linejoin:round; stroke-width:2; stroke-opacity:0.1; fill:none" points="203.964,467.981 2352.76,467.981 "/>
<polyline clip-path="url(#clip401)" style="stroke:#000000; stroke-linecap:round; stroke-linejoin:round; stroke-width:2; stroke-opacity:0.1; fill:none" points="203.964,160.256 2352.76,160.256 "/>
<polyline clip-path="url(#clip400)" style="stroke:#000000; stroke-linecap:round; stroke-linejoin:round; stroke-width:4; stroke-opacity:1; fill:none" points="203.964,1423.18 2352.76,1423.18 "/>
<polyline clip-path="url(#clip400)" style="stroke:#000000; stroke-linecap:round; stroke-linejoin:round; stroke-width:4; stroke-opacity:1; fill:none" points="264.778,1423.18 264.778,1404.28 "/>
<polyline clip-path="url(#clip400)" style="stroke:#000000; stroke-linecap:round; stroke-linejoin:round; stroke-width:4; stroke-opacity:1; fill:none" points="771.569,1423.18 771.569,1404.28 "/>
<polyline clip-path="url(#clip400)" style="stroke:#000000; stroke-linecap:round; stroke-linejoin:round; stroke-width:4; stroke-opacity:1; fill:none" points="1278.36,1423.18 1278.36,1404.28 "/>
<polyline clip-path="url(#clip400)" style="stroke:#000000; stroke-linecap:round; stroke-linejoin:round; stroke-width:4; stroke-opacity:1; fill:none" points="1785.15,1423.18 1785.15,1404.28 "/>
<polyline clip-path="url(#clip400)" style="stroke:#000000; stroke-linecap:round; stroke-linejoin:round; stroke-width:4; stroke-opacity:1; fill:none" points="2291.94,1423.18 2291.94,1404.28 "/>
<path clip-path="url(#clip400)" d="M242.163 1454.1 Q238.552 1454.1 236.723 1457.66 Q234.917 1461.2 234.917 1468.33 Q234.917 1475.44 236.723 1479.01 Q238.552 1482.55 242.163 1482.55 Q245.797 1482.55 247.603 1479.01 Q249.431 1475.44 249.431 1468.33 Q249.431 1461.2 247.603 1457.66 Q245.797 1454.1 242.163 1454.1 M242.163 1450.39 Q247.973 1450.39 251.029 1455 Q254.107 1459.58 254.107 1468.33 Q254.107 1477.06 251.029 1481.67 Q247.973 1486.25 242.163 1486.25 Q236.353 1486.25 233.274 1481.67 Q230.218 1477.06 230.218 1468.33 Q230.218 1459.58 233.274 1455 Q236.353 1450.39 242.163 1450.39 Z" fill="#000000" fill-rule="nonzero" fill-opacity="1" /><path clip-path="url(#clip400)" d="M262.325 1479.7 L267.209 1479.7 L267.209 1485.58 L262.325 1485.58 L262.325 1479.7 Z" fill="#000000" fill-rule="nonzero" fill-opacity="1" /><path clip-path="url(#clip400)" d="M287.394 1454.1 Q283.783 1454.1 281.954 1457.66 Q280.149 1461.2 280.149 1468.33 Q280.149 1475.44 281.954 1479.01 Q283.783 1482.55 287.394 1482.55 Q291.028 1482.55 292.834 1479.01 Q294.663 1475.44 294.663 1468.33 Q294.663 1461.2 292.834 1457.66 Q291.028 1454.1 287.394 1454.1 M287.394 1450.39 Q293.204 1450.39 296.26 1455 Q299.338 1459.58 299.338 1468.33 Q299.338 1477.06 296.26 1481.67 Q293.204 1486.25 287.394 1486.25 Q281.584 1486.25 278.505 1481.67 Q275.45 1477.06 275.45 1468.33 Q275.45 1459.58 278.505 1455 Q281.584 1450.39 287.394 1450.39 Z" fill="#000000" fill-rule="nonzero" fill-opacity="1" /><path clip-path="url(#clip400)" d="M743.305 1481.64 L759.625 1481.64 L759.625 1485.58 L737.68 1485.58 L737.68 1481.64 Q740.342 1478.89 744.926 1474.26 Q749.532 1469.61 750.713 1468.27 Q752.958 1465.74 753.838 1464.01 Q754.74 1462.25 754.74 1460.56 Q754.74 1457.8 752.796 1456.07 Q750.875 1454.33 747.773 1454.33 Q745.574 1454.33 743.12 1455.09 Q740.69 1455.86 737.912 1457.41 L737.912 1452.69 Q740.736 1451.55 743.19 1450.97 Q745.643 1450.39 747.68 1450.39 Q753.051 1450.39 756.245 1453.08 Q759.44 1455.77 759.44 1460.26 Q759.44 1462.39 758.629 1464.31 Q757.842 1466.2 755.736 1468.8 Q755.157 1469.47 752.055 1472.69 Q748.953 1475.88 743.305 1481.64 Z" fill="#000000" fill-rule="nonzero" fill-opacity="1" /><path clip-path="url(#clip400)" d="M769.439 1479.7 L774.324 1479.7 L774.324 1485.58 L769.439 1485.58 L769.439 1479.7 Z" fill="#000000" fill-rule="nonzero" fill-opacity="1" /><path clip-path="url(#clip400)" d="M784.555 1451.02 L802.912 1451.02 L802.912 1454.96 L788.838 1454.96 L788.838 1463.43 Q789.856 1463.08 790.875 1462.92 Q791.893 1462.73 792.912 1462.73 Q798.699 1462.73 802.078 1465.9 Q805.458 1469.08 805.458 1474.49 Q805.458 1480.07 801.986 1483.17 Q798.513 1486.25 792.194 1486.25 Q790.018 1486.25 787.75 1485.88 Q785.504 1485.51 783.097 1484.77 L783.097 1480.07 Q785.18 1481.2 787.402 1481.76 Q789.625 1482.32 792.101 1482.32 Q796.106 1482.32 798.444 1480.21 Q800.782 1478.1 800.782 1474.49 Q800.782 1470.88 798.444 1468.77 Q796.106 1466.67 792.101 1466.67 Q790.226 1466.67 788.351 1467.08 Q786.5 1467.5 784.555 1468.38 L784.555 1451.02 Z" fill="#000000" fill-rule="nonzero" fill-opacity="1" /><path clip-path="url(#clip400)" d="M1245.52 1451.02 L1263.88 1451.02 L1263.88 1454.96 L1249.81 1454.96 L1249.81 1463.43 Q1250.83 1463.08 1251.84 1462.92 Q1252.86 1462.73 1253.88 1462.73 Q1259.67 1462.73 1263.05 1465.9 Q1266.43 1469.08 1266.43 1474.49 Q1266.43 1480.07 1262.95 1483.17 Q1259.48 1486.25 1253.16 1486.25 Q1250.99 1486.25 1248.72 1485.88 Q1246.47 1485.51 1244.07 1484.77 L1244.07 1480.07 Q1246.15 1481.2 1248.37 1481.76 Q1250.59 1482.32 1253.07 1482.32 Q1257.08 1482.32 1259.41 1480.21 Q1261.75 1478.1 1261.75 1474.49 Q1261.75 1470.88 1259.41 1468.77 Q1257.08 1466.67 1253.07 1466.67 Q1251.2 1466.67 1249.32 1467.08 Q1247.47 1467.5 1245.52 1468.38 L1245.52 1451.02 Z" fill="#000000" fill-rule="nonzero" fill-opacity="1" /><path clip-path="url(#clip400)" d="M1275.64 1479.7 L1280.52 1479.7 L1280.52 1485.58 L1275.64 1485.58 L1275.64 1479.7 Z" fill="#000000" fill-rule="nonzero" fill-opacity="1" /><path clip-path="url(#clip400)" d="M1300.71 1454.1 Q1297.1 1454.1 1295.27 1457.66 Q1293.46 1461.2 1293.46 1468.33 Q1293.46 1475.44 1295.27 1479.01 Q1297.1 1482.55 1300.71 1482.55 Q1304.34 1482.55 1306.15 1479.01 Q1307.98 1475.44 1307.98 1468.33 Q1307.98 1461.2 1306.15 1457.66 Q1304.34 1454.1 1300.71 1454.1 M1300.71 1450.39 Q1306.52 1450.39 1309.57 1455 Q1312.65 1459.58 1312.65 1468.33 Q1312.65 1477.06 1309.57 1481.67 Q1306.52 1486.25 1300.71 1486.25 Q1294.9 1486.25 1291.82 1481.67 Q1288.76 1477.06 1288.76 1468.33 Q1288.76 1459.58 1291.82 1455 Q1294.9 1450.39 1300.71 1450.39 Z" fill="#000000" fill-rule="nonzero" fill-opacity="1" /><path clip-path="url(#clip400)" d="M1751.47 1451.02 L1773.69 1451.02 L1773.69 1453.01 L1761.15 1485.58 L1756.26 1485.58 L1768.07 1454.96 L1751.47 1454.96 L1751.47 1451.02 Z" fill="#000000" fill-rule="nonzero" fill-opacity="1" /><path clip-path="url(#clip400)" d="M1782.81 1479.7 L1787.7 1479.7 L1787.7 1485.58 L1782.81 1485.58 L1782.81 1479.7 Z" fill="#000000" fill-rule="nonzero" fill-opacity="1" /><path clip-path="url(#clip400)" d="M1797.93 1451.02 L1816.28 1451.02 L1816.28 1454.96 L1802.21 1454.96 L1802.21 1463.43 Q1803.23 1463.08 1804.25 1462.92 Q1805.27 1462.73 1806.28 1462.73 Q1812.07 1462.73 1815.45 1465.9 Q1818.83 1469.08 1818.83 1474.49 Q1818.83 1480.07 1815.36 1483.17 Q1811.89 1486.25 1805.57 1486.25 Q1803.39 1486.25 1801.12 1485.88 Q1798.88 1485.51 1796.47 1484.77 L1796.47 1480.07 Q1798.55 1481.2 1800.78 1481.76 Q1803 1482.32 1805.47 1482.32 Q1809.48 1482.32 1811.82 1480.21 Q1814.15 1478.1 1814.15 1474.49 Q1814.15 1470.88 1811.82 1468.77 Q1809.48 1466.67 1805.47 1466.67 Q1803.6 1466.67 1801.72 1467.08 Q1799.87 1467.5 1797.93 1468.38 L1797.93 1451.02 Z" fill="#000000" fill-rule="nonzero" fill-opacity="1" /><path clip-path="url(#clip400)" d="M2244.01 1481.64 L2251.65 1481.64 L2251.65 1455.28 L2243.34 1456.95 L2243.34 1452.69 L2251.61 1451.02 L2256.28 1451.02 L2256.28 1481.64 L2263.92 1481.64 L2263.92 1485.58 L2244.01 1485.58 L2244.01 1481.64 Z" fill="#000000" fill-rule="nonzero" fill-opacity="1" /><path clip-path="url(#clip400)" d="M2283.36 1454.1 Q2279.75 1454.1 2277.92 1457.66 Q2276.12 1461.2 2276.12 1468.33 Q2276.12 1475.44 2277.92 1479.01 Q2279.75 1482.55 2283.36 1482.55 Q2287 1482.55 2288.8 1479.01 Q2290.63 1475.44 2290.63 1468.33 Q2290.63 1461.2 2288.8 1457.66 Q2287 1454.1 2283.36 1454.1 M2283.36 1450.39 Q2289.17 1450.39 2292.23 1455 Q2295.31 1459.58 2295.31 1468.33 Q2295.31 1477.06 2292.23 1481.67 Q2289.17 1486.25 2283.36 1486.25 Q2277.55 1486.25 2274.48 1481.67 Q2271.42 1477.06 2271.42 1468.33 Q2271.42 1459.58 2274.48 1455 Q2277.55 1450.39 2283.36 1450.39 Z" fill="#000000" fill-rule="nonzero" fill-opacity="1" /><path clip-path="url(#clip400)" d="M2303.53 1479.7 L2308.41 1479.7 L2308.41 1485.58 L2303.53 1485.58 L2303.53 1479.7 Z" fill="#000000" fill-rule="nonzero" fill-opacity="1" /><path clip-path="url(#clip400)" d="M2328.6 1454.1 Q2324.98 1454.1 2323.16 1457.66 Q2321.35 1461.2 2321.35 1468.33 Q2321.35 1475.44 2323.16 1479.01 Q2324.98 1482.55 2328.6 1482.55 Q2332.23 1482.55 2334.04 1479.01 Q2335.86 1475.44 2335.86 1468.33 Q2335.86 1461.2 2334.04 1457.66 Q2332.23 1454.1 2328.6 1454.1 M2328.6 1450.39 Q2334.41 1450.39 2337.46 1455 Q2340.54 1459.58 2340.54 1468.33 Q2340.54 1477.06 2337.46 1481.67 Q2334.41 1486.25 2328.6 1486.25 Q2322.79 1486.25 2319.71 1481.67 Q2316.65 1477.06 2316.65 1468.33 Q2316.65 1459.58 2319.71 1455 Q2322.79 1450.39 2328.6 1450.39 Z" fill="#000000" fill-rule="nonzero" fill-opacity="1" /><path clip-path="url(#clip400)" d="M895.653 1525.81 L895.653 1543.66 L903.738 1543.66 Q908.226 1543.66 910.677 1541.34 Q913.127 1539.02 913.127 1534.72 Q913.127 1530.45 910.677 1528.13 Q908.226 1525.81 903.738 1525.81 L895.653 1525.81 M889.224 1520.52 L903.738 1520.52 Q911.727 1520.52 915.801 1524.15 Q919.907 1527.75 919.907 1534.72 Q919.907 1541.75 915.801 1545.35 Q911.727 1548.95 903.738 1548.95 L895.653 1548.95 L895.653 1568.04 L889.224 1568.04 L889.224 1520.52 Z" fill="#000000" fill-rule="nonzero" fill-opacity="1" /><path clip-path="url(#clip400)" d="M939.768 1536.5 Q935.057 1536.5 932.32 1540.19 Q929.583 1543.85 929.583 1550.25 Q929.583 1556.65 932.288 1560.34 Q935.025 1564 939.768 1564 Q944.447 1564 947.184 1560.31 Q949.921 1556.62 949.921 1550.25 Q949.921 1543.92 947.184 1540.23 Q944.447 1536.5 939.768 1536.5 M939.768 1531.54 Q947.407 1531.54 951.767 1536.5 Q956.128 1541.47 956.128 1550.25 Q956.128 1559 951.767 1564 Q947.407 1568.97 939.768 1568.97 Q932.097 1568.97 927.737 1564 Q923.408 1559 923.408 1550.25 Q923.408 1541.47 927.737 1536.5 Q932.097 1531.54 939.768 1531.54 Z" fill="#000000" fill-rule="nonzero" fill-opacity="1" /><path clip-path="url(#clip400)" d="M988.561 1533.45 L988.561 1538.98 Q986.078 1537.71 983.405 1537.07 Q980.731 1536.44 977.867 1536.44 Q973.506 1536.44 971.31 1537.77 Q969.146 1539.11 969.146 1541.79 Q969.146 1543.82 970.705 1545 Q972.265 1546.15 976.975 1547.2 L978.981 1547.64 Q985.219 1548.98 987.829 1551.43 Q990.471 1553.85 990.471 1558.21 Q990.471 1563.17 986.524 1566.07 Q982.609 1568.97 975.734 1568.97 Q972.869 1568.97 969.75 1568.39 Q966.663 1567.85 963.225 1566.74 L963.225 1560.69 Q966.472 1562.38 969.623 1563.24 Q972.774 1564.07 975.861 1564.07 Q979.999 1564.07 982.227 1562.66 Q984.455 1561.23 984.455 1558.65 Q984.455 1556.27 982.832 1554.99 Q981.24 1553.72 975.798 1552.54 L973.761 1552.07 Q968.318 1550.92 965.899 1548.56 Q963.48 1546.18 963.48 1542.04 Q963.48 1537.01 967.045 1534.27 Q970.61 1531.54 977.166 1531.54 Q980.413 1531.54 983.277 1532.01 Q986.142 1532.49 988.561 1533.45 Z" fill="#000000" fill-rule="nonzero" fill-opacity="1" /><path clip-path="url(#clip400)" d="M999.796 1532.4 L1005.65 1532.4 L1005.65 1568.04 L999.796 1568.04 L999.796 1532.4 M999.796 1518.52 L1005.65 1518.52 L1005.65 1525.93 L999.796 1525.93 L999.796 1518.52 Z" fill="#000000" fill-rule="nonzero" fill-opacity="1" /><path clip-path="url(#clip400)" d="M1023.7 1522.27 L1023.7 1532.4 L1035.76 1532.4 L1035.76 1536.95 L1023.7 1536.95 L1023.7 1556.3 Q1023.7 1560.66 1024.88 1561.9 Q1026.09 1563.14 1029.75 1563.14 L1035.76 1563.14 L1035.76 1568.04 L1029.75 1568.04 Q1022.97 1568.04 1020.39 1565.53 Q1017.81 1562.98 1017.81 1556.3 L1017.81 1536.95 L1013.51 1536.95 L1013.51 1532.4 L1017.81 1532.4 L1017.81 1522.27 L1023.7 1522.27 Z" fill="#000000" fill-rule="nonzero" fill-opacity="1" /><path clip-path="url(#clip400)" d="M1043.47 1532.4 L1049.32 1532.4 L1049.32 1568.04 L1043.47 1568.04 L1043.47 1532.4 M1043.47 1518.52 L1049.32 1518.52 L1049.32 1525.93 L1043.47 1525.93 L1043.47 1518.52 Z" fill="#000000" fill-rule="nonzero" fill-opacity="1" /><path clip-path="url(#clip400)" d="M1075.39 1536.5 Q1070.68 1536.5 1067.94 1540.19 Q1065.2 1543.85 1065.2 1550.25 Q1065.2 1556.65 1067.91 1560.34 Q1070.65 1564 1075.39 1564 Q1080.07 1564 1082.81 1560.31 Q1085.54 1556.62 1085.54 1550.25 Q1085.54 1543.92 1082.81 1540.23 Q1080.07 1536.5 1075.39 1536.5 M1075.39 1531.54 Q1083.03 1531.54 1087.39 1536.5 Q1091.75 1541.47 1091.75 1550.25 Q1091.75 1559 1087.39 1564 Q1083.03 1568.97 1075.39 1568.97 Q1067.72 1568.97 1063.36 1564 Q1059.03 1559 1059.03 1550.25 Q1059.03 1541.47 1063.36 1536.5 Q1067.72 1531.54 1075.39 1531.54 Z" fill="#000000" fill-rule="nonzero" fill-opacity="1" /><path clip-path="url(#clip400)" d="M1131.09 1546.53 L1131.09 1568.04 L1125.23 1568.04 L1125.23 1546.72 Q1125.23 1541.66 1123.26 1539.14 Q1121.29 1536.63 1117.34 1536.63 Q1112.6 1536.63 1109.86 1539.65 Q1107.12 1542.68 1107.12 1547.9 L1107.12 1568.04 L1101.23 1568.04 L1101.23 1532.4 L1107.12 1532.4 L1107.12 1537.93 Q1109.22 1534.72 1112.06 1533.13 Q1114.92 1531.54 1118.64 1531.54 Q1124.79 1531.54 1127.94 1535.36 Q1131.09 1539.14 1131.09 1546.53 Z" fill="#000000" fill-rule="nonzero" fill-opacity="1" /><path clip-path="url(#clip400)" d="M1177.56 1518.58 Q1173.29 1525.9 1171.22 1533.06 Q1169.16 1540.23 1169.16 1547.58 Q1169.16 1554.93 1171.22 1562.16 Q1173.33 1569.35 1177.56 1576.64 L1172.47 1576.64 Q1167.69 1569.16 1165.3 1561.93 Q1162.95 1554.71 1162.95 1547.58 Q1162.95 1540.48 1165.3 1533.29 Q1167.66 1526.09 1172.47 1518.58 L1177.56 1518.58 Z" fill="#000000" fill-rule="nonzero" fill-opacity="1" /><path clip-path="url(#clip400)" d="M1205.12 1550.12 Q1198.02 1550.12 1195.29 1551.75 Q1192.55 1553.37 1192.55 1557.29 Q1192.55 1560.4 1194.59 1562.25 Q1196.66 1564.07 1200.19 1564.07 Q1205.06 1564.07 1207.99 1560.63 Q1210.95 1557.16 1210.95 1551.43 L1210.95 1550.12 L1205.12 1550.12 M1216.8 1547.71 L1216.8 1568.04 L1210.95 1568.04 L1210.95 1562.63 Q1208.94 1565.88 1205.95 1567.44 Q1202.96 1568.97 1198.63 1568.97 Q1193.15 1568.97 1189.91 1565.91 Q1186.69 1562.82 1186.69 1557.67 Q1186.69 1551.65 1190.7 1548.6 Q1194.75 1545.54 1202.74 1545.54 L1210.95 1545.54 L1210.95 1544.97 Q1210.95 1540.93 1208.27 1538.73 Q1205.63 1536.5 1200.83 1536.5 Q1197.77 1536.5 1194.87 1537.23 Q1191.98 1537.97 1189.3 1539.43 L1189.3 1534.02 Q1192.52 1532.78 1195.54 1532.17 Q1198.57 1531.54 1201.43 1531.54 Q1209.16 1531.54 1212.98 1535.55 Q1216.8 1539.56 1216.8 1547.71 Z" fill="#000000" fill-rule="nonzero" fill-opacity="1" /><path clip-path="url(#clip400)" d="M1249.52 1537.87 Q1248.54 1537.3 1247.36 1537.04 Q1246.21 1536.76 1244.81 1536.76 Q1239.85 1536.76 1237.17 1540 Q1234.53 1543.22 1234.53 1549.27 L1234.53 1568.04 L1228.64 1568.04 L1228.64 1532.4 L1234.53 1532.4 L1234.53 1537.93 Q1236.38 1534.69 1239.34 1533.13 Q1242.3 1531.54 1246.53 1531.54 Q1247.14 1531.54 1247.87 1531.63 Q1248.6 1531.7 1249.49 1531.85 L1249.52 1537.87 Z" fill="#000000" fill-rule="nonzero" fill-opacity="1" /><path clip-path="url(#clip400)" d="M1281.26 1550.25 Q1281.26 1543.79 1278.58 1540.13 Q1275.94 1536.44 1271.29 1536.44 Q1266.65 1536.44 1263.97 1540.13 Q1261.33 1543.79 1261.33 1550.25 Q1261.33 1556.71 1263.97 1560.4 Q1266.65 1564.07 1271.29 1564.07 Q1275.94 1564.07 1278.58 1560.4 Q1281.26 1556.71 1281.26 1550.25 M1261.33 1537.81 Q1263.18 1534.62 1265.98 1533.1 Q1268.81 1531.54 1272.73 1531.54 Q1279.22 1531.54 1283.26 1536.69 Q1287.34 1541.85 1287.34 1550.25 Q1287.34 1558.65 1283.26 1563.81 Q1279.22 1568.97 1272.73 1568.97 Q1268.81 1568.97 1265.98 1567.44 Q1263.18 1565.88 1261.33 1562.7 L1261.33 1568.04 L1255.44 1568.04 L1255.44 1518.52 L1261.33 1518.52 L1261.33 1537.81 Z" fill="#000000" fill-rule="nonzero" fill-opacity="1" /><path clip-path="url(#clip400)" d="M1297.04 1532.4 L1302.9 1532.4 L1302.9 1568.04 L1297.04 1568.04 L1297.04 1532.4 M1297.04 1518.52 L1302.9 1518.52 L1302.9 1525.93 L1297.04 1525.93 L1297.04 1518.52 Z" fill="#000000" fill-rule="nonzero" fill-opacity="1" /><path clip-path="url(#clip400)" d="M1320.95 1522.27 L1320.95 1532.4 L1333.01 1532.4 L1333.01 1536.95 L1320.95 1536.95 L1320.95 1556.3 Q1320.95 1560.66 1322.12 1561.9 Q1323.33 1563.14 1326.99 1563.14 L1333.01 1563.14 L1333.01 1568.04 L1326.99 1568.04 Q1320.21 1568.04 1317.64 1565.53 Q1315.06 1562.98 1315.06 1556.3 L1315.06 1536.95 L1310.76 1536.95 L1310.76 1532.4 L1315.06 1532.4 L1315.06 1522.27 L1320.95 1522.27 Z" fill="#000000" fill-rule="nonzero" fill-opacity="1" /><path clip-path="url(#clip400)" d="M1361.37 1537.87 Q1360.38 1537.3 1359.2 1537.04 Q1358.06 1536.76 1356.66 1536.76 Q1351.69 1536.76 1349.02 1540 Q1346.38 1543.22 1346.38 1549.27 L1346.38 1568.04 L1340.49 1568.04 L1340.49 1532.4 L1346.38 1532.4 L1346.38 1537.93 Q1348.22 1534.69 1351.18 1533.13 Q1354.14 1531.54 1358.38 1531.54 Q1358.98 1531.54 1359.71 1531.63 Q1360.45 1531.7 1361.34 1531.85 L1361.37 1537.87 Z" fill="#000000" fill-rule="nonzero" fill-opacity="1" /><path clip-path="url(#clip400)" d="M1383.71 1550.12 Q1376.61 1550.12 1373.88 1551.75 Q1371.14 1553.37 1371.14 1557.29 Q1371.14 1560.4 1373.18 1562.25 Q1375.25 1564.07 1378.78 1564.07 Q1383.65 1564.07 1386.58 1560.63 Q1389.54 1557.16 1389.54 1551.43 L1389.54 1550.12 L1383.71 1550.12 M1395.39 1547.71 L1395.39 1568.04 L1389.54 1568.04 L1389.54 1562.63 Q1387.53 1565.88 1384.54 1567.44 Q1381.55 1568.97 1377.22 1568.97 Q1371.74 1568.97 1368.5 1565.91 Q1365.28 1562.82 1365.28 1557.67 Q1365.28 1551.65 1369.29 1548.6 Q1373.34 1545.54 1381.33 1545.54 L1389.54 1545.54 L1389.54 1544.97 Q1389.54 1540.93 1386.86 1538.73 Q1384.22 1536.5 1379.42 1536.5 Q1376.36 1536.5 1373.46 1537.23 Q1370.57 1537.97 1367.89 1539.43 L1367.89 1534.02 Q1371.11 1532.78 1374.13 1532.17 Q1377.16 1531.54 1380.02 1531.54 Q1387.75 1531.54 1391.57 1535.55 Q1395.39 1539.56 1395.39 1547.71 Z" fill="#000000" fill-rule="nonzero" fill-opacity="1" /><path clip-path="url(#clip400)" d="M1428.11 1537.87 Q1427.13 1537.3 1425.95 1537.04 Q1424.8 1536.76 1423.4 1536.76 Q1418.44 1536.76 1415.76 1540 Q1413.12 1543.22 1413.12 1549.27 L1413.12 1568.04 L1407.23 1568.04 L1407.23 1532.4 L1413.12 1532.4 L1413.12 1537.93 Q1414.97 1534.69 1417.93 1533.13 Q1420.89 1531.54 1425.12 1531.54 Q1425.73 1531.54 1426.46 1531.63 Q1427.19 1531.7 1428.08 1531.85 L1428.11 1537.87 Z" fill="#000000" fill-rule="nonzero" fill-opacity="1" /><path clip-path="url(#clip400)" d="M1449.09 1571.35 Q1446.61 1577.72 1444.25 1579.66 Q1441.89 1581.6 1437.95 1581.6 L1433.27 1581.6 L1433.27 1576.7 L1436.71 1576.7 Q1439.13 1576.7 1440.46 1575.56 Q1441.8 1574.41 1443.42 1570.14 L1444.47 1567.47 L1430.05 1532.4 L1436.26 1532.4 L1447.4 1560.28 L1458.54 1532.4 L1464.75 1532.4 L1449.09 1571.35 Z" fill="#000000" fill-rule="nonzero" fill-opacity="1" /><path clip-path="url(#clip400)" d="M1492.95 1553.98 L1492.95 1532.4 L1498.8 1532.4 L1498.8 1553.75 Q1498.8 1558.81 1500.78 1561.36 Q1502.75 1563.87 1506.7 1563.87 Q1511.44 1563.87 1514.18 1560.85 Q1516.95 1557.83 1516.95 1552.61 L1516.95 1532.4 L1522.8 1532.4 L1522.8 1568.04 L1516.95 1568.04 L1516.95 1562.57 Q1514.81 1565.82 1511.98 1567.41 Q1509.18 1568.97 1505.46 1568.97 Q1499.31 1568.97 1496.13 1565.15 Q1492.95 1561.33 1492.95 1553.98 M1507.68 1531.54 L1507.68 1531.54 Z" fill="#000000" fill-rule="nonzero" fill-opacity="1" /><path clip-path="url(#clip400)" d="M1564.5 1546.53 L1564.5 1568.04 L1558.64 1568.04 L1558.64 1546.72 Q1558.64 1541.66 1556.67 1539.14 Q1554.7 1536.63 1550.75 1536.63 Q1546.01 1536.63 1543.27 1539.65 Q1540.53 1542.68 1540.53 1547.9 L1540.53 1568.04 L1534.64 1568.04 L1534.64 1532.4 L1540.53 1532.4 L1540.53 1537.93 Q1542.63 1534.72 1545.46 1533.13 Q1548.33 1531.54 1552.05 1531.54 Q1558.2 1531.54 1561.35 1535.36 Q1564.5 1539.14 1564.5 1546.53 Z" fill="#000000" fill-rule="nonzero" fill-opacity="1" /><path clip-path="url(#clip400)" d="M1576.18 1532.4 L1582.04 1532.4 L1582.04 1568.04 L1576.18 1568.04 L1576.18 1532.4 M1576.18 1518.52 L1582.04 1518.52 L1582.04 1525.93 L1576.18 1525.93 L1576.18 1518.52 Z" fill="#000000" fill-rule="nonzero" fill-opacity="1" /><path clip-path="url(#clip400)" d="M1600.08 1522.27 L1600.08 1532.4 L1612.15 1532.4 L1612.15 1536.95 L1600.08 1536.95 L1600.08 1556.3 Q1600.08 1560.66 1601.26 1561.9 Q1602.47 1563.14 1606.13 1563.14 L1612.15 1563.14 L1612.15 1568.04 L1606.13 1568.04 Q1599.35 1568.04 1596.77 1565.53 Q1594.19 1562.98 1594.19 1556.3 L1594.19 1536.95 L1589.9 1536.95 L1589.9 1532.4 L1594.19 1532.4 L1594.19 1522.27 L1600.08 1522.27 Z" fill="#000000" fill-rule="nonzero" fill-opacity="1" /><path clip-path="url(#clip400)" d="M1642.57 1533.45 L1642.57 1538.98 Q1640.09 1537.71 1637.42 1537.07 Q1634.74 1536.44 1631.88 1536.44 Q1627.52 1536.44 1625.32 1537.77 Q1623.16 1539.11 1623.16 1541.79 Q1623.16 1543.82 1624.72 1545 Q1626.28 1546.15 1630.99 1547.2 L1632.99 1547.64 Q1639.23 1548.98 1641.84 1551.43 Q1644.48 1553.85 1644.48 1558.21 Q1644.48 1563.17 1640.54 1566.07 Q1636.62 1568.97 1629.75 1568.97 Q1626.88 1568.97 1623.76 1568.39 Q1620.68 1567.85 1617.24 1566.74 L1617.24 1560.69 Q1620.48 1562.38 1623.64 1563.24 Q1626.79 1564.07 1629.87 1564.07 Q1634.01 1564.07 1636.24 1562.66 Q1638.47 1561.23 1638.47 1558.65 Q1638.47 1556.27 1636.84 1554.99 Q1635.25 1553.72 1629.81 1552.54 L1627.77 1552.07 Q1622.33 1550.92 1619.91 1548.56 Q1617.49 1546.18 1617.49 1542.04 Q1617.49 1537.01 1621.06 1534.27 Q1624.62 1531.54 1631.18 1531.54 Q1634.43 1531.54 1637.29 1532.01 Q1640.15 1532.49 1642.57 1533.45 Z" fill="#000000" fill-rule="nonzero" fill-opacity="1" /><path clip-path="url(#clip400)" d="M1652.89 1518.58 L1657.98 1518.58 Q1662.75 1526.09 1665.11 1533.29 Q1667.5 1540.48 1667.5 1547.58 Q1667.5 1554.71 1665.11 1561.93 Q1662.75 1569.16 1657.98 1576.64 L1652.89 1576.64 Q1657.12 1569.35 1659.19 1562.16 Q1661.29 1554.93 1661.29 1547.58 Q1661.29 1540.23 1659.19 1533.06 Q1657.12 1525.9 1652.89 1518.58 Z" fill="#000000" fill-rule="nonzero" fill-opacity="1" /><polyline clip-path="url(#clip400)" style="stroke:#000000; stroke-linecap:round; stroke-linejoin:round; stroke-width:4; stroke-opacity:1; fill:none" points="203.964,1423.18 203.964,123.472 "/>
<polyline clip-path="url(#clip400)" style="stroke:#000000; stroke-linecap:round; stroke-linejoin:round; stroke-width:4; stroke-opacity:1; fill:none" points="203.964,1391.15 222.861,1391.15 "/>
<polyline clip-path="url(#clip400)" style="stroke:#000000; stroke-linecap:round; stroke-linejoin:round; stroke-width:4; stroke-opacity:1; fill:none" points="203.964,1083.43 222.861,1083.43 "/>
<polyline clip-path="url(#clip400)" style="stroke:#000000; stroke-linecap:round; stroke-linejoin:round; stroke-width:4; stroke-opacity:1; fill:none" points="203.964,775.705 222.861,775.705 "/>
<polyline clip-path="url(#clip400)" style="stroke:#000000; stroke-linecap:round; stroke-linejoin:round; stroke-width:4; stroke-opacity:1; fill:none" points="203.964,467.981 222.861,467.981 "/>
<polyline clip-path="url(#clip400)" style="stroke:#000000; stroke-linecap:round; stroke-linejoin:round; stroke-width:4; stroke-opacity:1; fill:none" points="203.964,160.256 222.861,160.256 "/>
<path clip-path="url(#clip400)" d="M156.019 1376.95 Q152.408 1376.95 150.579 1380.52 Q148.774 1384.06 148.774 1391.19 Q148.774 1398.3 150.579 1401.86 Q152.408 1405.4 156.019 1405.4 Q159.653 1405.4 161.459 1401.86 Q163.288 1398.3 163.288 1391.19 Q163.288 1384.06 161.459 1380.52 Q159.653 1376.95 156.019 1376.95 M156.019 1373.25 Q161.829 1373.25 164.885 1377.86 Q167.964 1382.44 167.964 1391.19 Q167.964 1399.92 164.885 1404.52 Q161.829 1409.11 156.019 1409.11 Q150.209 1409.11 147.13 1404.52 Q144.075 1399.92 144.075 1391.19 Q144.075 1382.44 147.13 1377.86 Q150.209 1373.25 156.019 1373.25 Z" fill="#000000" fill-rule="nonzero" fill-opacity="1" /><path clip-path="url(#clip400)" d="M147.061 1066.15 L165.417 1066.15 L165.417 1070.08 L151.343 1070.08 L151.343 1078.56 Q152.362 1078.21 153.38 1078.05 Q154.399 1077.86 155.417 1077.86 Q161.204 1077.86 164.584 1081.03 Q167.964 1084.21 167.964 1089.62 Q167.964 1095.2 164.491 1098.3 Q161.019 1101.38 154.7 1101.38 Q152.524 1101.38 150.255 1101.01 Q148.01 1100.64 145.603 1099.9 L145.603 1095.2 Q147.686 1096.33 149.908 1096.89 Q152.13 1097.45 154.607 1097.45 Q158.612 1097.45 160.95 1095.34 Q163.288 1093.23 163.288 1089.62 Q163.288 1086.01 160.95 1083.9 Q158.612 1081.8 154.607 1081.8 Q152.732 1081.8 150.857 1082.21 Q149.005 1082.63 147.061 1083.51 L147.061 1066.15 Z" fill="#000000" fill-rule="nonzero" fill-opacity="1" /><path clip-path="url(#clip400)" d="M116.668 789.05 L124.306 789.05 L124.306 762.684 L115.996 764.351 L115.996 760.092 L124.26 758.425 L128.936 758.425 L128.936 789.05 L136.575 789.05 L136.575 792.985 L116.668 792.985 L116.668 789.05 Z" fill="#000000" fill-rule="nonzero" fill-opacity="1" /><path clip-path="url(#clip400)" d="M156.019 761.504 Q152.408 761.504 150.579 765.069 Q148.774 768.61 148.774 775.74 Q148.774 782.846 150.579 786.411 Q152.408 789.953 156.019 789.953 Q159.653 789.953 161.459 786.411 Q163.288 782.846 163.288 775.74 Q163.288 768.61 161.459 765.069 Q159.653 761.504 156.019 761.504 M156.019 757.8 Q161.829 757.8 164.885 762.407 Q167.964 766.99 167.964 775.74 Q167.964 784.467 164.885 789.073 Q161.829 793.657 156.019 793.657 Q150.209 793.657 147.13 789.073 Q144.075 784.467 144.075 775.74 Q144.075 766.99 147.13 762.407 Q150.209 757.8 156.019 757.8 Z" fill="#000000" fill-rule="nonzero" fill-opacity="1" /><path clip-path="url(#clip400)" d="M117.663 481.326 L125.302 481.326 L125.302 454.96 L116.992 456.627 L116.992 452.367 L125.255 450.701 L129.931 450.701 L129.931 481.326 L137.57 481.326 L137.57 485.261 L117.663 485.261 L117.663 481.326 Z" fill="#000000" fill-rule="nonzero" fill-opacity="1" /><path clip-path="url(#clip400)" d="M147.061 450.701 L165.417 450.701 L165.417 454.636 L151.343 454.636 L151.343 463.108 Q152.362 462.761 153.38 462.599 Q154.399 462.414 155.417 462.414 Q161.204 462.414 164.584 465.585 Q167.964 468.756 167.964 474.173 Q167.964 479.752 164.491 482.853 Q161.019 485.932 154.7 485.932 Q152.524 485.932 150.255 485.562 Q148.01 485.191 145.603 484.451 L145.603 479.752 Q147.686 480.886 149.908 481.441 Q152.13 481.997 154.607 481.997 Q158.612 481.997 160.95 479.89 Q163.288 477.784 163.288 474.173 Q163.288 470.562 160.95 468.455 Q158.612 466.349 154.607 466.349 Q152.732 466.349 150.857 466.766 Q149.005 467.182 147.061 468.062 L147.061 450.701 Z" fill="#000000" fill-rule="nonzero" fill-opacity="1" /><path clip-path="url(#clip400)" d="M119.885 173.601 L136.204 173.601 L136.204 177.536 L114.26 177.536 L114.26 173.601 Q116.922 170.847 121.505 166.217 Q126.112 161.564 127.292 160.222 Q129.538 157.698 130.417 155.962 Q131.32 154.203 131.32 152.513 Q131.32 149.759 129.376 148.023 Q127.455 146.286 124.353 146.286 Q122.154 146.286 119.7 147.05 Q117.269 147.814 114.492 149.365 L114.492 144.643 Q117.316 143.509 119.769 142.93 Q122.223 142.351 124.26 142.351 Q129.63 142.351 132.825 145.036 Q136.019 147.722 136.019 152.212 Q136.019 154.342 135.209 156.263 Q134.422 158.161 132.316 160.754 Q131.737 161.425 128.635 164.643 Q125.533 167.837 119.885 173.601 Z" fill="#000000" fill-rule="nonzero" fill-opacity="1" /><path clip-path="url(#clip400)" d="M156.019 146.055 Q152.408 146.055 150.579 149.62 Q148.774 153.161 148.774 160.291 Q148.774 167.397 150.579 170.962 Q152.408 174.504 156.019 174.504 Q159.653 174.504 161.459 170.962 Q163.288 167.397 163.288 160.291 Q163.288 153.161 161.459 149.62 Q159.653 146.055 156.019 146.055 M156.019 142.351 Q161.829 142.351 164.885 146.958 Q167.964 151.541 167.964 160.291 Q167.964 169.018 164.885 173.624 Q161.829 178.208 156.019 178.208 Q150.209 178.208 147.13 173.624 Q144.075 169.018 144.075 160.291 Q144.075 151.541 147.13 146.958 Q150.209 142.351 156.019 142.351 Z" fill="#000000" fill-rule="nonzero" fill-opacity="1" /><path clip-path="url(#clip400)" d="M16.4842 1010.53 L16.4842 983.219 L21.895 983.219 L21.895 1004.1 L35.8996 1004.1 L35.8996 985.256 L41.3104 985.256 L41.3104 1004.1 L64.0042 1004.1 L64.0042 1010.53 L16.4842 1010.53 Z" fill="#000000" fill-rule="nonzero" fill-opacity="1" /><path clip-path="url(#clip400)" d="M28.3562 978.031 L28.3562 972.175 L64.0042 972.175 L64.0042 978.031 L28.3562 978.031 M14.479 978.031 L14.479 972.175 L21.895 972.175 L21.895 978.031 L14.479 978.031 Z" fill="#000000" fill-rule="nonzero" fill-opacity="1" /><path clip-path="url(#clip400)" d="M33.8307 939.264 Q33.2578 940.251 33.0032 941.428 Q32.7167 942.574 32.7167 943.975 Q32.7167 948.94 35.9632 951.614 Q39.1779 954.255 45.2253 954.255 L64.0042 954.255 L64.0042 960.144 L28.3562 960.144 L28.3562 954.255 L33.8944 954.255 Q30.6479 952.409 29.0883 949.449 Q27.4968 946.489 27.4968 942.256 Q27.4968 941.651 27.5923 940.919 Q27.656 940.187 27.8151 939.296 L33.8307 939.264 Z" fill="#000000" fill-rule="nonzero" fill-opacity="1" /><path clip-path="url(#clip400)" d="M28.3562 933.121 L28.3562 927.265 L64.0042 927.265 L64.0042 933.121 L28.3562 933.121 M14.479 933.121 L14.479 927.265 L21.895 927.265 L21.895 933.121 L14.479 933.121 Z" fill="#000000" fill-rule="nonzero" fill-opacity="1" /><path clip-path="url(#clip400)" d="M42.4881 885.378 L64.0042 885.378 L64.0042 891.235 L42.679 891.235 Q37.6183 891.235 35.1038 893.208 Q32.5894 895.182 32.5894 899.128 Q32.5894 903.871 35.6131 906.608 Q38.6368 909.345 43.8567 909.345 L64.0042 909.345 L64.0042 915.233 L28.3562 915.233 L28.3562 909.345 L33.8944 909.345 Q30.6797 907.245 29.0883 904.412 Q27.4968 901.547 27.4968 897.823 Q27.4968 891.68 31.3163 888.529 Q35.1038 885.378 42.4881 885.378 Z" fill="#000000" fill-rule="nonzero" fill-opacity="1" /><path clip-path="url(#clip400)" d="M45.7664 850.24 Q39.4007 850.24 35.8996 852.881 Q32.3984 855.491 32.3984 860.234 Q32.3984 864.944 35.8996 867.586 Q39.4007 870.196 45.7664 870.196 Q52.1003 870.196 55.6014 867.586 Q59.1026 864.944 59.1026 860.234 Q59.1026 855.491 55.6014 852.881 Q52.1003 850.24 45.7664 850.24 M59.58 844.383 Q68.683 844.383 73.1071 848.425 Q77.5631 852.468 77.5631 860.807 Q77.5631 863.894 77.0857 866.631 Q76.6401 869.369 75.6852 871.947 L69.9879 871.947 Q71.3884 869.369 72.0568 866.854 Q72.7252 864.34 72.7252 861.73 Q72.7252 855.969 69.7015 853.104 Q66.7096 850.24 60.6303 850.24 L57.7339 850.24 Q60.885 852.054 62.4446 854.887 Q64.0042 857.719 64.0042 861.666 Q64.0042 868.223 59.0071 872.233 Q54.01 876.244 45.7664 876.244 Q37.491 876.244 32.4939 872.233 Q27.4968 868.223 27.4968 861.666 Q27.4968 857.719 29.0564 854.887 Q30.616 852.054 33.7671 850.24 L28.3562 850.24 L28.3562 844.383 L59.58 844.383 Z" fill="#000000" fill-rule="nonzero" fill-opacity="1" /><path clip-path="url(#clip400)" d="M33.8307 790.943 Q33.2578 791.93 33.0032 793.107 Q32.7167 794.253 32.7167 795.654 Q32.7167 800.619 35.9632 803.293 Q39.1779 805.934 45.2253 805.934 L64.0042 805.934 L64.0042 811.823 L28.3562 811.823 L28.3562 805.934 L33.8944 805.934 Q30.6479 804.088 29.0883 801.128 Q27.4968 798.168 27.4968 793.935 Q27.4968 793.33 27.5923 792.598 Q27.656 791.866 27.8151 790.975 L33.8307 790.943 Z" fill="#000000" fill-rule="nonzero" fill-opacity="1" /><path clip-path="url(#clip400)" d="M46.0847 768.599 Q46.0847 775.697 47.7079 778.434 Q49.3312 781.172 53.2461 781.172 Q56.3653 781.172 58.2114 779.135 Q60.0256 777.066 60.0256 773.533 Q60.0256 768.663 56.5881 765.735 Q53.1188 762.775 47.3897 762.775 L46.0847 762.775 L46.0847 768.599 M43.6657 756.918 L64.0042 756.918 L64.0042 762.775 L58.5933 762.775 Q61.8398 764.78 63.3994 767.772 Q64.9272 770.764 64.9272 775.092 Q64.9272 780.567 61.8716 783.813 Q58.7843 787.028 53.6281 787.028 Q47.6125 787.028 44.5569 783.018 Q41.5014 778.976 41.5014 770.987 L41.5014 762.775 L40.9285 762.775 Q36.8862 762.775 34.6901 765.448 Q32.4621 768.09 32.4621 772.896 Q32.4621 775.952 33.1941 778.848 Q33.9262 781.745 35.3903 784.418 L29.9795 784.418 Q28.7381 781.204 28.1334 778.18 Q27.4968 775.156 27.4968 772.292 Q27.4968 764.557 31.5072 760.738 Q35.5176 756.918 43.6657 756.918 Z" fill="#000000" fill-rule="nonzero" fill-opacity="1" /><path clip-path="url(#clip400)" d="M18.2347 739.063 L28.3562 739.063 L28.3562 727 L32.9077 727 L32.9077 739.063 L52.2594 739.063 Q56.6199 739.063 57.8613 737.885 Q59.1026 736.675 59.1026 733.015 L59.1026 727 L64.0042 727 L64.0042 733.015 Q64.0042 739.795 61.4897 742.373 Q58.9434 744.951 52.2594 744.951 L32.9077 744.951 L32.9077 749.248 L28.3562 749.248 L28.3562 744.951 L18.2347 744.951 L18.2347 739.063 Z" fill="#000000" fill-rule="nonzero" fill-opacity="1" /><path clip-path="url(#clip400)" d="M44.7161 688.805 L47.5806 688.805 L47.5806 715.732 Q53.6281 715.35 56.8109 712.104 Q59.9619 708.825 59.9619 703.001 Q59.9619 699.627 59.1344 696.476 Q58.3069 693.293 56.6518 690.174 L62.1899 690.174 Q63.5267 693.325 64.227 696.635 Q64.9272 699.945 64.9272 703.351 Q64.9272 711.881 59.9619 716.878 Q54.9967 721.843 46.5303 721.843 Q37.7774 721.843 32.6531 717.133 Q27.4968 712.39 27.4968 704.369 Q27.4968 697.176 32.1438 693.007 Q36.7589 688.805 44.7161 688.805 M42.9973 694.662 Q38.1912 694.725 35.3266 697.367 Q32.4621 699.977 32.4621 704.306 Q32.4621 709.207 35.2312 712.167 Q38.0002 715.096 43.0292 715.541 L42.9973 694.662 Z" fill="#000000" fill-rule="nonzero" fill-opacity="1" /><path clip-path="url(#clip400)" d="M14.5426 644.405 Q21.8632 648.67 29.0246 650.738 Q36.186 652.807 43.5384 652.807 Q50.8908 652.807 58.1159 650.738 Q65.3091 648.638 72.5979 644.405 L72.5979 649.497 Q65.1182 654.271 57.8931 656.658 Q50.668 659.014 43.5384 659.014 Q36.4406 659.014 29.2474 656.658 Q22.0542 654.303 14.5426 649.497 L14.5426 644.405 Z" fill="#000000" fill-rule="nonzero" fill-opacity="1" /><path clip-path="url(#clip400)" d="M16.4842 632.787 L16.4842 626.358 L35.9632 626.358 L35.9632 602.996 L16.4842 602.996 L16.4842 596.566 L64.0042 596.566 L64.0042 602.996 L41.3741 602.996 L41.3741 626.358 L64.0042 626.358 L64.0042 632.787 L16.4842 632.787 Z" fill="#000000" fill-rule="nonzero" fill-opacity="1" /><path clip-path="url(#clip400)" d="M28.3562 586.572 L28.3562 558.754 L33.7034 558.754 L59.3254 580.779 L59.3254 558.754 L64.0042 558.754 L64.0042 587.368 L58.657 587.368 L33.035 565.342 L33.035 586.572 L28.3562 586.572 Z" fill="#000000" fill-rule="nonzero" fill-opacity="1" /><path clip-path="url(#clip400)" d="M14.5426 550.733 L14.5426 545.641 Q22.0542 540.866 29.2474 538.511 Q36.4406 536.124 43.5384 536.124 Q50.668 536.124 57.8931 538.511 Q65.1182 540.866 72.5979 545.641 L72.5979 550.733 Q65.3091 546.5 58.1159 544.431 Q50.8908 542.33 43.5384 542.33 Q36.186 542.33 29.0246 544.431 Q21.8632 546.5 14.5426 550.733 Z" fill="#000000" fill-rule="nonzero" fill-opacity="1" /><path clip-path="url(#clip400)" d="M562.727 12.096 L570.91 12.096 L570.91 36.8875 L600.643 36.8875 L600.643 12.096 L608.826 12.096 L608.826 72.576 L600.643 72.576 L600.643 43.7741 L570.91 43.7741 L570.91 72.576 L562.727 72.576 L562.727 12.096 Z" fill="#000000" fill-rule="nonzero" fill-opacity="1" /><path clip-path="url(#clip400)" d="M624.787 27.2059 L632.241 27.2059 L632.241 72.576 L624.787 72.576 L624.787 27.2059 M624.787 9.54393 L632.241 9.54393 L632.241 18.9825 L624.787 18.9825 L624.787 9.54393 Z" fill="#000000" fill-rule="nonzero" fill-opacity="1" /><path clip-path="url(#clip400)" d="M655.047 65.7705 L655.047 89.8329 L647.553 89.8329 L647.553 27.2059 L655.047 27.2059 L655.047 34.0924 Q657.397 30.0415 660.961 28.0971 Q664.567 26.1121 669.549 26.1121 Q677.813 26.1121 682.958 32.6746 Q688.143 39.2371 688.143 49.9314 Q688.143 60.6258 682.958 67.1883 Q677.813 73.7508 669.549 73.7508 Q664.567 73.7508 660.961 71.8063 Q657.397 69.8214 655.047 65.7705 M680.406 49.9314 Q680.406 41.7081 677.003 37.0496 Q673.641 32.3505 667.726 32.3505 Q661.812 32.3505 658.409 37.0496 Q655.047 41.7081 655.047 49.9314 Q655.047 58.1548 658.409 62.8538 Q661.812 67.5124 667.726 67.5124 Q673.641 67.5124 677.003 62.8538 Q680.406 58.1548 680.406 49.9314 Z" fill="#000000" fill-rule="nonzero" fill-opacity="1" /><path clip-path="url(#clip400)" d="M707.709 65.7705 L707.709 89.8329 L700.215 89.8329 L700.215 27.2059 L707.709 27.2059 L707.709 34.0924 Q710.058 30.0415 713.623 28.0971 Q717.228 26.1121 722.211 26.1121 Q730.475 26.1121 735.62 32.6746 Q740.805 39.2371 740.805 49.9314 Q740.805 60.6258 735.62 67.1883 Q730.475 73.7508 722.211 73.7508 Q717.228 73.7508 713.623 71.8063 Q710.058 69.8214 707.709 65.7705 M733.068 49.9314 Q733.068 41.7081 729.665 37.0496 Q726.303 32.3505 720.388 32.3505 Q714.474 32.3505 711.071 37.0496 Q707.709 41.7081 707.709 49.9314 Q707.709 58.1548 711.071 62.8538 Q714.474 67.5124 720.388 67.5124 Q726.303 67.5124 729.665 62.8538 Q733.068 58.1548 733.068 49.9314 Z" fill="#000000" fill-rule="nonzero" fill-opacity="1" /><path clip-path="url(#clip400)" d="M770.741 32.4315 Q764.746 32.4315 761.262 37.1306 Q757.778 41.7891 757.778 49.9314 Q757.778 58.0738 761.221 62.7728 Q764.705 67.4314 770.741 67.4314 Q776.696 67.4314 780.18 62.7323 Q783.663 58.0333 783.663 49.9314 Q783.663 41.8701 780.18 37.1711 Q776.696 32.4315 770.741 32.4315 M770.741 26.1121 Q780.463 26.1121 786.013 32.4315 Q791.563 38.7509 791.563 49.9314 Q791.563 61.0714 786.013 67.4314 Q780.463 73.7508 770.741 73.7508 Q760.978 73.7508 755.429 67.4314 Q749.919 61.0714 749.919 49.9314 Q749.919 38.7509 755.429 32.4315 Q760.978 26.1121 770.741 26.1121 Z" fill="#000000" fill-rule="nonzero" fill-opacity="1" /><path clip-path="url(#clip400)" d="M836.568 28.9478 L836.568 35.9153 Q833.408 34.1734 830.208 33.3227 Q827.049 32.4315 823.808 32.4315 Q816.557 32.4315 812.546 37.0496 Q808.536 41.6271 808.536 49.9314 Q808.536 58.2358 812.546 62.8538 Q816.557 67.4314 823.808 67.4314 Q827.049 67.4314 830.208 66.5807 Q833.408 65.6895 836.568 63.9476 L836.568 70.8341 Q833.449 72.2924 830.087 73.0216 Q826.765 73.7508 822.998 73.7508 Q812.749 73.7508 806.713 67.3098 Q800.677 60.8689 800.677 49.9314 Q800.677 38.832 806.753 32.472 Q812.87 26.1121 823.484 26.1121 Q826.927 26.1121 830.208 26.8413 Q833.489 27.5299 836.568 28.9478 Z" fill="#000000" fill-rule="nonzero" fill-opacity="1" /><path clip-path="url(#clip400)" d="M870.15 49.7694 Q861.117 49.7694 857.633 51.8354 Q854.149 53.9013 854.149 58.8839 Q854.149 62.8538 856.742 65.2034 Q859.375 67.5124 863.871 67.5124 Q870.069 67.5124 873.796 63.1374 Q877.563 58.7219 877.563 51.4303 L877.563 49.7694 L870.15 49.7694 M885.017 46.6907 L885.017 72.576 L877.563 72.576 L877.563 65.6895 Q875.011 69.8214 871.203 71.8063 Q867.396 73.7508 861.886 73.7508 Q854.919 73.7508 850.787 69.8619 Q846.695 65.9325 846.695 59.3701 Q846.695 51.7138 851.8 47.825 Q856.944 43.9361 867.112 43.9361 L877.563 43.9361 L877.563 43.2069 Q877.563 38.0623 874.161 35.2672 Q870.798 32.4315 864.681 32.4315 Q860.793 32.4315 857.106 33.3632 Q853.42 34.295 850.017 36.1584 L850.017 29.2718 Q854.109 27.692 857.957 26.9223 Q861.805 26.1121 865.451 26.1121 Q875.295 26.1121 880.156 31.2163 Q885.017 36.3204 885.017 46.6907 Z" fill="#000000" fill-rule="nonzero" fill-opacity="1" /><path clip-path="url(#clip400)" d="M935.694 35.9153 Q938.489 30.8922 942.378 28.5022 Q946.267 26.1121 951.533 26.1121 Q958.622 26.1121 962.47 31.0947 Q966.319 36.0368 966.319 45.1919 L966.319 72.576 L958.824 72.576 L958.824 45.4349 Q958.824 38.913 956.515 35.7533 Q954.206 32.5936 949.467 32.5936 Q943.674 32.5936 940.312 36.4419 Q936.95 40.2903 936.95 46.9338 L936.95 72.576 L929.455 72.576 L929.455 45.4349 Q929.455 38.8725 927.146 35.7533 Q924.837 32.5936 920.017 32.5936 Q914.305 32.5936 910.943 36.4824 Q907.58 40.3308 907.58 46.9338 L907.58 72.576 L900.086 72.576 L900.086 27.2059 L907.58 27.2059 L907.58 34.2544 Q910.133 30.082 913.697 28.0971 Q917.262 26.1121 922.164 26.1121 Q927.106 26.1121 930.549 28.6237 Q934.033 31.1352 935.694 35.9153 Z" fill="#000000" fill-rule="nonzero" fill-opacity="1" /><path clip-path="url(#clip400)" d="M988.396 65.7705 L988.396 89.8329 L980.902 89.8329 L980.902 27.2059 L988.396 27.2059 L988.396 34.0924 Q990.746 30.0415 994.31 28.0971 Q997.916 26.1121 1002.9 26.1121 Q1011.16 26.1121 1016.31 32.6746 Q1021.49 39.2371 1021.49 49.9314 Q1021.49 60.6258 1016.31 67.1883 Q1011.16 73.7508 1002.9 73.7508 Q997.916 73.7508 994.31 71.8063 Q990.746 69.8214 988.396 65.7705 M1013.75 49.9314 Q1013.75 41.7081 1010.35 37.0496 Q1006.99 32.3505 1001.08 32.3505 Q995.161 32.3505 991.758 37.0496 Q988.396 41.7081 988.396 49.9314 Q988.396 58.1548 991.758 62.8538 Q995.161 67.5124 1001.08 67.5124 Q1006.99 67.5124 1010.35 62.8538 Q1013.75 58.1548 1013.75 49.9314 Z" fill="#000000" fill-rule="nonzero" fill-opacity="1" /><path clip-path="url(#clip400)" d="M1054.47 49.7694 Q1045.43 49.7694 1041.95 51.8354 Q1038.47 53.9013 1038.47 58.8839 Q1038.47 62.8538 1041.06 65.2034 Q1043.69 67.5124 1048.19 67.5124 Q1054.39 67.5124 1058.11 63.1374 Q1061.88 58.7219 1061.88 51.4303 L1061.88 49.7694 L1054.47 49.7694 M1069.33 46.6907 L1069.33 72.576 L1061.88 72.576 L1061.88 65.6895 Q1059.33 69.8214 1055.52 71.8063 Q1051.71 73.7508 1046.2 73.7508 Q1039.23 73.7508 1035.1 69.8619 Q1031.01 65.9325 1031.01 59.3701 Q1031.01 51.7138 1036.12 47.825 Q1041.26 43.9361 1051.43 43.9361 L1061.88 43.9361 L1061.88 43.2069 Q1061.88 38.0623 1058.48 35.2672 Q1055.11 32.4315 1049 32.4315 Q1045.11 32.4315 1041.42 33.3632 Q1037.74 34.295 1034.33 36.1584 L1034.33 29.2718 Q1038.42 27.692 1042.27 26.9223 Q1046.12 26.1121 1049.77 26.1121 Q1059.61 26.1121 1064.47 31.2163 Q1069.33 36.3204 1069.33 46.6907 Z" fill="#000000" fill-rule="nonzero" fill-opacity="1" /><path clip-path="url(#clip400)" d="M1084.69 9.54393 L1092.14 9.54393 L1092.14 72.576 L1084.69 72.576 L1084.69 9.54393 Z" fill="#000000" fill-rule="nonzero" fill-opacity="1" /><path clip-path="url(#clip400)" d="M1142.61 18.8205 L1142.61 41.5461 L1152.9 41.5461 Q1158.62 41.5461 1161.73 38.5889 Q1164.85 35.6318 1164.85 30.163 Q1164.85 24.7348 1161.73 21.7777 Q1158.62 18.8205 1152.9 18.8205 L1142.61 18.8205 M1134.43 12.096 L1152.9 12.096 Q1163.07 12.096 1168.26 16.714 Q1173.48 21.2916 1173.48 30.163 Q1173.48 39.1155 1168.26 43.6931 Q1163.07 48.2706 1152.9 48.2706 L1142.61 48.2706 L1142.61 72.576 L1134.43 72.576 L1134.43 12.096 Z" fill="#000000" fill-rule="nonzero" fill-opacity="1" /><path clip-path="url(#clip400)" d="M1184.14 9.54393 L1191.59 9.54393 L1191.59 72.576 L1184.14 72.576 L1184.14 9.54393 Z" fill="#000000" fill-rule="nonzero" fill-opacity="1" /><path clip-path="url(#clip400)" d="M1227.8 49.7694 Q1218.77 49.7694 1215.29 51.8354 Q1211.8 53.9013 1211.8 58.8839 Q1211.8 62.8538 1214.4 65.2034 Q1217.03 67.5124 1221.53 67.5124 Q1227.72 67.5124 1231.45 63.1374 Q1235.22 58.7219 1235.22 51.4303 L1235.22 49.7694 L1227.8 49.7694 M1242.67 46.6907 L1242.67 72.576 L1235.22 72.576 L1235.22 65.6895 Q1232.67 69.8214 1228.86 71.8063 Q1225.05 73.7508 1219.54 73.7508 Q1212.57 73.7508 1208.44 69.8619 Q1204.35 65.9325 1204.35 59.3701 Q1204.35 51.7138 1209.45 47.825 Q1214.6 43.9361 1224.77 43.9361 L1235.22 43.9361 L1235.22 43.2069 Q1235.22 38.0623 1231.81 35.2672 Q1228.45 32.4315 1222.34 32.4315 Q1218.45 32.4315 1214.76 33.3632 Q1211.07 34.295 1207.67 36.1584 L1207.67 29.2718 Q1211.76 27.692 1215.61 26.9223 Q1219.46 26.1121 1223.11 26.1121 Q1232.95 26.1121 1237.81 31.2163 Q1242.67 36.3204 1242.67 46.6907 Z" fill="#000000" fill-rule="nonzero" fill-opacity="1" /><path clip-path="url(#clip400)" d="M1290.67 28.9478 L1290.67 35.9153 Q1287.51 34.1734 1284.31 33.3227 Q1281.15 32.4315 1277.91 32.4315 Q1270.66 32.4315 1266.65 37.0496 Q1262.64 41.6271 1262.64 49.9314 Q1262.64 58.2358 1266.65 62.8538 Q1270.66 67.4314 1277.91 67.4314 Q1281.15 67.4314 1284.31 66.5807 Q1287.51 65.6895 1290.67 63.9476 L1290.67 70.8341 Q1287.56 72.2924 1284.19 73.0216 Q1280.87 73.7508 1277.1 73.7508 Q1266.86 73.7508 1260.82 67.3098 Q1254.78 60.8689 1254.78 49.9314 Q1254.78 38.832 1260.86 32.472 Q1266.98 26.1121 1277.59 26.1121 Q1281.03 26.1121 1284.31 26.8413 Q1287.6 27.5299 1290.67 28.9478 Z" fill="#000000" fill-rule="nonzero" fill-opacity="1" /><path clip-path="url(#clip400)" d="M1342.45 48.0275 L1342.45 51.6733 L1308.17 51.6733 Q1308.66 59.3701 1312.79 63.421 Q1316.96 67.4314 1324.38 67.4314 Q1328.67 67.4314 1332.68 66.3781 Q1336.73 65.3249 1340.7 63.2184 L1340.7 70.267 Q1336.69 71.9684 1332.48 72.8596 Q1328.27 73.7508 1323.93 73.7508 Q1313.08 73.7508 1306.72 67.4314 Q1300.4 61.1119 1300.4 50.3365 Q1300.4 39.1965 1306.39 32.6746 Q1312.43 26.1121 1322.64 26.1121 Q1331.79 26.1121 1337.1 32.0264 Q1342.45 37.9003 1342.45 48.0275 M1334.99 45.84 Q1334.91 39.7232 1331.55 36.0774 Q1328.23 32.4315 1322.72 32.4315 Q1316.48 32.4315 1312.71 35.9558 Q1308.98 39.4801 1308.42 45.8805 L1334.99 45.84 Z" fill="#000000" fill-rule="nonzero" fill-opacity="1" /><path clip-path="url(#clip400)" d="M1426.66 16.7545 L1426.66 25.383 Q1422.53 21.5346 1417.83 19.6307 Q1413.17 17.7268 1407.91 17.7268 Q1397.54 17.7268 1392.03 24.0867 Q1386.52 30.4061 1386.52 42.3968 Q1386.52 54.3469 1392.03 60.7069 Q1397.54 67.0263 1407.91 67.0263 Q1413.17 67.0263 1417.83 65.1223 Q1422.53 63.2184 1426.66 59.3701 L1426.66 67.9175 Q1422.37 70.8341 1417.55 72.2924 Q1412.77 73.7508 1407.42 73.7508 Q1393.69 73.7508 1385.79 65.3654 Q1377.89 56.9395 1377.89 42.3968 Q1377.89 27.8135 1385.79 19.4281 Q1393.69 11.0023 1407.42 11.0023 Q1412.85 11.0023 1417.63 12.4606 Q1422.45 13.8784 1426.66 16.7545 Z" fill="#000000" fill-rule="nonzero" fill-opacity="1" /><path clip-path="url(#clip400)" d="M1477.79 48.0275 L1477.79 51.6733 L1443.52 51.6733 Q1444 59.3701 1448.13 63.421 Q1452.31 67.4314 1459.72 67.4314 Q1464.01 67.4314 1468.02 66.3781 Q1472.07 65.3249 1476.04 63.2184 L1476.04 70.267 Q1472.03 71.9684 1467.82 72.8596 Q1463.61 73.7508 1459.27 73.7508 Q1448.42 73.7508 1442.06 67.4314 Q1435.74 61.1119 1435.74 50.3365 Q1435.74 39.1965 1441.73 32.6746 Q1447.77 26.1121 1457.98 26.1121 Q1467.13 26.1121 1472.44 32.0264 Q1477.79 37.9003 1477.79 48.0275 M1470.33 45.84 Q1470.25 39.7232 1466.89 36.0774 Q1463.57 32.4315 1458.06 32.4315 Q1451.82 32.4315 1448.05 35.9558 Q1444.33 39.4801 1443.76 45.8805 L1470.33 45.84 Z" fill="#000000" fill-rule="nonzero" fill-opacity="1" /><path clip-path="url(#clip400)" d="M1490.02 9.54393 L1497.47 9.54393 L1497.47 72.576 L1490.02 72.576 L1490.02 9.54393 Z" fill="#000000" fill-rule="nonzero" fill-opacity="1" /><path clip-path="url(#clip400)" d="M1513.07 9.54393 L1520.52 9.54393 L1520.52 72.576 L1513.07 72.576 L1513.07 9.54393 Z" fill="#000000" fill-rule="nonzero" fill-opacity="1" /><path clip-path="url(#clip400)" d="M1562.81 12.096 L1597.57 12.096 L1597.57 18.9825 L1571 18.9825 L1571 36.8065 L1594.98 36.8065 L1594.98 43.6931 L1571 43.6931 L1571 72.576 L1562.81 72.576 L1562.81 12.096 Z" fill="#000000" fill-rule="nonzero" fill-opacity="1" /><path clip-path="url(#clip400)" d="M1604.17 27.2059 L1611.63 27.2059 L1611.63 72.576 L1604.17 72.576 L1604.17 27.2059 M1604.17 9.54393 L1611.63 9.54393 L1611.63 18.9825 L1604.17 18.9825 L1604.17 9.54393 Z" fill="#000000" fill-rule="nonzero" fill-opacity="1" /><path clip-path="url(#clip400)" d="M1653.51 34.1734 Q1652.26 33.4443 1650.76 33.1202 Q1649.3 32.7556 1647.52 32.7556 Q1641.2 32.7556 1637.8 36.8875 Q1634.43 40.9789 1634.43 48.6757 L1634.43 72.576 L1626.94 72.576 L1626.94 27.2059 L1634.43 27.2059 L1634.43 34.2544 Q1636.78 30.1225 1640.55 28.1376 Q1644.32 26.1121 1649.71 26.1121 Q1650.48 26.1121 1651.41 26.2337 Q1652.34 26.3147 1653.47 26.5172 L1653.51 34.1734 Z" fill="#000000" fill-rule="nonzero" fill-opacity="1" /><path clip-path="url(#clip400)" d="M1661.33 27.2059 L1668.79 27.2059 L1668.79 72.576 L1661.33 72.576 L1661.33 27.2059 M1661.33 9.54393 L1668.79 9.54393 L1668.79 18.9825 L1661.33 18.9825 L1661.33 9.54393 Z" fill="#000000" fill-rule="nonzero" fill-opacity="1" /><path clip-path="url(#clip400)" d="M1722.1 45.1919 L1722.1 72.576 L1714.64 72.576 L1714.64 45.4349 Q1714.64 38.994 1712.13 35.7938 Q1709.62 32.5936 1704.6 32.5936 Q1698.56 32.5936 1695.08 36.4419 Q1691.59 40.2903 1691.59 46.9338 L1691.59 72.576 L1684.1 72.576 L1684.1 27.2059 L1691.59 27.2059 L1691.59 34.2544 Q1694.27 30.163 1697.87 28.1376 Q1701.52 26.1121 1706.26 26.1121 Q1714.07 26.1121 1718.09 30.9732 Q1722.1 35.7938 1722.1 45.1919 Z" fill="#000000" fill-rule="nonzero" fill-opacity="1" /><path clip-path="url(#clip400)" d="M1766.82 49.3643 Q1766.82 41.2625 1763.46 36.8065 Q1760.13 32.3505 1754.1 32.3505 Q1748.1 32.3505 1744.74 36.8065 Q1741.42 41.2625 1741.42 49.3643 Q1741.42 57.4256 1744.74 61.8816 Q1748.1 66.3376 1754.1 66.3376 Q1760.13 66.3376 1763.46 61.8816 Q1766.82 57.4256 1766.82 49.3643 M1774.27 66.9452 Q1774.27 78.5308 1769.13 84.1616 Q1763.98 89.8329 1753.37 89.8329 Q1749.44 89.8329 1745.96 89.2252 Q1742.47 88.6581 1739.19 87.4428 L1739.19 80.1917 Q1742.47 81.9741 1745.67 82.8248 Q1748.87 83.6755 1752.19 83.6755 Q1759.53 83.6755 1763.17 79.8271 Q1766.82 76.0193 1766.82 68.282 L1766.82 64.5957 Q1764.51 68.6061 1760.9 70.5911 Q1757.3 72.576 1752.28 72.576 Q1743.93 72.576 1738.83 66.2161 Q1733.72 59.8562 1733.72 49.3643 Q1733.72 38.832 1738.83 32.472 Q1743.93 26.1121 1752.28 26.1121 Q1757.3 26.1121 1760.9 28.0971 Q1764.51 30.082 1766.82 34.0924 L1766.82 27.2059 L1774.27 27.2059 L1774.27 66.9452 Z" fill="#000000" fill-rule="nonzero" fill-opacity="1" /><path clip-path="url(#clip400)" d="M1845 44.2197 Q1847.63 45.1109 1850.1 48.0275 Q1852.62 50.9442 1855.13 56.0483 L1863.43 72.576 L1854.64 72.576 L1846.9 57.061 Q1843.91 50.9847 1841.07 48.9997 Q1838.28 47.0148 1833.41 47.0148 L1824.5 47.0148 L1824.5 72.576 L1816.32 72.576 L1816.32 12.096 L1834.79 12.096 Q1845.16 12.096 1850.27 16.4305 Q1855.37 20.7649 1855.37 29.5149 Q1855.37 35.2267 1852.7 38.994 Q1850.06 42.7613 1845 44.2197 M1824.5 18.8205 L1824.5 40.2903 L1834.79 40.2903 Q1840.71 40.2903 1843.7 37.5762 Q1846.74 34.8216 1846.74 29.5149 Q1846.74 24.2082 1843.7 21.5346 Q1840.71 18.8205 1834.79 18.8205 L1824.5 18.8205 Z" fill="#000000" fill-rule="nonzero" fill-opacity="1" /><path clip-path="url(#clip400)" d="M1892.44 49.7694 Q1883.4 49.7694 1879.92 51.8354 Q1876.44 53.9013 1876.44 58.8839 Q1876.44 62.8538 1879.03 65.2034 Q1881.66 67.5124 1886.16 67.5124 Q1892.36 67.5124 1896.08 63.1374 Q1899.85 58.7219 1899.85 51.4303 L1899.85 49.7694 L1892.44 49.7694 M1907.3 46.6907 L1907.3 72.576 L1899.85 72.576 L1899.85 65.6895 Q1897.3 69.8214 1893.49 71.8063 Q1889.68 73.7508 1884.17 73.7508 Q1877.2 73.7508 1873.07 69.8619 Q1868.98 65.9325 1868.98 59.3701 Q1868.98 51.7138 1874.09 47.825 Q1879.23 43.9361 1889.4 43.9361 L1899.85 43.9361 L1899.85 43.2069 Q1899.85 38.0623 1896.45 35.2672 Q1893.08 32.4315 1886.97 32.4315 Q1883.08 32.4315 1879.39 33.3632 Q1875.71 34.295 1872.3 36.1584 L1872.3 29.2718 Q1876.39 27.692 1880.24 26.9223 Q1884.09 26.1121 1887.74 26.1121 Q1897.58 26.1121 1902.44 31.2163 Q1907.3 36.3204 1907.3 46.6907 Z" fill="#000000" fill-rule="nonzero" fill-opacity="1" /><path clip-path="url(#clip400)" d="M1930.03 14.324 L1930.03 27.2059 L1945.38 27.2059 L1945.38 32.9987 L1930.03 32.9987 L1930.03 57.6282 Q1930.03 63.1779 1931.53 64.7578 Q1933.07 66.3376 1937.73 66.3376 L1945.38 66.3376 L1945.38 72.576 L1937.73 72.576 Q1929.1 72.576 1925.82 69.3758 Q1922.53 66.1351 1922.53 57.6282 L1922.53 32.9987 L1917.07 32.9987 L1917.07 27.2059 L1922.53 27.2059 L1922.53 14.324 L1930.03 14.324 Z" fill="#000000" fill-rule="nonzero" fill-opacity="1" /><path clip-path="url(#clip400)" d="M1993.99 48.0275 L1993.99 51.6733 L1959.72 51.6733 Q1960.21 59.3701 1964.34 63.421 Q1968.51 67.4314 1975.93 67.4314 Q1980.22 67.4314 1984.23 66.3781 Q1988.28 65.3249 1992.25 63.2184 L1992.25 70.267 Q1988.24 71.9684 1984.03 72.8596 Q1979.81 73.7508 1975.48 73.7508 Q1964.62 73.7508 1958.26 67.4314 Q1951.94 61.1119 1951.94 50.3365 Q1951.94 39.1965 1957.94 32.6746 Q1963.98 26.1121 1974.18 26.1121 Q1983.34 26.1121 1988.65 32.0264 Q1993.99 37.9003 1993.99 48.0275 M1986.54 45.84 Q1986.46 39.7232 1983.1 36.0774 Q1979.77 32.4315 1974.26 32.4315 Q1968.03 32.4315 1964.26 35.9558 Q1960.53 39.4801 1959.96 45.8805 L1986.54 45.84 Z" fill="#000000" fill-rule="nonzero" fill-opacity="1" /><polyline clip-path="url(#clip401)" style="stroke:#009af9; stroke-linecap:round; stroke-linejoin:round; stroke-width:8; stroke-opacity:1; fill:none" points="264.778,1386.4 266.806,1386.29 268.833,1386.18 270.86,1386.07 272.887,1385.96 274.914,1385.84 276.941,1385.72 278.969,1385.6 280.996,1385.48 283.023,1385.35 285.05,1385.22 287.077,1385.09 289.104,1384.96 291.132,1384.83 293.159,1384.69 295.186,1384.55 297.213,1384.4 299.24,1384.26 301.267,1384.11 303.295,1383.95 305.322,1383.8 307.349,1383.64 309.376,1383.48 311.403,1383.31 313.43,1383.15 315.458,1382.97 317.485,1382.8 319.512,1382.62 321.539,1382.44 323.566,1382.26 325.593,1382.07 327.62,1381.88 329.648,1381.68 331.675,1381.48 333.702,1381.28 335.729,1381.07 337.756,1380.86 339.783,1380.65 341.811,1380.43 343.838,1380.21 345.865,1379.98 347.892,1379.75 349.919,1379.52 351.946,1379.28 353.974,1379.04 356.001,1378.79 358.028,1378.54 360.055,1378.28 362.082,1378.02 364.109,1377.75 366.137,1377.48 368.164,1377.2 370.191,1376.92 372.218,1376.64 374.245,1376.35 376.272,1376.05 378.3,1375.75 380.327,1375.44 382.354,1375.13 384.381,1374.81 386.408,1374.49 388.435,1374.16 390.463,1373.83 392.49,1373.49 394.517,1373.14 396.544,1372.79 398.571,1372.43 400.598,1372.07 402.626,1371.7 404.653,1371.32 406.68,1370.94 408.707,1370.55 410.734,1370.15 412.761,1369.75 414.788,1369.34 416.816,1368.92 418.843,1368.5 420.87,1368.07 422.897,1367.63 424.924,1367.18 426.951,1366.73 428.979,1366.27 431.006,1365.81 433.033,1365.33 435.06,1364.85 437.087,1364.36 439.114,1363.86 441.142,1363.35 443.169,1362.84 445.196,1362.32 447.223,1361.79 449.25,1361.25 451.277,1360.7 453.305,1360.14 455.332,1359.58 457.359,1359 459.386,1358.42 461.413,1357.83 463.44,1357.22 465.468,1356.61 467.495,1355.99 469.522,1355.36 471.549,1354.72 473.576,1354.07 475.603,1353.42 477.631,1352.75 479.658,1352.07 481.685,1351.38 483.712,1350.68 485.739,1349.97 487.766,1349.25 489.793,1348.51 491.821,1347.77 493.848,1347.02 495.875,1346.25 497.902,1345.48 499.929,1344.69 501.956,1343.89 503.984,1343.08 506.011,1342.26 508.038,1341.42 510.065,1340.58 512.092,1339.72 514.119,1338.85 516.147,1337.97 518.174,1337.07 520.201,1336.16 522.228,1335.24 524.255,1334.31 526.282,1333.36 528.31,1332.41 530.337,1331.43 532.364,1330.45 534.391,1329.45 536.418,1328.43 538.445,1327.41 540.473,1326.36 542.5,1325.31 544.527,1324.24 546.554,1323.16 548.581,1322.06 550.608,1320.95 552.636,1319.82 554.663,1318.68 556.69,1317.52 558.717,1316.34 560.744,1315.16 562.771,1313.95 564.799,1312.73 566.826,1311.5 568.853,1310.25 570.88,1308.98 572.907,1307.7 574.934,1306.4 576.961,1305.09 578.989,1303.75 581.016,1302.41 583.043,1301.04 585.07,1299.66 587.097,1298.26 589.124,1296.84 591.152,1295.41 593.179,1293.96 595.206,1292.49 597.233,1291 599.26,1289.5 601.287,1287.97 603.315,1286.43 605.342,1284.87 607.369,1283.3 609.396,1281.7 611.423,1280.09 613.45,1278.45 615.478,1276.8 617.505,1275.13 619.532,1273.44 621.559,1271.73 623.586,1270 625.613,1268.25 627.641,1266.48 629.668,1264.69 631.695,1262.88 633.722,1261.05 635.749,1259.21 637.776,1257.34 639.804,1255.45 641.831,1253.54 643.858,1251.61 645.885,1249.65 647.912,1247.68 649.939,1245.69 651.967,1243.67 653.994,1241.64 656.021,1239.58 658.048,1237.5 660.075,1235.4 662.102,1233.28 664.129,1231.13 666.157,1228.97 668.184,1226.78 670.211,1224.57 672.238,1222.34 674.265,1220.08 676.292,1217.81 678.32,1215.51 680.347,1213.19 682.374,1210.84 684.401,1208.47 686.428,1206.08 688.455,1203.67 690.483,1201.23 692.51,1198.77 694.537,1196.29 696.564,1193.78 698.591,1191.26 700.618,1188.7 702.646,1186.13 704.673,1183.53 706.7,1180.9 708.727,1178.26 710.754,1175.59 712.781,1172.89 714.809,1170.17 716.836,1167.43 718.863,1164.66 720.89,1161.87 722.917,1159.06 724.944,1156.22 726.972,1153.36 728.999,1150.47 731.026,1147.56 733.053,1144.63 735.08,1141.67 737.107,1138.68 739.134,1135.67 741.162,1132.64 743.189,1129.58 745.216,1126.5 747.243,1123.4 749.27,1120.27 751.297,1117.11 753.325,1113.93 755.352,1110.73 757.379,1107.5 759.406,1104.25 761.433,1100.97 763.46,1097.67 765.488,1094.35 767.515,1091 769.542,1087.63 771.569,1084.23 773.596,1080.8 775.623,1077.36 777.651,1073.89 779.678,1070.39 781.705,1066.87 783.732,1063.33 785.759,1059.76 787.786,1056.17 789.814,1052.56 791.841,1048.92 793.868,1045.26 795.895,1041.57 797.922,1037.86 799.949,1034.13 801.977,1030.37 804.004,1026.59 806.031,1022.79 808.058,1018.96 810.085,1015.11 812.112,1011.24 814.14,1007.35 816.167,1003.43 818.194,999.488 820.221,995.525 822.248,991.54 824.275,987.533 826.302,983.504 828.33,979.452 830.357,975.379 832.384,971.285 834.411,967.169 836.438,963.031 838.465,958.873 840.493,954.693 842.52,950.493 844.547,946.272 846.574,942.03 848.601,937.768 850.628,933.486 852.656,929.185 854.683,924.863 856.71,920.522 858.737,916.162 860.764,911.782 862.791,907.384 864.819,902.967 866.846,898.531 868.873,894.078 870.9,889.606 872.927,885.117 874.954,880.61 876.982,876.086 879.009,871.545 881.036,866.987 883.063,862.413 885.09,857.822 887.117,853.216 889.145,848.594 891.172,843.956 893.199,839.304 895.226,834.636 897.253,829.954 899.28,825.258 901.308,820.548 903.335,815.824 905.362,811.087 907.389,806.337 909.416,801.574 911.443,796.799 913.47,792.012 915.498,787.213 917.525,782.403 919.552,777.581 921.579,772.749 923.606,767.907 925.633,763.054 927.661,758.192 929.688,753.321 931.715,748.441 933.742,743.552 935.769,738.655 937.796,733.75 939.824,728.838 941.851,723.918 943.878,718.992 945.905,714.06 947.932,709.122 949.959,704.178 951.987,699.23 954.014,694.276 956.041,689.319 958.068,684.357 960.095,679.392 962.122,674.424 964.15,669.454 966.177,664.481 968.204,659.506 970.231,654.531 972.258,649.554 974.285,644.577 976.313,639.6 978.34,634.623 980.367,629.647 982.394,624.673 984.421,619.7 986.448,614.73 988.475,609.762 990.503,604.798 992.53,599.837 994.557,594.88 996.584,589.928 998.611,584.981 1000.64,580.039 1002.67,575.103 1004.69,570.174 1006.72,565.252 1008.75,560.337 1010.77,555.43 1012.8,550.531 1014.83,545.641 1016.86,540.761 1018.88,535.89 1020.91,531.03 1022.94,526.18 1024.96,521.342 1026.99,516.516 1029.02,511.702 1031.05,506.901 1033.07,502.113 1035.1,497.339 1037.13,492.579 1039.15,487.834 1041.18,483.104 1043.21,478.391 1045.24,473.693 1047.26,469.012 1049.29,464.349 1051.32,459.703 1053.34,455.076 1055.37,450.467 1057.4,445.878 1059.43,441.309 1061.45,436.76 1063.48,432.232 1065.51,427.725 1067.53,423.24 1069.56,418.777 1071.59,414.337 1073.62,409.921 1075.64,405.528 1077.67,401.16 1079.7,396.816 1081.72,392.498 1083.75,388.206 1085.78,383.94 1087.81,379.701 1089.83,375.489 1091.86,371.305 1093.89,367.149 1095.92,363.022 1097.94,358.924 1099.97,354.856 1102,350.818 1104.02,346.811 1106.05,342.835 1108.08,338.89 1110.11,334.978 1112.13,331.098 1114.16,327.252 1116.19,323.438 1118.21,319.659 1120.24,315.914 1122.27,312.204 1124.3,308.53 1126.32,304.891 1128.35,301.288 1130.38,297.722 1132.4,294.193 1134.43,290.701 1136.46,287.248 1138.49,283.833 1140.51,280.457 1142.54,277.119 1144.57,273.822 1146.59,270.565 1148.62,267.348 1150.65,264.171 1152.68,261.037 1154.7,257.943 1156.73,254.892 1158.76,251.883 1160.78,248.918 1162.81,245.995 1164.84,243.116 1166.87,240.28 1168.89,237.489 1170.92,234.743 1172.95,232.041 1174.97,229.385 1177,226.775 1179.03,224.21 1181.06,221.692 1183.08,219.221 1185.11,216.796 1187.14,214.419 1189.16,212.089 1191.19,209.808 1193.22,207.574 1195.25,205.389 1197.27,203.253 1199.3,201.165 1201.33,199.127 1203.35,197.139 1205.38,195.201 1207.41,193.312 1209.44,191.474 1211.46,189.686 1213.49,187.95 1215.52,186.264 1217.54,184.63 1219.57,183.047 1221.6,181.516 1223.63,180.036 1225.65,178.609 1227.68,177.234 1229.71,175.911 1231.74,174.641 1233.76,173.424 1235.79,172.26 1237.82,171.149 1239.84,170.091 1241.87,169.087 1243.9,168.136 1245.93,167.239 1247.95,166.395 1249.98,165.606 1252.01,164.87 1254.03,164.189 1256.06,163.562 1258.09,162.989 1260.12,162.47 1262.14,162.006 1264.17,161.596 1266.2,161.241 1268.22,160.94 1270.25,160.694 1272.28,160.502 1274.31,160.366 1276.33,160.284 1278.36,160.256 1280.39,160.284 1282.41,160.366 1284.44,160.502 1286.47,160.694 1288.5,160.94 1290.52,161.241 1292.55,161.596 1294.58,162.006 1296.6,162.47 1298.63,162.989 1300.66,163.562 1302.69,164.189 1304.71,164.87 1306.74,165.606 1308.77,166.395 1310.79,167.239 1312.82,168.136 1314.85,169.087 1316.88,170.091 1318.9,171.149 1320.93,172.26 1322.96,173.424 1324.98,174.641 1327.01,175.911 1329.04,177.234 1331.07,178.609 1333.09,180.036 1335.12,181.516 1337.15,183.047 1339.17,184.63 1341.2,186.264 1343.23,187.95 1345.26,189.686 1347.28,191.474 1349.31,193.312 1351.34,195.201 1353.36,197.139 1355.39,199.127 1357.42,201.165 1359.45,203.253 1361.47,205.389 1363.5,207.574 1365.53,209.808 1367.55,212.089 1369.58,214.419 1371.61,216.796 1373.64,219.221 1375.66,221.692 1377.69,224.21 1379.72,226.775 1381.75,229.385 1383.77,232.041 1385.8,234.743 1387.83,237.489 1389.85,240.28 1391.88,243.116 1393.91,245.995 1395.94,248.918 1397.96,251.883 1399.99,254.892 1402.02,257.943 1404.04,261.037 1406.07,264.171 1408.1,267.348 1410.13,270.565 1412.15,273.822 1414.18,277.119 1416.21,280.457 1418.23,283.833 1420.26,287.248 1422.29,290.701 1424.32,294.193 1426.34,297.722 1428.37,301.288 1430.4,304.891 1432.42,308.53 1434.45,312.204 1436.48,315.914 1438.51,319.659 1440.53,323.438 1442.56,327.252 1444.59,331.098 1446.61,334.978 1448.64,338.89 1450.67,342.835 1452.7,346.811 1454.72,350.818 1456.75,354.856 1458.78,358.924 1460.8,363.022 1462.83,367.149 1464.86,371.305 1466.89,375.489 1468.91,379.701 1470.94,383.94 1472.97,388.206 1474.99,392.498 1477.02,396.816 1479.05,401.16 1481.08,405.528 1483.1,409.921 1485.13,414.337 1487.16,418.777 1489.18,423.24 1491.21,427.725 1493.24,432.232 1495.27,436.76 1497.29,441.309 1499.32,445.878 1501.35,450.467 1503.37,455.076 1505.4,459.703 1507.43,464.349 1509.46,469.012 1511.48,473.693 1513.51,478.391 1515.54,483.104 1517.56,487.834 1519.59,492.579 1521.62,497.339 1523.65,502.113 1525.67,506.901 1527.7,511.702 1529.73,516.516 1531.76,521.342 1533.78,526.18 1535.81,531.03 1537.84,535.89 1539.86,540.761 1541.89,545.641 1543.92,550.531 1545.95,555.43 1547.97,560.337 1550,565.252 1552.03,570.174 1554.05,575.103 1556.08,580.039 1558.11,584.981 1560.14,589.928 1562.16,594.88 1564.19,599.837 1566.22,604.798 1568.24,609.762 1570.27,614.73 1572.3,619.7 1574.33,624.673 1576.35,629.647 1578.38,634.623 1580.41,639.6 1582.43,644.577 1584.46,649.554 1586.49,654.531 1588.52,659.506 1590.54,664.481 1592.57,669.454 1594.6,674.424 1596.62,679.392 1598.65,684.357 1600.68,689.319 1602.71,694.276 1604.73,699.23 1606.76,704.178 1608.79,709.122 1610.81,714.06 1612.84,718.992 1614.87,723.918 1616.9,728.838 1618.92,733.75 1620.95,738.655 1622.98,743.552 1625,748.441 1627.03,753.321 1629.06,758.192 1631.09,763.054 1633.11,767.907 1635.14,772.749 1637.17,777.581 1639.19,782.403 1641.22,787.213 1643.25,792.012 1645.28,796.799 1647.3,801.574 1649.33,806.337 1651.36,811.087 1653.38,815.824 1655.41,820.548 1657.44,825.258 1659.47,829.954 1661.49,834.636 1663.52,839.304 1665.55,843.956 1667.57,848.594 1669.6,853.216 1671.63,857.822 1673.66,862.413 1675.68,866.987 1677.71,871.545 1679.74,876.086 1681.77,880.61 1683.79,885.117 1685.82,889.606 1687.85,894.078 1689.87,898.531 1691.9,902.967 1693.93,907.384 1695.96,911.782 1697.98,916.162 1700.01,920.522 1702.04,924.863 1704.06,929.185 1706.09,933.486 1708.12,937.768 1710.15,942.03 1712.17,946.272 1714.2,950.493 1716.23,954.693 1718.25,958.873 1720.28,963.031 1722.31,967.169 1724.34,971.285 1726.36,975.379 1728.39,979.452 1730.42,983.504 1732.44,987.533 1734.47,991.54 1736.5,995.525 1738.53,999.488 1740.55,1003.43 1742.58,1007.35 1744.61,1011.24 1746.63,1015.11 1748.66,1018.96 1750.69,1022.79 1752.72,1026.59 1754.74,1030.37 1756.77,1034.13 1758.8,1037.86 1760.82,1041.57 1762.85,1045.26 1764.88,1048.92 1766.91,1052.56 1768.93,1056.17 1770.96,1059.76 1772.99,1063.33 1775.01,1066.87 1777.04,1070.39 1779.07,1073.89 1781.1,1077.36 1783.12,1080.8 1785.15,1084.23 1787.18,1087.63 1789.2,1091 1791.23,1094.35 1793.26,1097.67 1795.29,1100.97 1797.31,1104.25 1799.34,1107.5 1801.37,1110.73 1803.39,1113.93 1805.42,1117.11 1807.45,1120.27 1809.48,1123.4 1811.5,1126.5 1813.53,1129.58 1815.56,1132.64 1817.58,1135.67 1819.61,1138.68 1821.64,1141.67 1823.67,1144.63 1825.69,1147.56 1827.72,1150.47 1829.75,1153.36 1831.78,1156.22 1833.8,1159.06 1835.83,1161.87 1837.86,1164.66 1839.88,1167.43 1841.91,1170.17 1843.94,1172.89 1845.97,1175.59 1847.99,1178.26 1850.02,1180.9 1852.05,1183.53 1854.07,1186.13 1856.1,1188.7 1858.13,1191.26 1860.16,1193.78 1862.18,1196.29 1864.21,1198.77 1866.24,1201.23 1868.26,1203.67 1870.29,1206.08 1872.32,1208.47 1874.35,1210.84 1876.37,1213.19 1878.4,1215.51 1880.43,1217.81 1882.45,1220.08 1884.48,1222.34 1886.51,1224.57 1888.54,1226.78 1890.56,1228.97 1892.59,1231.13 1894.62,1233.28 1896.64,1235.4 1898.67,1237.5 1900.7,1239.58 1902.73,1241.64 1904.75,1243.67 1906.78,1245.69 1908.81,1247.68 1910.83,1249.65 1912.86,1251.61 1914.89,1253.54 1916.92,1255.45 1918.94,1257.34 1920.97,1259.21 1923,1261.05 1925.02,1262.88 1927.05,1264.69 1929.08,1266.48 1931.11,1268.25 1933.13,1270 1935.16,1271.73 1937.19,1273.44 1939.21,1275.13 1941.24,1276.8 1943.27,1278.45 1945.3,1280.09 1947.32,1281.7 1949.35,1283.3 1951.38,1284.87 1953.4,1286.43 1955.43,1287.97 1957.46,1289.5 1959.49,1291 1961.51,1292.49 1963.54,1293.96 1965.57,1295.41 1967.6,1296.84 1969.62,1298.26 1971.65,1299.66 1973.68,1301.04 1975.7,1302.41 1977.73,1303.75 1979.76,1305.09 1981.79,1306.4 1983.81,1307.7 1985.84,1308.98 1987.87,1310.25 1989.89,1311.5 1991.92,1312.73 1993.95,1313.95 1995.98,1315.16 1998,1316.34 2000.03,1317.52 2002.06,1318.68 2004.08,1319.82 2006.11,1320.95 2008.14,1322.06 2010.17,1323.16 2012.19,1324.24 2014.22,1325.31 2016.25,1326.36 2018.27,1327.41 2020.3,1328.43 2022.33,1329.45 2024.36,1330.45 2026.38,1331.43 2028.41,1332.41 2030.44,1333.36 2032.46,1334.31 2034.49,1335.24 2036.52,1336.16 2038.55,1337.07 2040.57,1337.97 2042.6,1338.85 2044.63,1339.72 2046.65,1340.58 2048.68,1341.42 2050.71,1342.26 2052.74,1343.08 2054.76,1343.89 2056.79,1344.69 2058.82,1345.48 2060.84,1346.25 2062.87,1347.02 2064.9,1347.77 2066.93,1348.51 2068.95,1349.25 2070.98,1349.97 2073.01,1350.68 2075.03,1351.38 2077.06,1352.07 2079.09,1352.75 2081.12,1353.42 2083.14,1354.07 2085.17,1354.72 2087.2,1355.36 2089.22,1355.99 2091.25,1356.61 2093.28,1357.22 2095.31,1357.83 2097.33,1358.42 2099.36,1359 2101.39,1359.58 2103.41,1360.14 2105.44,1360.7 2107.47,1361.25 2109.5,1361.79 2111.52,1362.32 2113.55,1362.84 2115.58,1363.35 2117.61,1363.86 2119.63,1364.36 2121.66,1364.85 2123.69,1365.33 2125.71,1365.81 2127.74,1366.27 2129.77,1366.73 2131.8,1367.18 2133.82,1367.63 2135.85,1368.07 2137.88,1368.5 2139.9,1368.92 2141.93,1369.34 2143.96,1369.75 2145.99,1370.15 2148.01,1370.55 2150.04,1370.94 2152.07,1371.32 2154.09,1371.7 2156.12,1372.07 2158.15,1372.43 2160.18,1372.79 2162.2,1373.14 2164.23,1373.49 2166.26,1373.83 2168.28,1374.16 2170.31,1374.49 2172.34,1374.81 2174.37,1375.13 2176.39,1375.44 2178.42,1375.75 2180.45,1376.05 2182.47,1376.35 2184.5,1376.64 2186.53,1376.92 2188.56,1377.2 2190.58,1377.48 2192.61,1377.75 2194.64,1378.02 2196.66,1378.28 2198.69,1378.54 2200.72,1378.79 2202.75,1379.04 2204.77,1379.28 2206.8,1379.52 2208.83,1379.75 2210.85,1379.98 2212.88,1380.21 2214.91,1380.43 2216.94,1380.65 2218.96,1380.86 2220.99,1381.07 2223.02,1381.28 2225.04,1381.48 2227.07,1381.68 2229.1,1381.88 2231.13,1382.07 2233.15,1382.26 2235.18,1382.44 2237.21,1382.62 2239.23,1382.8 2241.26,1382.97 2243.29,1383.15 2245.32,1383.31 2247.34,1383.48 2249.37,1383.64 2251.4,1383.8 2253.42,1383.95 2255.45,1384.11 2257.48,1384.26 2259.51,1384.4 2261.53,1384.55 2263.56,1384.69 2265.59,1384.83 2267.62,1384.96 2269.64,1385.09 2271.67,1385.22 2273.7,1385.35 2275.72,1385.48 2277.75,1385.6 2279.78,1385.72 2281.81,1385.84 2283.83,1385.96 2285.86,1386.07 2287.89,1386.18 2289.91,1386.29 2291.94,1386.4 "/>
<path clip-path="url(#clip400)" d="M1709.75 270.476 L2281.13 270.476 L2281.13 166.796 L1709.75 166.796  Z" fill="#ffffff" fill-rule="evenodd" fill-opacity="1"/>
<polyline clip-path="url(#clip400)" style="stroke:#000000; stroke-linecap:round; stroke-linejoin:round; stroke-width:4; stroke-opacity:1; fill:none" points="1709.75,270.476 2281.13,270.476 2281.13,166.796 1709.75,166.796 1709.75,270.476 "/>
<polyline clip-path="url(#clip400)" style="stroke:#009af9; stroke-linecap:round; stroke-linejoin:round; stroke-width:8; stroke-opacity:1; fill:none" points="1733.62,218.636 1876.88,218.636 "/>
<path clip-path="url(#clip400)" d="M1900.75 201.356 L1929.99 201.356 L1929.99 205.291 L1917.72 205.291 L1917.72 235.916 L1913.02 235.916 L1913.02 205.291 L1900.75 205.291 L1900.75 201.356 Z" fill="#000000" fill-rule="nonzero" fill-opacity="1" /><path clip-path="url(#clip400)" d="M1942.37 213.971 Q1941.65 213.555 1940.8 213.37 Q1939.96 213.161 1938.95 213.161 Q1935.33 213.161 1933.39 215.522 Q1931.47 217.86 1931.47 222.258 L1931.47 235.916 L1927.19 235.916 L1927.19 209.99 L1931.47 209.99 L1931.47 214.018 Q1932.81 211.657 1934.96 210.522 Q1937.12 209.365 1940.2 209.365 Q1940.64 209.365 1941.17 209.434 Q1941.7 209.481 1942.35 209.596 L1942.37 213.971 Z" fill="#000000" fill-rule="nonzero" fill-opacity="1" /><path clip-path="url(#clip400)" d="M1946.4 225.684 L1946.4 209.99 L1950.66 209.99 L1950.66 225.522 Q1950.66 229.203 1952.09 231.055 Q1953.53 232.883 1956.4 232.883 Q1959.85 232.883 1961.84 230.684 Q1963.85 228.485 1963.85 224.689 L1963.85 209.99 L1968.11 209.99 L1968.11 235.916 L1963.85 235.916 L1963.85 231.934 Q1962.3 234.295 1960.24 235.453 Q1958.2 236.587 1955.5 236.587 Q1951.03 236.587 1948.71 233.809 Q1946.4 231.031 1946.4 225.684 M1957.12 209.365 L1957.12 209.365 Z" fill="#000000" fill-rule="nonzero" fill-opacity="1" /><path clip-path="url(#clip400)" d="M1999.06 221.888 L1999.06 223.971 L1979.48 223.971 Q1979.76 228.369 1982.12 230.684 Q1984.5 232.976 1988.74 232.976 Q1991.19 232.976 1993.48 232.374 Q1995.8 231.772 1998.07 230.569 L1998.07 234.596 Q1995.77 235.568 1993.37 236.078 Q1990.96 236.587 1988.48 236.587 Q1982.28 236.587 1978.64 232.976 Q1975.03 229.365 1975.03 223.207 Q1975.03 216.842 1978.46 213.115 Q1981.91 209.365 1987.74 209.365 Q1992.97 209.365 1996.01 212.745 Q1999.06 216.101 1999.06 221.888 M1994.8 220.638 Q1994.76 217.143 1992.83 215.059 Q1990.94 212.976 1987.79 212.976 Q1984.22 212.976 1982.07 214.99 Q1979.94 217.004 1979.62 220.661 L1994.8 220.638 Z" fill="#000000" fill-rule="nonzero" fill-opacity="1" /><path clip-path="url(#clip400)" d="M2025.24 232.027 L2025.24 245.777 L2020.96 245.777 L2020.96 209.99 L2025.24 209.99 L2025.24 213.925 Q2026.58 211.61 2028.62 210.499 Q2030.68 209.365 2033.53 209.365 Q2038.25 209.365 2041.19 213.115 Q2044.15 216.865 2044.15 222.976 Q2044.15 229.087 2041.19 232.837 Q2038.25 236.587 2033.53 236.587 Q2030.68 236.587 2028.62 235.476 Q2026.58 234.342 2025.24 232.027 M2039.73 222.976 Q2039.73 218.277 2037.79 215.615 Q2035.87 212.93 2032.49 212.93 Q2029.11 212.93 2027.16 215.615 Q2025.24 218.277 2025.24 222.976 Q2025.24 227.675 2027.16 230.36 Q2029.11 233.022 2032.49 233.022 Q2035.87 233.022 2037.79 230.36 Q2039.73 227.675 2039.73 222.976 Z" fill="#000000" fill-rule="nonzero" fill-opacity="1" /><path clip-path="url(#clip400)" d="M2051.21 199.897 L2055.47 199.897 L2055.47 235.916 L2051.21 235.916 L2051.21 199.897 Z" fill="#000000" fill-rule="nonzero" fill-opacity="1" /><path clip-path="url(#clip400)" d="M2076.17 222.883 Q2071.01 222.883 2069.01 224.064 Q2067.02 225.244 2067.02 228.092 Q2067.02 230.36 2068.51 231.703 Q2070.01 233.022 2072.58 233.022 Q2076.12 233.022 2078.25 230.522 Q2080.4 227.999 2080.4 223.832 L2080.4 222.883 L2076.17 222.883 M2084.66 221.124 L2084.66 235.916 L2080.4 235.916 L2080.4 231.981 Q2078.94 234.342 2076.77 235.476 Q2074.59 236.587 2071.44 236.587 Q2067.46 236.587 2065.1 234.365 Q2062.76 232.119 2062.76 228.369 Q2062.76 223.994 2065.68 221.772 Q2068.62 219.55 2074.43 219.55 L2080.4 219.55 L2080.4 219.133 Q2080.4 216.194 2078.46 214.596 Q2076.54 212.976 2073.04 212.976 Q2070.82 212.976 2068.71 213.508 Q2066.61 214.041 2064.66 215.106 L2064.66 211.17 Q2067 210.268 2069.2 209.828 Q2071.4 209.365 2073.48 209.365 Q2079.11 209.365 2081.88 212.282 Q2084.66 215.198 2084.66 221.124 Z" fill="#000000" fill-rule="nonzero" fill-opacity="1" /><path clip-path="url(#clip400)" d="M2112.09 210.985 L2112.09 214.967 Q2110.29 213.971 2108.46 213.485 Q2106.65 212.976 2104.8 212.976 Q2100.66 212.976 2098.37 215.615 Q2096.07 218.231 2096.07 222.976 Q2096.07 227.721 2098.37 230.36 Q2100.66 232.976 2104.8 232.976 Q2106.65 232.976 2108.46 232.49 Q2110.29 231.981 2112.09 230.985 L2112.09 234.92 Q2110.31 235.754 2108.39 236.17 Q2106.49 236.587 2104.34 236.587 Q2098.48 236.587 2095.03 232.906 Q2091.58 229.226 2091.58 222.976 Q2091.58 216.633 2095.06 212.999 Q2098.55 209.365 2104.62 209.365 Q2106.58 209.365 2108.46 209.782 Q2110.33 210.175 2112.09 210.985 Z" fill="#000000" fill-rule="nonzero" fill-opacity="1" /><path clip-path="url(#clip400)" d="M2141.68 221.888 L2141.68 223.971 L2122.09 223.971 Q2122.37 228.369 2124.73 230.684 Q2127.12 232.976 2131.35 232.976 Q2133.81 232.976 2136.1 232.374 Q2138.41 231.772 2140.68 230.569 L2140.68 234.596 Q2138.39 235.568 2135.98 236.078 Q2133.57 236.587 2131.1 236.587 Q2124.89 236.587 2121.26 232.976 Q2117.65 229.365 2117.65 223.207 Q2117.65 216.842 2121.07 213.115 Q2124.52 209.365 2130.36 209.365 Q2135.59 209.365 2138.62 212.745 Q2141.68 216.101 2141.68 221.888 M2137.42 220.638 Q2137.37 217.143 2135.45 215.059 Q2133.55 212.976 2130.4 212.976 Q2126.84 212.976 2124.69 214.99 Q2122.56 217.004 2122.23 220.661 L2137.42 220.638 Z" fill="#000000" fill-rule="nonzero" fill-opacity="1" /><path clip-path="url(#clip400)" d="M2176.86 199.897 L2176.86 203.439 L2172.79 203.439 Q2170.5 203.439 2169.59 204.365 Q2168.71 205.291 2168.71 207.698 L2168.71 209.99 L2175.73 209.99 L2175.73 213.3 L2168.71 213.3 L2168.71 235.916 L2164.43 235.916 L2164.43 213.3 L2160.36 213.3 L2160.36 209.99 L2164.43 209.99 L2164.43 208.184 Q2164.43 203.856 2166.44 201.888 Q2168.46 199.897 2172.83 199.897 L2176.86 199.897 Z" fill="#000000" fill-rule="nonzero" fill-opacity="1" /><path clip-path="url(#clip400)" d="M2180.43 209.99 L2184.68 209.99 L2184.68 235.916 L2180.43 235.916 L2180.43 209.99 M2180.43 199.897 L2184.68 199.897 L2184.68 205.291 L2180.43 205.291 L2180.43 199.897 Z" fill="#000000" fill-rule="nonzero" fill-opacity="1" /><path clip-path="url(#clip400)" d="M2215.77 221.888 L2215.77 223.971 L2196.19 223.971 Q2196.47 228.369 2198.83 230.684 Q2201.21 232.976 2205.45 232.976 Q2207.9 232.976 2210.19 232.374 Q2212.51 231.772 2214.78 230.569 L2214.78 234.596 Q2212.49 235.568 2210.08 236.078 Q2207.67 236.587 2205.19 236.587 Q2198.99 236.587 2195.36 232.976 Q2191.75 229.365 2191.75 223.207 Q2191.75 216.842 2195.17 213.115 Q2198.62 209.365 2204.45 209.365 Q2209.68 209.365 2212.72 212.745 Q2215.77 216.101 2215.77 221.888 M2211.51 220.638 Q2211.47 217.143 2209.55 215.059 Q2207.65 212.976 2204.5 212.976 Q2200.93 212.976 2198.78 214.99 Q2196.65 217.004 2196.33 220.661 L2211.51 220.638 Z" fill="#000000" fill-rule="nonzero" fill-opacity="1" /><path clip-path="url(#clip400)" d="M2222.76 199.897 L2227.02 199.897 L2227.02 235.916 L2222.76 235.916 L2222.76 199.897 Z" fill="#000000" fill-rule="nonzero" fill-opacity="1" /><path clip-path="url(#clip400)" d="M2252.99 213.925 L2252.99 199.897 L2257.25 199.897 L2257.25 235.916 L2252.99 235.916 L2252.99 232.027 Q2251.65 234.342 2249.59 235.476 Q2247.56 236.587 2244.68 236.587 Q2239.99 236.587 2237.02 232.837 Q2234.08 229.087 2234.08 222.976 Q2234.08 216.865 2237.02 213.115 Q2239.99 209.365 2244.68 209.365 Q2247.56 209.365 2249.59 210.499 Q2251.65 211.61 2252.99 213.925 M2238.48 222.976 Q2238.48 227.675 2240.4 230.36 Q2242.35 233.022 2245.73 233.022 Q2249.11 233.022 2251.05 230.36 Q2252.99 227.675 2252.99 222.976 Q2252.99 218.277 2251.05 215.615 Q2249.11 212.93 2245.73 212.93 Q2242.35 212.93 2240.4 215.615 Q2238.48 218.277 2238.48 222.976 Z" fill="#000000" fill-rule="nonzero" fill-opacity="1" /></svg>
