<?xml version="1.0" encoding="utf-8"?>
<svg xmlns="http://www.w3.org/2000/svg" xmlns:xlink="http://www.w3.org/1999/xlink" width="600" height="400" viewBox="0 0 2400 1600">
<defs>
  <clipPath id="clip430">
    <rect x="0" y="0" width="2400" height="1600"/>
  </clipPath>
</defs>
<path clip-path="url(#clip430)" d="M0 1600 L2400 1600 L2400 0 L0 0  Z" fill="#ffffff" fill-rule="evenodd" fill-opacity="1"/>
<defs>
  <clipPath id="clip431">
    <rect x="203" y="123" width="2150" height="1301"/>
  </clipPath>
</defs>
<path clip-path="url(#clip430)" d="M203.964 1423.18 L2352.76 1423.18 L2352.76 123.472 L203.964 123.472  Z" fill="#ffffff" fill-rule="evenodd" fill-opacity="1"/>
<polyline clip-path="url(#clip431)" style="stroke:#000000; stroke-linecap:round; stroke-linejoin:round; stroke-width:2; stroke-opacity:0.1; fill:none" points="264.778,1423.18 264.778,123.472 "/>
<polyline clip-path="url(#clip431)" style="stroke:#000000; stroke-linecap:round; stroke-linejoin:round; stroke-width:2; stroke-opacity:0.1; fill:none" points="771.569,1423.18 771.569,123.472 "/>
<polyline clip-path="url(#clip431)" style="stroke:#000000; stroke-linecap:round; stroke-linejoin:round; stroke-width:2; stroke-opacity:0.1; fill:none" points="1278.36,1423.18 1278.36,123.472 "/>
<polyline clip-path="url(#clip431)" style="stroke:#000000; stroke-linecap:round; stroke-linejoin:round; stroke-width:2; stroke-opacity:0.1; fill:none" points="1785.15,1423.18 1785.15,123.472 "/>
<polyline clip-path="url(#clip431)" style="stroke:#000000; stroke-linecap:round; stroke-linejoin:round; stroke-width:2; stroke-opacity:0.1; fill:none" points="2291.94,1423.18 2291.94,123.472 "/>
<polyline clip-path="url(#clip431)" style="stroke:#000000; stroke-linecap:round; stroke-linejoin:round; stroke-width:2; stroke-opacity:0.1; fill:none" points="203.964,1386.4 2352.76,1386.4 "/>
<polyline clip-path="url(#clip431)" style="stroke:#000000; stroke-linecap:round; stroke-linejoin:round; stroke-width:2; stroke-opacity:0.1; fill:none" points="203.964,1079.86 2352.76,1079.86 "/>
<polyline clip-path="url(#clip431)" style="stroke:#000000; stroke-linecap:round; stroke-linejoin:round; stroke-width:2; stroke-opacity:0.1; fill:none" points="203.964,773.326 2352.76,773.326 "/>
<polyline clip-path="url(#clip431)" style="stroke:#000000; stroke-linecap:round; stroke-linejoin:round; stroke-width:2; stroke-opacity:0.1; fill:none" points="203.964,466.791 2352.76,466.791 "/>
<polyline clip-path="url(#clip431)" style="stroke:#000000; stroke-linecap:round; stroke-linejoin:round; stroke-width:2; stroke-opacity:0.1; fill:none" points="203.964,160.256 2352.76,160.256 "/>
<polyline clip-path="url(#clip430)" style="stroke:#000000; stroke-linecap:round; stroke-linejoin:round; stroke-width:4; stroke-opacity:1; fill:none" points="203.964,1423.18 2352.76,1423.18 "/>
<polyline clip-path="url(#clip430)" style="stroke:#000000; stroke-linecap:round; stroke-linejoin:round; stroke-width:4; stroke-opacity:1; fill:none" points="264.778,1423.18 264.778,1404.28 "/>
<polyline clip-path="url(#clip430)" style="stroke:#000000; stroke-linecap:round; stroke-linejoin:round; stroke-width:4; stroke-opacity:1; fill:none" points="771.569,1423.18 771.569,1404.28 "/>
<polyline clip-path="url(#clip430)" style="stroke:#000000; stroke-linecap:round; stroke-linejoin:round; stroke-width:4; stroke-opacity:1; fill:none" points="1278.36,1423.18 1278.36,1404.28 "/>
<polyline clip-path="url(#clip430)" style="stroke:#000000; stroke-linecap:round; stroke-linejoin:round; stroke-width:4; stroke-opacity:1; fill:none" points="1785.15,1423.18 1785.15,1404.28 "/>
<polyline clip-path="url(#clip430)" style="stroke:#000000; stroke-linecap:round; stroke-linejoin:round; stroke-width:4; stroke-opacity:1; fill:none" points="2291.94,1423.18 2291.94,1404.28 "/>
<path clip-path="url(#clip430)" d="M242.163 1454.1 Q238.552 1454.1 236.723 1457.66 Q234.917 1461.2 234.917 1468.33 Q234.917 1475.44 236.723 1479.01 Q238.552 1482.55 242.163 1482.55 Q245.797 1482.55 247.603 1479.01 Q249.431 1475.44 249.431 1468.33 Q249.431 1461.2 247.603 1457.66 Q245.797 1454.1 242.163 1454.1 M242.163 1450.39 Q247.973 1450.39 251.029 1455 Q254.107 1459.58 254.107 1468.33 Q254.107 1477.06 251.029 1481.67 Q247.973 1486.25 242.163 1486.25 Q236.353 1486.25 233.274 1481.67 Q230.218 1477.06 230.218 1468.33 Q230.218 1459.58 233.274 1455 Q236.353 1450.39 242.163 1450.39 Z" fill="#000000" fill-rule="nonzero" fill-opacity="1" /><path clip-path="url(#clip430)" d="M262.325 1479.7 L267.209 1479.7 L267.209 1485.58 L262.325 1485.58 L262.325 1479.7 Z" fill="#000000" fill-rule="nonzero" fill-opacity="1" /><path clip-path="url(#clip430)" d="M287.394 1454.1 Q283.783 1454.1 281.954 1457.66 Q280.149 1461.2 280.149 1468.33 Q280.149 1475.44 281.954 1479.01 Q283.783 1482.55 287.394 1482.55 Q291.028 1482.55 292.834 1479.01 Q294.663 1475.44 294.663 1468.33 Q294.663 1461.2 292.834 1457.66 Q291.028 1454.1 287.394 1454.1 M287.394 1450.39 Q293.204 1450.39 296.26 1455 Q299.338 1459.58 299.338 1468.33 Q299.338 1477.06 296.26 1481.67 Q293.204 1486.25 287.394 1486.25 Q281.584 1486.25 278.505 1481.67 Q275.45 1477.06 275.45 1468.33 Q275.45 1459.58 278.505 1455 Q281.584 1450.39 287.394 1450.39 Z" fill="#000000" fill-rule="nonzero" fill-opacity="1" /><path clip-path="url(#clip430)" d="M743.305 1481.64 L759.625 1481.64 L759.625 1485.58 L737.68 1485.58 L737.68 1481.64 Q740.342 1478.89 744.926 1474.26 Q749.532 1469.61 750.713 1468.27 Q752.958 1465.74 753.838 1464.01 Q754.74 1462.25 754.74 1460.56 Q754.74 1457.8 752.796 1456.07 Q750.875 1454.33 747.773 1454.33 Q745.574 1454.33 743.12 1455.09 Q740.69 1455.86 737.912 1457.41 L737.912 1452.69 Q740.736 1451.55 743.19 1450.97 Q745.643 1450.39 747.68 1450.39 Q753.051 1450.39 756.245 1453.08 Q759.44 1455.77 759.44 1460.26 Q759.44 1462.39 758.629 1464.31 Q757.842 1466.2 755.736 1468.8 Q755.157 1469.47 752.055 1472.69 Q748.953 1475.88 743.305 1481.64 Z" fill="#000000" fill-rule="nonzero" fill-opacity="1" /><path clip-path="url(#clip430)" d="M769.439 1479.7 L774.324 1479.7 L774.324 1485.58 L769.439 1485.58 L769.439 1479.7 Z" fill="#000000" fill-rule="nonzero" fill-opacity="1" /><path clip-path="url(#clip430)" d="M784.555 1451.02 L802.912 1451.02 L802.912 1454.96 L788.838 1454.96 L788.838 1463.43 Q789.856 1463.08 790.875 1462.92 Q791.893 1462.73 792.912 1462.73 Q798.699 1462.73 802.078 1465.9 Q805.458 1469.08 805.458 1474.49 Q805.458 1480.07 801.986 1483.17 Q798.513 1486.25 792.194 1486.25 Q790.018 1486.25 787.75 1485.88 Q785.504 1485.51 783.097 1484.77 L783.097 1480.07 Q785.18 1481.2 787.402 1481.76 Q789.625 1482.32 792.101 1482.32 Q796.106 1482.32 798.444 1480.21 Q800.782 1478.1 800.782 1474.49 Q800.782 1470.88 798.444 1468.77 Q796.106 1466.67 792.101 1466.67 Q790.226 1466.67 788.351 1467.08 Q786.5 1467.5 784.555 1468.38 L784.555 1451.02 Z" fill="#000000" fill-rule="nonzero" fill-opacity="1" /><path clip-path="url(#clip430)" d="M1245.52 1451.02 L1263.88 1451.02 L1263.88 1454.96 L1249.81 1454.96 L1249.81 1463.43 Q1250.83 1463.08 1251.84 1462.92 Q1252.86 1462.73 1253.88 1462.73 Q1259.67 1462.73 1263.05 1465.9 Q1266.43 1469.08 1266.43 1474.49 Q1266.43 1480.07 1262.95 1483.17 Q1259.48 1486.25 1253.16 1486.25 Q1250.99 1486.25 1248.72 1485.88 Q1246.47 1485.51 1244.07 1484.77 L1244.07 1480.07 Q1246.15 1481.2 1248.37 1481.76 Q1250.59 1482.32 1253.07 1482.32 Q1257.08 1482.32 1259.41 1480.21 Q1261.75 1478.1 1261.75 1474.49 Q1261.75 1470.88 1259.41 1468.77 Q1257.08 1466.67 1253.07 1466.67 Q1251.2 1466.67 1249.32 1467.08 Q1247.47 1467.5 1245.52 1468.38 L1245.52 1451.02 Z" fill="#000000" fill-rule="nonzero" fill-opacity="1" /><path clip-path="url(#clip430)" d="M1275.64 1479.7 L1280.52 1479.7 L1280.52 1485.58 L1275.64 1485.58 L1275.64 1479.7 Z" fill="#000000" fill-rule="nonzero" fill-opacity="1" /><path clip-path="url(#clip430)" d="M1300.71 1454.1 Q1297.1 1454.1 1295.27 1457.66 Q1293.46 1461.2 1293.46 1468.33 Q1293.46 1475.44 1295.27 1479.01 Q1297.1 1482.55 1300.71 1482.55 Q1304.34 1482.55 1306.15 1479.01 Q1307.98 1475.44 1307.98 1468.33 Q1307.98 1461.2 1306.15 1457.66 Q1304.34 1454.1 1300.71 1454.1 M1300.71 1450.39 Q1306.52 1450.39 1309.57 1455 Q1312.65 1459.58 1312.65 1468.33 Q1312.65 1477.06 1309.57 1481.67 Q1306.52 1486.25 1300.71 1486.25 Q1294.9 1486.25 1291.82 1481.67 Q1288.76 1477.06 1288.76 1468.33 Q1288.76 1459.58 1291.82 1455 Q1294.9 1450.39 1300.71 1450.39 Z" fill="#000000" fill-rule="nonzero" fill-opacity="1" /><path clip-path="url(#clip430)" d="M1751.47 1451.02 L1773.69 1451.02 L1773.69 1453.01 L1761.15 1485.58 L1756.26 1485.58 L1768.07 1454.96 L1751.47 1454.96 L1751.47 1451.02 Z" fill="#000000" fill-rule="nonzero" fill-opacity="1" /><path clip-path="url(#clip430)" d="M1782.81 1479.7 L1787.7 1479.7 L1787.7 1485.58 L1782.81 1485.58 L1782.81 1479.7 Z" fill="#000000" fill-rule="nonzero" fill-opacity="1" /><path clip-path="url(#clip430)" d="M1797.93 1451.02 L1816.28 1451.02 L1816.28 1454.96 L1802.21 1454.96 L1802.21 1463.43 Q1803.23 1463.08 1804.25 1462.92 Q1805.27 1462.73 1806.28 1462.73 Q1812.07 1462.73 1815.45 1465.9 Q1818.83 1469.08 1818.83 1474.49 Q1818.83 1480.07 1815.36 1483.17 Q1811.89 1486.25 1805.57 1486.25 Q1803.39 1486.25 1801.12 1485.88 Q1798.88 1485.51 1796.47 1484.77 L1796.47 1480.07 Q1798.55 1481.2 1800.78 1481.76 Q1803 1482.32 1805.47 1482.32 Q1809.48 1482.32 1811.82 1480.21 Q1814.15 1478.1 1814.15 1474.49 Q1814.15 1470.88 1811.82 1468.77 Q1809.48 1466.67 1805.47 1466.67 Q1803.6 1466.67 1801.72 1467.08 Q1799.87 1467.5 1797.93 1468.38 L1797.93 1451.02 Z" fill="#000000" fill-rule="nonzero" fill-opacity="1" /><path clip-path="url(#clip430)" d="M2244.01 1481.64 L2251.65 1481.64 L2251.65 1455.28 L2243.34 1456.95 L2243.34 1452.69 L2251.61 1451.02 L2256.28 1451.02 L2256.28 1481.64 L2263.92 1481.64 L2263.92 1485.58 L2244.01 1485.58 L2244.01 1481.64 Z" fill="#000000" fill-rule="nonzero" fill-opacity="1" /><path clip-path="url(#clip430)" d="M2283.36 1454.1 Q2279.75 1454.1 2277.92 1457.66 Q2276.12 1461.2 2276.12 1468.33 Q2276.12 1475.44 2277.92 1479.01 Q2279.75 1482.55 2283.36 1482.55 Q2287 1482.55 2288.8 1479.01 Q2290.63 1475.44 2290.63 1468.33 Q2290.63 1461.2 2288.8 1457.66 Q2287 1454.1 2283.36 1454.1 M2283.36 1450.39 Q2289.17 1450.39 2292.23 1455 Q2295.31 1459.58 2295.31 1468.33 Q2295.31 1477.06 2292.23 1481.67 Q2289.17 1486.25 2283.36 1486.25 Q2277.55 1486.25 2274.48 1481.67 Q2271.42 1477.06 2271.42 1468.33 Q2271.42 1459.58 2274.48 1455 Q2277.55 1450.39 2283.36 1450.39 Z" fill="#000000" fill-rule="nonzero" fill-opacity="1" /><path clip-path="url(#clip430)" d="M2303.53 1479.7 L2308.41 1479.7 L2308.41 1485.58 L2303.53 1485.58 L2303.53 1479.7 Z" fill="#000000" fill-rule="nonzero" fill-opacity="1" /><path clip-path="url(#clip430)" d="M2328.6 1454.1 Q2324.98 1454.1 2323.16 1457.66 Q2321.35 1461.2 2321.35 1468.33 Q2321.35 1475.44 2323.16 1479.01 Q2324.98 1482.55 2328.6 1482.55 Q2332.23 1482.55 2334.04 1479.01 Q2335.86 1475.44 2335.86 1468.33 Q2335.86 1461.2 2334.04 1457.66 Q2332.23 1454.1 2328.6 1454.1 M2328.6 1450.39 Q2334.41 1450.39 2337.46 1455 Q2340.54 1459.58 2340.54 1468.33 Q2340.54 1477.06 2337.46 1481.67 Q2334.41 1486.25 2328.6 1486.25 Q2322.79 1486.25 2319.71 1481.67 Q2316.65 1477.06 2316.65 1468.33 Q2316.65 1459.58 2319.71 1455 Q2322.79 1450.39 2328.6 1450.39 Z" fill="#000000" fill-rule="nonzero" fill-opacity="1" /><path clip-path="url(#clip430)" d="M895.653 1525.81 L895.653 1543.66 L903.738 1543.66 Q908.226 1543.66 910.677 1541.34 Q913.127 1539.02 913.127 1534.72 Q913.127 1530.45 910.677 1528.13 Q908.226 1525.81 903.738 1525.81 L895.653 1525.81 M889.224 1520.52 L903.738 1520.52 Q911.727 1520.52 915.801 1524.15 Q919.907 1527.75 919.907 1534.72 Q919.907 1541.75 915.801 1545.35 Q911.727 1548.95 903.738 1548.95 L895.653 1548.95 L895.653 1568.04 L889.224 1568.04 L889.224 1520.52 Z" fill="#000000" fill-rule="nonzero" fill-opacity="1" /><path clip-path="url(#clip430)" d="M939.768 1536.5 Q935.057 1536.5 932.32 1540.19 Q929.583 1543.85 929.583 1550.25 Q929.583 1556.65 932.288 1560.34 Q935.025 1564 939.768 1564 Q944.447 1564 947.184 1560.31 Q949.921 1556.62 949.921 1550.25 Q949.921 1543.92 947.184 1540.23 Q944.447 1536.5 939.768 1536.5 M939.768 1531.54 Q947.407 1531.54 951.767 1536.5 Q956.128 1541.47 956.128 1550.25 Q956.128 1559 951.767 1564 Q947.407 1568.97 939.768 1568.97 Q932.097 1568.97 927.737 1564 Q923.408 1559 923.408 1550.25 Q923.408 1541.47 927.737 1536.5 Q932.097 1531.54 939.768 1531.54 Z" fill="#000000" fill-rule="nonzero" fill-opacity="1" /><path clip-path="url(#clip430)" d="M988.561 1533.45 L988.561 1538.98 Q986.078 1537.71 983.405 1537.07 Q980.731 1536.44 977.867 1536.44 Q973.506 1536.44 971.31 1537.77 Q969.146 1539.11 969.146 1541.79 Q969.146 1543.82 970.705 1545 Q972.265 1546.15 976.975 1547.2 L978.981 1547.64 Q985.219 1548.98 987.829 1551.43 Q990.471 1553.85 990.471 1558.21 Q990.471 1563.17 986.524 1566.07 Q982.609 1568.97 975.734 1568.97 Q972.869 1568.97 969.75 1568.39 Q966.663 1567.85 963.225 1566.74 L963.225 1560.69 Q966.472 1562.38 969.623 1563.24 Q972.774 1564.07 975.861 1564.07 Q979.999 1564.07 982.227 1562.66 Q984.455 1561.23 984.455 1558.65 Q984.455 1556.27 982.832 1554.99 Q981.24 1553.72 975.798 1552.54 L973.761 1552.07 Q968.318 1550.92 965.899 1548.56 Q963.48 1546.18 963.48 1542.04 Q963.48 1537.01 967.045 1534.27 Q970.61 1531.54 977.166 1531.54 Q980.413 1531.54 983.277 1532.01 Q986.142 1532.49 988.561 1533.45 Z" fill="#000000" fill-rule="nonzero" fill-opacity="1" /><path clip-path="url(#clip430)" d="M999.796 1532.4 L1005.65 1532.4 L1005.65 1568.04 L999.796 1568.04 L999.796 1532.4 M999.796 1518.52 L1005.65 1518.52 L1005.65 1525.93 L999.796 1525.93 L999.796 1518.52 Z" fill="#000000" fill-rule="nonzero" fill-opacity="1" /><path clip-path="url(#clip430)" d="M1023.7 1522.27 L1023.7 1532.4 L1035.76 1532.4 L1035.76 1536.95 L1023.7 1536.95 L1023.7 1556.3 Q1023.7 1560.66 1024.88 1561.9 Q1026.09 1563.14 1029.75 1563.14 L1035.76 1563.14 L1035.76 1568.04 L1029.75 1568.04 Q1022.97 1568.04 1020.39 1565.53 Q1017.81 1562.98 1017.81 1556.3 L1017.81 1536.95 L1013.51 1536.95 L1013.51 1532.4 L1017.81 1532.4 L1017.81 1522.27 L1023.7 1522.27 Z" fill="#000000" fill-rule="nonzero" fill-opacity="1" /><path clip-path="url(#clip430)" d="M1043.47 1532.4 L1049.32 1532.4 L1049.32 1568.04 L1043.47 1568.04 L1043.47 1532.4 M1043.47 1518.52 L1049.32 1518.52 L1049.32 1525.93 L1043.47 1525.93 L1043.47 1518.52 Z" fill="#000000" fill-rule="nonzero" fill-opacity="1" /><path clip-path="url(#clip430)" d="M1075.39 1536.5 Q1070.68 1536.5 1067.94 1540.19 Q1065.2 1543.85 1065.2 1550.25 Q1065.2 1556.65 1067.91 1560.34 Q1070.65 1564 1075.39 1564 Q1080.07 1564 1082.81 1560.31 Q1085.54 1556.62 1085.54 1550.25 Q1085.54 1543.92 1082.81 1540.23 Q1080.07 1536.5 1075.39 1536.5 M1075.39 1531.54 Q1083.03 1531.54 1087.39 1536.5 Q1091.75 1541.47 1091.75 1550.25 Q1091.75 1559 1087.39 1564 Q1083.03 1568.97 1075.39 1568.97 Q1067.72 1568.97 1063.36 1564 Q1059.03 1559 1059.03 1550.25 Q1059.03 1541.47 1063.36 1536.5 Q1067.72 1531.54 1075.39 1531.54 Z" fill="#000000" fill-rule="nonzero" fill-opacity="1" /><path clip-path="url(#clip430)" d="M1131.09 1546.53 L1131.09 1568.04 L1125.23 1568.04 L1125.23 1546.72 Q1125.23 1541.66 1123.26 1539.14 Q1121.29 1536.63 1117.34 1536.63 Q1112.6 1536.63 1109.86 1539.65 Q1107.12 1542.68 1107.12 1547.9 L1107.12 1568.04 L1101.23 1568.04 L1101.23 1532.4 L1107.12 1532.4 L1107.12 1537.93 Q1109.22 1534.72 1112.06 1533.13 Q1114.92 1531.54 1118.64 1531.54 Q1124.79 1531.54 1127.94 1535.36 Q1131.09 1539.14 1131.09 1546.53 Z" fill="#000000" fill-rule="nonzero" fill-opacity="1" /><path clip-path="url(#clip430)" d="M1177.56 1518.58 Q1173.29 1525.9 1171.22 1533.06 Q1169.16 1540.23 1169.16 1547.58 Q1169.16 1554.93 1171.22 1562.16 Q1173.33 1569.35 1177.56 1576.64 L1172.47 1576.64 Q1167.69 1569.16 1165.3 1561.93 Q1162.95 1554.71 1162.95 1547.58 Q1162.95 1540.48 1165.3 1533.29 Q1167.66 1526.09 1172.47 1518.58 L1177.56 1518.58 Z" fill="#000000" fill-rule="nonzero" fill-opacity="1" /><path clip-path="url(#clip430)" d="M1205.12 1550.12 Q1198.02 1550.12 1195.29 1551.75 Q1192.55 1553.37 1192.55 1557.29 Q1192.55 1560.4 1194.59 1562.25 Q1196.66 1564.07 1200.19 1564.07 Q1205.06 1564.07 1207.99 1560.63 Q1210.95 1557.16 1210.95 1551.43 L1210.95 1550.12 L1205.12 1550.12 M1216.8 1547.71 L1216.8 1568.04 L1210.95 1568.04 L1210.95 1562.63 Q1208.94 1565.88 1205.95 1567.44 Q1202.96 1568.97 1198.63 1568.97 Q1193.15 1568.97 1189.91 1565.91 Q1186.69 1562.82 1186.69 1557.67 Q1186.69 1551.65 1190.7 1548.6 Q1194.75 1545.54 1202.74 1545.54 L1210.95 1545.54 L1210.95 1544.97 Q1210.95 1540.93 1208.27 1538.73 Q1205.63 1536.5 1200.83 1536.5 Q1197.77 1536.5 1194.87 1537.23 Q1191.98 1537.97 1189.3 1539.43 L1189.3 1534.02 Q1192.52 1532.78 1195.54 1532.17 Q1198.57 1531.54 1201.43 1531.54 Q1209.16 1531.54 1212.98 1535.55 Q1216.8 1539.56 1216.8 1547.71 Z" fill="#000000" fill-rule="nonzero" fill-opacity="1" /><path clip-path="url(#clip430)" d="M1249.52 1537.87 Q1248.54 1537.3 1247.36 1537.04 Q1246.21 1536.76 1244.81 1536.76 Q1239.85 1536.76 1237.17 1540 Q1234.53 1543.22 1234.53 1549.27 L1234.53 1568.04 L1228.64 1568.04 L1228.64 1532.4 L1234.53 1532.4 L1234.53 1537.93 Q1236.38 1534.69 1239.34 1533.13 Q1242.3 1531.54 1246.53 1531.54 Q1247.14 1531.54 1247.87 1531.63 Q1248.6 1531.7 1249.49 1531.85 L1249.52 1537.87 Z" fill="#000000" fill-rule="nonzero" fill-opacity="1" /><path clip-path="url(#clip430)" d="M1281.26 1550.25 Q1281.26 1543.79 1278.58 1540.13 Q1275.94 1536.44 1271.29 1536.44 Q1266.65 1536.44 1263.97 1540.13 Q1261.33 1543.79 1261.33 1550.25 Q1261.33 1556.71 1263.97 1560.4 Q1266.65 1564.07 1271.29 1564.07 Q1275.94 1564.07 1278.58 1560.4 Q1281.26 1556.71 1281.26 1550.25 M1261.33 1537.81 Q1263.18 1534.62 1265.98 1533.1 Q1268.81 1531.54 1272.73 1531.54 Q1279.22 1531.54 1283.26 1536.69 Q1287.34 1541.85 1287.34 1550.25 Q1287.34 1558.65 1283.26 1563.81 Q1279.22 1568.97 1272.73 1568.97 Q1268.81 1568.97 1265.98 1567.44 Q1263.18 1565.88 1261.33 1562.7 L1261.33 1568.04 L1255.44 1568.04 L1255.44 1518.52 L1261.33 1518.52 L1261.33 1537.81 Z" fill="#000000" fill-rule="nonzero" fill-opacity="1" /><path clip-path="url(#clip430)" d="M1297.04 1532.4 L1302.9 1532.4 L1302.9 1568.04 L1297.04 1568.04 L1297.04 1532.4 M1297.04 1518.52 L1302.9 1518.52 L1302.9 1525.93 L1297.04 1525.93 L1297.04 1518.52 Z" fill="#000000" fill-rule="nonzero" fill-opacity="1" /><path clip-path="url(#clip430)" d="M1320.95 1522.27 L1320.95 1532.4 L1333.01 1532.4 L1333.01 1536.95 L1320.95 1536.95 L1320.95 1556.3 Q1320.95 1560.66 1322.12 1561.9 Q1323.33 1563.14 1326.99 1563.14 L1333.01 1563.14 L1333.01 1568.04 L1326.99 1568.04 Q1320.21 1568.04 1317.64 1565.53 Q1315.06 1562.98 1315.06 1556.3 L1315.06 1536.95 L1310.76 1536.95 L1310.76 1532.4 L1315.06 1532.4 L1315.06 1522.27 L1320.95 1522.27 Z" fill="#000000" fill-rule="nonzero" fill-opacity="1" /><path clip-path="url(#clip430)" d="M1361.37 1537.87 Q1360.38 1537.3 1359.2 1537.04 Q1358.06 1536.76 1356.66 1536.76 Q1351.69 1536.76 1349.02 1540 Q1346.38 1543.22 1346.38 1549.27 L1346.38 1568.04 L1340.49 1568.04 L1340.49 1532.4 L1346.38 1532.4 L1346.38 1537.93 Q1348.22 1534.69 1351.18 1533.13 Q1354.14 1531.54 1358.38 1531.54 Q1358.98 1531.54 1359.71 1531.63 Q1360.45 1531.7 1361.34 1531.85 L1361.37 1537.87 Z" fill="#000000" fill-rule="nonzero" fill-opacity="1" /><path clip-path="url(#clip430)" d="M1383.71 1550.12 Q1376.61 1550.12 1373.88 1551.75 Q1371.14 1553.37 1371.14 1557.29 Q1371.14 1560.4 1373.18 1562.25 Q1375.25 1564.07 1378.78 1564.07 Q1383.65 1564.07 1386.58 1560.63 Q1389.54 1557.16 1389.54 1551.43 L1389.54 1550.12 L1383.71 1550.12 M1395.39 1547.71 L1395.39 1568.04 L1389.54 1568.04 L1389.54 1562.63 Q1387.53 1565.88 1384.54 1567.44 Q1381.55 1568.97 1377.22 1568.97 Q1371.74 1568.97 1368.5 1565.91 Q1365.28 1562.82 1365.28 1557.67 Q1365.28 1551.65 1369.29 1548.6 Q1373.34 1545.54 1381.33 1545.54 L1389.54 1545.54 L1389.54 1544.97 Q1389.54 1540.93 1386.86 1538.73 Q1384.22 1536.5 1379.42 1536.5 Q1376.36 1536.5 1373.46 1537.23 Q1370.57 1537.97 1367.89 1539.43 L1367.89 1534.02 Q1371.11 1532.78 1374.13 1532.17 Q1377.16 1531.54 1380.02 1531.54 Q1387.75 1531.54 1391.57 1535.55 Q1395.39 1539.56 1395.39 1547.71 Z" fill="#000000" fill-rule="nonzero" fill-opacity="1" /><path clip-path="url(#clip430)" d="M1428.11 1537.87 Q1427.13 1537.3 1425.95 1537.04 Q1424.8 1536.76 1423.4 1536.76 Q1418.44 1536.76 1415.76 1540 Q1413.12 1543.22 1413.12 1549.27 L1413.12 1568.04 L1407.23 1568.04 L1407.23 1532.4 L1413.12 1532.4 L1413.12 1537.93 Q1414.97 1534.69 1417.93 1533.13 Q1420.89 1531.54 1425.12 1531.54 Q1425.73 1531.54 1426.46 1531.63 Q1427.19 1531.7 1428.08 1531.85 L1428.11 1537.87 Z" fill="#000000" fill-rule="nonzero" fill-opacity="1" /><path clip-path="url(#clip430)" d="M1449.09 1571.35 Q1446.61 1577.72 1444.25 1579.66 Q1441.89 1581.6 1437.95 1581.6 L1433.27 1581.6 L1433.27 1576.7 L1436.71 1576.7 Q1439.13 1576.7 1440.46 1575.56 Q1441.8 1574.41 1443.42 1570.14 L1444.47 1567.47 L1430.05 1532.4 L1436.26 1532.4 L1447.4 1560.28 L1458.54 1532.4 L1464.75 1532.4 L1449.09 1571.35 Z" fill="#000000" fill-rule="nonzero" fill-opacity="1" /><path clip-path="url(#clip430)" d="M1492.95 1553.98 L1492.95 1532.4 L1498.8 1532.4 L1498.8 1553.75 Q1498.8 1558.81 1500.78 1561.36 Q1502.75 1563.87 1506.7 1563.87 Q1511.44 1563.87 1514.18 1560.85 Q1516.95 1557.83 1516.95 1552.61 L1516.95 1532.4 L1522.8 1532.4 L1522.8 1568.04 L1516.95 1568.04 L1516.95 1562.57 Q1514.81 1565.82 1511.98 1567.41 Q1509.18 1568.97 1505.46 1568.97 Q1499.31 1568.97 1496.13 1565.15 Q1492.95 1561.33 1492.95 1553.98 M1507.68 1531.54 L1507.68 1531.54 Z" fill="#000000" fill-rule="nonzero" fill-opacity="1" /><path clip-path="url(#clip430)" d="M1564.5 1546.53 L1564.5 1568.04 L1558.64 1568.04 L1558.64 1546.72 Q1558.64 1541.66 1556.67 1539.14 Q1554.7 1536.63 1550.75 1536.63 Q1546.01 1536.63 1543.27 1539.65 Q1540.53 1542.68 1540.53 1547.9 L1540.53 1568.04 L1534.64 1568.04 L1534.64 1532.4 L1540.53 1532.4 L1540.53 1537.93 Q1542.63 1534.72 1545.46 1533.13 Q1548.33 1531.54 1552.05 1531.54 Q1558.2 1531.54 1561.35 1535.36 Q1564.5 1539.14 1564.5 1546.53 Z" fill="#000000" fill-rule="nonzero" fill-opacity="1" /><path clip-path="url(#clip430)" d="M1576.18 1532.4 L1582.04 1532.4 L1582.04 1568.04 L1576.18 1568.04 L1576.18 1532.4 M1576.18 1518.52 L1582.04 1518.52 L1582.04 1525.93 L1576.18 1525.93 L1576.18 1518.52 Z" fill="#000000" fill-rule="nonzero" fill-opacity="1" /><path clip-path="url(#clip430)" d="M1600.08 1522.27 L1600.08 1532.4 L1612.15 1532.4 L1612.15 1536.95 L1600.08 1536.95 L1600.08 1556.3 Q1600.08 1560.66 1601.26 1561.9 Q1602.47 1563.14 1606.13 1563.14 L1612.15 1563.14 L1612.15 1568.04 L1606.13 1568.04 Q1599.35 1568.04 1596.77 1565.53 Q1594.19 1562.98 1594.19 1556.3 L1594.19 1536.95 L1589.9 1536.95 L1589.9 1532.4 L1594.19 1532.4 L1594.19 1522.27 L1600.08 1522.27 Z" fill="#000000" fill-rule="nonzero" fill-opacity="1" /><path clip-path="url(#clip430)" d="M1642.57 1533.45 L1642.57 1538.98 Q1640.09 1537.71 1637.42 1537.07 Q1634.74 1536.44 1631.88 1536.44 Q1627.52 1536.44 1625.32 1537.77 Q1623.16 1539.11 1623.16 1541.79 Q1623.16 1543.82 1624.72 1545 Q1626.28 1546.15 1630.99 1547.2 L1632.99 1547.64 Q1639.23 1548.98 1641.84 1551.43 Q1644.48 1553.85 1644.48 1558.21 Q1644.48 1563.17 1640.54 1566.07 Q1636.62 1568.97 1629.75 1568.97 Q1626.88 1568.97 1623.76 1568.39 Q1620.68 1567.85 1617.24 1566.74 L1617.24 1560.69 Q1620.48 1562.38 1623.64 1563.24 Q1626.79 1564.07 1629.87 1564.07 Q1634.01 1564.07 1636.24 1562.66 Q1638.47 1561.23 1638.47 1558.65 Q1638.47 1556.27 1636.84 1554.99 Q1635.25 1553.72 1629.81 1552.54 L1627.77 1552.07 Q1622.33 1550.92 1619.91 1548.56 Q1617.49 1546.18 1617.49 1542.04 Q1617.49 1537.01 1621.06 1534.27 Q1624.62 1531.54 1631.18 1531.54 Q1634.43 1531.54 1637.29 1532.01 Q1640.15 1532.49 1642.57 1533.45 Z" fill="#000000" fill-rule="nonzero" fill-opacity="1" /><path clip-path="url(#clip430)" d="M1652.89 1518.58 L1657.98 1518.58 Q1662.75 1526.09 1665.11 1533.29 Q1667.5 1540.48 1667.5 1547.58 Q1667.5 1554.71 1665.11 1561.93 Q1662.75 1569.16 1657.98 1576.64 L1652.89 1576.64 Q1657.12 1569.35 1659.19 1562.16 Q1661.29 1554.93 1661.29 1547.58 Q1661.29 1540.23 1659.19 1533.06 Q1657.12 1525.9 1652.89 1518.58 Z" fill="#000000" fill-rule="nonzero" fill-opacity="1" /><polyline clip-path="url(#clip430)" style="stroke:#000000; stroke-linecap:round; stroke-linejoin:round; stroke-width:4; stroke-opacity:1; fill:none" points="203.964,1423.18 203.964,123.472 "/>
<polyline clip-path="url(#clip430)" style="stroke:#000000; stroke-linecap:round; stroke-linejoin:round; stroke-width:4; stroke-opacity:1; fill:none" points="203.964,1386.4 222.861,1386.4 "/>
<polyline clip-path="url(#clip430)" style="stroke:#000000; stroke-linecap:round; stroke-linejoin:round; stroke-width:4; stroke-opacity:1; fill:none" points="203.964,1079.86 222.861,1079.86 "/>
<polyline clip-path="url(#clip430)" style="stroke:#000000; stroke-linecap:round; stroke-linejoin:round; stroke-width:4; stroke-opacity:1; fill:none" points="203.964,773.326 222.861,773.326 "/>
<polyline clip-path="url(#clip430)" style="stroke:#000000; stroke-linecap:round; stroke-linejoin:round; stroke-width:4; stroke-opacity:1; fill:none" points="203.964,466.791 222.861,466.791 "/>
<polyline clip-path="url(#clip430)" style="stroke:#000000; stroke-linecap:round; stroke-linejoin:round; stroke-width:4; stroke-opacity:1; fill:none" points="203.964,160.256 222.861,160.256 "/>
<path clip-path="url(#clip430)" d="M156.019 1372.19 Q152.408 1372.19 150.579 1375.76 Q148.774 1379.3 148.774 1386.43 Q148.774 1393.54 150.579 1397.1 Q152.408 1400.64 156.019 1400.64 Q159.653 1400.64 161.459 1397.1 Q163.288 1393.54 163.288 1386.43 Q163.288 1379.3 161.459 1375.76 Q159.653 1372.19 156.019 1372.19 M156.019 1368.49 Q161.829 1368.49 164.885 1373.1 Q167.964 1377.68 167.964 1386.43 Q167.964 1395.16 164.885 1399.76 Q161.829 1404.35 156.019 1404.35 Q150.209 1404.35 147.13 1399.76 Q144.075 1395.16 144.075 1386.43 Q144.075 1377.68 147.13 1373.1 Q150.209 1368.49 156.019 1368.49 Z" fill="#000000" fill-rule="nonzero" fill-opacity="1" /><path clip-path="url(#clip430)" d="M147.061 1062.58 L165.417 1062.58 L165.417 1066.52 L151.343 1066.52 L151.343 1074.99 Q152.362 1074.64 153.38 1074.48 Q154.399 1074.29 155.417 1074.29 Q161.204 1074.29 164.584 1077.47 Q167.964 1080.64 167.964 1086.05 Q167.964 1091.63 164.491 1094.73 Q161.019 1097.81 154.7 1097.81 Q152.524 1097.81 150.255 1097.44 Q148.01 1097.07 145.603 1096.33 L145.603 1091.63 Q147.686 1092.77 149.908 1093.32 Q152.13 1093.88 154.607 1093.88 Q158.612 1093.88 160.95 1091.77 Q163.288 1089.66 163.288 1086.05 Q163.288 1082.44 160.95 1080.34 Q158.612 1078.23 154.607 1078.23 Q152.732 1078.23 150.857 1078.65 Q149.005 1079.06 147.061 1079.94 L147.061 1062.58 Z" fill="#000000" fill-rule="nonzero" fill-opacity="1" /><path clip-path="url(#clip430)" d="M116.668 786.671 L124.306 786.671 L124.306 760.305 L115.996 761.972 L115.996 757.713 L124.26 756.046 L128.936 756.046 L128.936 786.671 L136.575 786.671 L136.575 790.606 L116.668 790.606 L116.668 786.671 Z" fill="#000000" fill-rule="nonzero" fill-opacity="1" /><path clip-path="url(#clip430)" d="M156.019 759.125 Q152.408 759.125 150.579 762.689 Q148.774 766.231 148.774 773.361 Q148.774 780.467 150.579 784.032 Q152.408 787.574 156.019 787.574 Q159.653 787.574 161.459 784.032 Q163.288 780.467 163.288 773.361 Q163.288 766.231 161.459 762.689 Q159.653 759.125 156.019 759.125 M156.019 755.421 Q161.829 755.421 164.885 760.027 Q167.964 764.611 167.964 773.361 Q167.964 782.088 164.885 786.694 Q161.829 791.277 156.019 791.277 Q150.209 791.277 147.13 786.694 Q144.075 782.088 144.075 773.361 Q144.075 764.611 147.13 760.027 Q150.209 755.421 156.019 755.421 Z" fill="#000000" fill-rule="nonzero" fill-opacity="1" /><path clip-path="url(#clip430)" d="M117.663 480.136 L125.302 480.136 L125.302 453.77 L116.992 455.437 L116.992 451.178 L125.255 449.511 L129.931 449.511 L129.931 480.136 L137.57 480.136 L137.57 484.071 L117.663 484.071 L117.663 480.136 Z" fill="#000000" fill-rule="nonzero" fill-opacity="1" /><path clip-path="url(#clip430)" d="M147.061 449.511 L165.417 449.511 L165.417 453.446 L151.343 453.446 L151.343 461.918 Q152.362 461.571 153.38 461.409 Q154.399 461.224 155.417 461.224 Q161.204 461.224 164.584 464.395 Q167.964 467.567 167.964 472.983 Q167.964 478.562 164.491 481.664 Q161.019 484.742 154.7 484.742 Q152.524 484.742 150.255 484.372 Q148.01 484.002 145.603 483.261 L145.603 478.562 Q147.686 479.696 149.908 480.252 Q152.13 480.807 154.607 480.807 Q158.612 480.807 160.95 478.701 Q163.288 476.594 163.288 472.983 Q163.288 469.372 160.95 467.266 Q158.612 465.159 154.607 465.159 Q152.732 465.159 150.857 465.576 Q149.005 465.993 147.061 466.872 L147.061 449.511 Z" fill="#000000" fill-rule="nonzero" fill-opacity="1" /><path clip-path="url(#clip430)" d="M119.885 173.601 L136.204 173.601 L136.204 177.536 L114.26 177.536 L114.26 173.601 Q116.922 170.847 121.505 166.217 Q126.112 161.564 127.292 160.222 Q129.538 157.698 130.417 155.962 Q131.32 154.203 131.32 152.513 Q131.32 149.759 129.376 148.023 Q127.455 146.286 124.353 146.286 Q122.154 146.286 119.7 147.05 Q117.269 147.814 114.492 149.365 L114.492 144.643 Q117.316 143.509 119.769 142.93 Q122.223 142.351 124.26 142.351 Q129.63 142.351 132.825 145.036 Q136.019 147.722 136.019 152.212 Q136.019 154.342 135.209 156.263 Q134.422 158.161 132.316 160.754 Q131.737 161.425 128.635 164.643 Q125.533 167.837 119.885 173.601 Z" fill="#000000" fill-rule="nonzero" fill-opacity="1" /><path clip-path="url(#clip430)" d="M156.019 146.055 Q152.408 146.055 150.579 149.62 Q148.774 153.161 148.774 160.291 Q148.774 167.397 150.579 170.962 Q152.408 174.504 156.019 174.504 Q159.653 174.504 161.459 170.962 Q163.288 167.397 163.288 160.291 Q163.288 153.161 161.459 149.62 Q159.653 146.055 156.019 146.055 M156.019 142.351 Q161.829 142.351 164.885 146.958 Q167.964 151.541 167.964 160.291 Q167.964 169.018 164.885 173.624 Q161.829 178.208 156.019 178.208 Q150.209 178.208 147.13 173.624 Q144.075 169.018 144.075 160.291 Q144.075 151.541 147.13 146.958 Q150.209 142.351 156.019 142.351 Z" fill="#000000" fill-rule="nonzero" fill-opacity="1" /><path clip-path="url(#clip430)" d="M16.4842 1010.53 L16.4842 983.219 L21.895 983.219 L21.895 1004.1 L35.8996 1004.1 L35.8996 985.256 L41.3104 985.256 L41.3104 1004.1 L64.0042 1004.1 L64.0042 1010.53 L16.4842 1010.53 Z" fill="#000000" fill-rule="nonzero" fill-opacity="1" /><path clip-path="url(#clip430)" d="M28.3562 978.031 L28.3562 972.175 L64.0042 972.175 L64.0042 978.031 L28.3562 978.031 M14.479 978.031 L14.479 972.175 L21.895 972.175 L21.895 978.031 L14.479 978.031 Z" fill="#000000" fill-rule="nonzero" fill-opacity="1" /><path clip-path="url(#clip430)" d="M33.8307 939.264 Q33.2578 940.251 33.0032 941.428 Q32.7167 942.574 32.7167 943.975 Q32.7167 948.94 35.9632 951.614 Q39.1779 954.255 45.2253 954.255 L64.0042 954.255 L64.0042 960.144 L28.3562 960.144 L28.3562 954.255 L33.8944 954.255 Q30.6479 952.409 29.0883 949.449 Q27.4968 946.489 27.4968 942.256 Q27.4968 941.651 27.5923 940.919 Q27.656 940.187 27.8151 939.296 L33.8307 939.264 Z" fill="#000000" fill-rule="nonzero" fill-opacity="1" /><path clip-path="url(#clip430)" d="M28.3562 933.121 L28.3562 927.265 L64.0042 927.265 L64.0042 933.121 L28.3562 933.121 M14.479 933.121 L14.479 927.265 L21.895 927.265 L21.895 933.121 L14.479 933.121 Z" fill="#000000" fill-rule="nonzero" fill-opacity="1" /><path clip-path="url(#clip430)" d="M42.4881 885.378 L64.0042 885.378 L64.0042 891.235 L42.679 891.235 Q37.6183 891.235 35.1038 893.208 Q32.5894 895.182 32.5894 899.128 Q32.5894 903.871 35.6131 906.608 Q38.6368 909.345 43.8567 909.345 L64.0042 909.345 L64.0042 915.233 L28.3562 915.233 L28.3562 909.345 L33.8944 909.345 Q30.6797 907.245 29.0883 904.412 Q27.4968 901.547 27.4968 897.823 Q27.4968 891.68 31.3163 888.529 Q35.1038 885.378 42.4881 885.378 Z" fill="#000000" fill-rule="nonzero" fill-opacity="1" /><path clip-path="url(#clip430)" d="M45.7664 850.24 Q39.4007 850.24 35.8996 852.881 Q32.3984 855.491 32.3984 860.234 Q32.3984 864.944 35.8996 867.586 Q39.4007 870.196 45.7664 870.196 Q52.1003 870.196 55.6014 867.586 Q59.1026 864.944 59.1026 860.234 Q59.1026 855.491 55.6014 852.881 Q52.1003 850.24 45.7664 850.24 M59.58 844.383 Q68.683 844.383 73.1071 848.425 Q77.5631 852.468 77.5631 860.807 Q77.5631 863.894 77.0857 866.631 Q76.6401 869.369 75.6852 871.947 L69.9879 871.947 Q71.3884 869.369 72.0568 866.854 Q72.7252 864.34 72.7252 861.73 Q72.7252 855.969 69.7015 853.104 Q66.7096 850.24 60.6303 850.24 L57.7339 850.24 Q60.885 852.054 62.4446 854.887 Q64.0042 857.719 64.0042 861.666 Q64.0042 868.223 59.0071 872.233 Q54.01 876.244 45.7664 876.244 Q37.491 876.244 32.4939 872.233 Q27.4968 868.223 27.4968 861.666 Q27.4968 857.719 29.0564 854.887 Q30.616 852.054 33.7671 850.24 L28.3562 850.24 L28.3562 844.383 L59.58 844.383 Z" fill="#000000" fill-rule="nonzero" fill-opacity="1" /><path clip-path="url(#clip430)" d="M33.8307 790.943 Q33.2578 791.93 33.0032 793.107 Q32.7167 794.253 32.7167 795.654 Q32.7167 800.619 35.9632 803.293 Q39.1779 805.934 45.2253 805.934 L64.0042 805.934 L64.0042 811.823 L28.3562 811.823 L28.3562 805.934 L33.8944 805.934 Q30.6479 804.088 29.0883 801.128 Q27.4968 798.168 27.4968 793.935 Q27.4968 793.33 27.5923 792.598 Q27.656 791.866 27.8151 790.975 L33.8307 790.943 Z" fill="#000000" fill-rule="nonzero" fill-opacity="1" /><path clip-path="url(#clip430)" d="M46.0847 768.599 Q46.0847 775.697 47.7079 778.434 Q49.3312 781.172 53.2461 781.172 Q56.3653 781.172 58.2114 779.135 Q60.0256 777.066 60.0256 773.533 Q60.0256 768.663 56.5881 765.735 Q53.1188 762.775 47.3897 762.775 L46.0847 762.775 L46.0847 768.599 M43.6657 756.918 L64.0042 756.918 L64.0042 762.775 L58.5933 762.775 Q61.8398 764.78 63.3994 767.772 Q64.9272 770.764 64.9272 775.092 Q64.9272 780.567 61.8716 783.813 Q58.7843 787.028 53.6281 787.028 Q47.6125 787.028 44.5569 783.018 Q41.5014 778.976 41.5014 770.987 L41.5014 762.775 L40.9285 762.775 Q36.8862 762.775 34.6901 765.448 Q32.4621 768.09 32.4621 772.896 Q32.4621 775.952 33.1941 778.848 Q33.9262 781.745 35.3903 784.418 L29.9795 784.418 Q28.7381 781.204 28.1334 778.18 Q27.4968 775.156 27.4968 772.292 Q27.4968 764.557 31.5072 760.738 Q35.5176 756.918 43.6657 756.918 Z" fill="#000000" fill-rule="nonzero" fill-opacity="1" /><path clip-path="url(#clip430)" d="M18.2347 739.063 L28.3562 739.063 L28.3562 727 L32.9077 727 L32.9077 739.063 L52.2594 739.063 Q56.6199 739.063 57.8613 737.885 Q59.1026 736.675 59.1026 733.015 L59.1026 727 L64.0042 727 L64.0042 733.015 Q64.0042 739.795 61.4897 742.373 Q58.9434 744.951 52.2594 744.951 L32.9077 744.951 L32.9077 749.248 L28.3562 749.248 L28.3562 744.951 L18.2347 744.951 L18.2347 739.063 Z" fill="#000000" fill-rule="nonzero" fill-opacity="1" /><path clip-path="url(#clip430)" d="M44.7161 688.805 L47.5806 688.805 L47.5806 715.732 Q53.6281 715.35 56.8109 712.104 Q59.9619 708.825 59.9619 703.001 Q59.9619 699.627 59.1344 696.476 Q58.3069 693.293 56.6518 690.174 L62.1899 690.174 Q63.5267 693.325 64.227 696.635 Q64.9272 699.945 64.9272 703.351 Q64.9272 711.881 59.9619 716.878 Q54.9967 721.843 46.5303 721.843 Q37.7774 721.843 32.6531 717.133 Q27.4968 712.39 27.4968 704.369 Q27.4968 697.176 32.1438 693.007 Q36.7589 688.805 44.7161 688.805 M42.9973 694.662 Q38.1912 694.725 35.3266 697.367 Q32.4621 699.977 32.4621 704.306 Q32.4621 709.207 35.2312 712.167 Q38.0002 715.096 43.0292 715.541 L42.9973 694.662 Z" fill="#000000" fill-rule="nonzero" fill-opacity="1" /><path clip-path="url(#clip430)" d="M14.5426 644.405 Q21.8632 648.67 29.0246 650.738 Q36.186 652.807 43.5384 652.807 Q50.8908 652.807 58.1159 650.738 Q65.3091 648.638 72.5979 644.405 L72.5979 649.497 Q65.1182 654.271 57.8931 656.658 Q50.668 659.014 43.5384 659.014 Q36.4406 659.014 29.2474 656.658 Q22.0542 654.303 14.5426 649.497 L14.5426 644.405 Z" fill="#000000" fill-rule="nonzero" fill-opacity="1" /><path clip-path="url(#clip430)" d="M16.4842 632.787 L16.4842 626.358 L35.9632 626.358 L35.9632 602.996 L16.4842 602.996 L16.4842 596.566 L64.0042 596.566 L64.0042 602.996 L41.3741 602.996 L41.3741 626.358 L64.0042 626.358 L64.0042 632.787 L16.4842 632.787 Z" fill="#000000" fill-rule="nonzero" fill-opacity="1" /><path clip-path="url(#clip430)" d="M28.3562 586.572 L28.3562 558.754 L33.7034 558.754 L59.3254 580.779 L59.3254 558.754 L64.0042 558.754 L64.0042 587.368 L58.657 587.368 L33.035 565.342 L33.035 586.572 L28.3562 586.572 Z" fill="#000000" fill-rule="nonzero" fill-opacity="1" /><path clip-path="url(#clip430)" d="M14.5426 550.733 L14.5426 545.641 Q22.0542 540.866 29.2474 538.511 Q36.4406 536.124 43.5384 536.124 Q50.668 536.124 57.8931 538.511 Q65.1182 540.866 72.5979 545.641 L72.5979 550.733 Q65.3091 546.5 58.1159 544.431 Q50.8908 542.33 43.5384 542.33 Q36.186 542.33 29.0246 544.431 Q21.8632 546.5 14.5426 550.733 Z" fill="#000000" fill-rule="nonzero" fill-opacity="1" /><path clip-path="url(#clip430)" d="M562.727 12.096 L570.91 12.096 L570.91 36.8875 L600.643 36.8875 L600.643 12.096 L608.826 12.096 L608.826 72.576 L600.643 72.576 L600.643 43.7741 L570.91 43.7741 L570.91 72.576 L562.727 72.576 L562.727 12.096 Z" fill="#000000" fill-rule="nonzero" fill-opacity="1" /><path clip-path="url(#clip430)" d="M624.787 27.2059 L632.241 27.2059 L632.241 72.576 L624.787 72.576 L624.787 27.2059 M624.787 9.54393 L632.241 9.54393 L632.241 18.9825 L624.787 18.9825 L624.787 9.54393 Z" fill="#000000" fill-rule="nonzero" fill-opacity="1" /><path clip-path="url(#clip430)" d="M655.047 65.7705 L655.047 89.8329 L647.553 89.8329 L647.553 27.2059 L655.047 27.2059 L655.047 34.0924 Q657.397 30.0415 660.961 28.0971 Q664.567 26.1121 669.549 26.1121 Q677.813 26.1121 682.958 32.6746 Q688.143 39.2371 688.143 49.9314 Q688.143 60.6258 682.958 67.1883 Q677.813 73.7508 669.549 73.7508 Q664.567 73.7508 660.961 71.8063 Q657.397 69.8214 655.047 65.7705 M680.406 49.9314 Q680.406 41.7081 677.003 37.0496 Q673.641 32.3505 667.726 32.3505 Q661.812 32.3505 658.409 37.0496 Q655.047 41.7081 655.047 49.9314 Q655.047 58.1548 658.409 62.8538 Q661.812 67.5124 667.726 67.5124 Q673.641 67.5124 677.003 62.8538 Q680.406 58.1548 680.406 49.9314 Z" fill="#000000" fill-rule="nonzero" fill-opacity="1" /><path clip-path="url(#clip430)" d="M707.709 65.7705 L707.709 89.8329 L700.215 89.8329 L700.215 27.2059 L707.709 27.2059 L707.709 34.0924 Q710.058 30.0415 713.623 28.0971 Q717.228 26.1121 722.211 26.1121 Q730.475 26.1121 735.62 32.6746 Q740.805 39.2371 740.805 49.9314 Q740.805 60.6258 735.62 67.1883 Q730.475 73.7508 722.211 73.7508 Q717.228 73.7508 713.623 71.8063 Q710.058 69.8214 707.709 65.7705 M733.068 49.9314 Q733.068 41.7081 729.665 37.0496 Q726.303 32.3505 720.388 32.3505 Q714.474 32.3505 711.071 37.0496 Q707.709 41.7081 707.709 49.9314 Q707.709 58.1548 711.071 62.8538 Q714.474 67.5124 720.388 67.5124 Q726.303 67.5124 729.665 62.8538 Q733.068 58.1548 733.068 49.9314 Z" fill="#000000" fill-rule="nonzero" fill-opacity="1" /><path clip-path="url(#clip430)" d="M770.741 32.4315 Q764.746 32.4315 761.262 37.1306 Q757.778 41.7891 757.778 49.9314 Q757.778 58.0738 761.221 62.7728 Q764.705 67.4314 770.741 67.4314 Q776.696 67.4314 780.18 62.7323 Q783.663 58.0333 783.663 49.9314 Q783.663 41.8701 780.18 37.1711 Q776.696 32.4315 770.741 32.4315 M770.741 26.1121 Q780.463 26.1121 786.013 32.4315 Q791.563 38.7509 791.563 49.9314 Q791.563 61.0714 786.013 67.4314 Q780.463 73.7508 770.741 73.7508 Q760.978 73.7508 755.429 67.4314 Q749.919 61.0714 749.919 49.9314 Q749.919 38.7509 755.429 32.4315 Q760.978 26.1121 770.741 26.1121 Z" fill="#000000" fill-rule="nonzero" fill-opacity="1" /><path clip-path="url(#clip430)" d="M836.568 28.9478 L836.568 35.9153 Q833.408 34.1734 830.208 33.3227 Q827.049 32.4315 823.808 32.4315 Q816.557 32.4315 812.546 37.0496 Q808.536 41.6271 808.536 49.9314 Q808.536 58.2358 812.546 62.8538 Q816.557 67.4314 823.808 67.4314 Q827.049 67.4314 830.208 66.5807 Q833.408 65.6895 836.568 63.9476 L836.568 70.8341 Q833.449 72.2924 830.087 73.0216 Q826.765 73.7508 822.998 73.7508 Q812.749 73.7508 806.713 67.3098 Q800.677 60.8689 800.677 49.9314 Q800.677 38.832 806.753 32.472 Q812.87 26.1121 823.484 26.1121 Q826.927 26.1121 830.208 26.8413 Q833.489 27.5299 836.568 28.9478 Z" fill="#000000" fill-rule="nonzero" fill-opacity="1" /><path clip-path="url(#clip430)" d="M870.15 49.7694 Q861.117 49.7694 857.633 51.8354 Q854.149 53.9013 854.149 58.8839 Q854.149 62.8538 856.742 65.2034 Q859.375 67.5124 863.871 67.5124 Q870.069 67.5124 873.796 63.1374 Q877.563 58.7219 877.563 51.4303 L877.563 49.7694 L870.15 49.7694 M885.017 46.6907 L885.017 72.576 L877.563 72.576 L877.563 65.6895 Q875.011 69.8214 871.203 71.8063 Q867.396 73.7508 861.886 73.7508 Q854.919 73.7508 850.787 69.8619 Q846.695 65.9325 846.695 59.3701 Q846.695 51.7138 851.8 47.825 Q856.944 43.9361 867.112 43.9361 L877.563 43.9361 L877.563 43.2069 Q877.563 38.0623 874.161 35.2672 Q870.798 32.4315 864.681 32.4315 Q860.793 32.4315 857.106 33.3632 Q853.42 34.295 850.017 36.1584 L850.017 29.2718 Q854.109 27.692 857.957 26.9223 Q861.805 26.1121 865.451 26.1121 Q875.295 26.1121 880.156 31.2163 Q885.017 36.3204 885.017 46.6907 Z" fill="#000000" fill-rule="nonzero" fill-opacity="1" /><path clip-path="url(#clip430)" d="M935.694 35.9153 Q938.489 30.8922 942.378 28.5022 Q946.267 26.1121 951.533 26.1121 Q958.622 26.1121 962.47 31.0947 Q966.319 36.0368 966.319 45.1919 L966.319 72.576 L958.824 72.576 L958.824 45.4349 Q958.824 38.913 956.515 35.7533 Q954.206 32.5936 949.467 32.5936 Q943.674 32.5936 940.312 36.4419 Q936.95 40.2903 936.95 46.9338 L936.95 72.576 L929.455 72.576 L929.455 45.4349 Q929.455 38.8725 927.146 35.7533 Q924.837 32.5936 920.017 32.5936 Q914.305 32.5936 910.943 36.4824 Q907.58 40.3308 907.58 46.9338 L907.58 72.576 L900.086 72.576 L900.086 27.2059 L907.58 27.2059 L907.58 34.2544 Q910.133 30.082 913.697 28.0971 Q917.262 26.1121 922.164 26.1121 Q927.106 26.1121 930.549 28.6237 Q934.033 31.1352 935.694 35.9153 Z" fill="#000000" fill-rule="nonzero" fill-opacity="1" /><path clip-path="url(#clip430)" d="M988.396 65.7705 L988.396 89.8329 L980.902 89.8329 L980.902 27.2059 L988.396 27.2059 L988.396 34.0924 Q990.746 30.0415 994.31 28.0971 Q997.916 26.1121 1002.9 26.1121 Q1011.16 26.1121 1016.31 32.6746 Q1021.49 39.2371 1021.49 49.9314 Q1021.49 60.6258 1016.31 67.1883 Q1011.16 73.7508 1002.9 73.7508 Q997.916 73.7508 994.31 71.8063 Q990.746 69.8214 988.396 65.7705 M1013.75 49.9314 Q1013.75 41.7081 1010.35 37.0496 Q1006.99 32.3505 1001.08 32.3505 Q995.161 32.3505 991.758 37.0496 Q988.396 41.7081 988.396 49.9314 Q988.396 58.1548 991.758 62.8538 Q995.161 67.5124 1001.08 67.5124 Q1006.99 67.5124 1010.35 62.8538 Q1013.75 58.1548 1013.75 49.9314 Z" fill="#000000" fill-rule="nonzero" fill-opacity="1" /><path clip-path="url(#clip430)" d="M1054.47 49.7694 Q1045.43 49.7694 1041.95 51.8354 Q1038.47 53.9013 1038.47 58.8839 Q1038.47 62.8538 1041.06 65.2034 Q1043.69 67.5124 1048.19 67.5124 Q1054.39 67.5124 1058.11 63.1374 Q1061.88 58.7219 1061.88 51.4303 L1061.88 49.7694 L1054.47 49.7694 M1069.33 46.6907 L1069.33 72.576 L1061.88 72.576 L1061.88 65.6895 Q1059.33 69.8214 1055.52 71.8063 Q1051.71 73.7508 1046.2 73.7508 Q1039.23 73.7508 1035.1 69.8619 Q1031.01 65.9325 1031.01 59.3701 Q1031.01 51.7138 1036.12 47.825 Q1041.26 43.9361 1051.43 43.9361 L1061.88 43.9361 L1061.88 43.2069 Q1061.88 38.0623 1058.48 35.2672 Q1055.11 32.4315 1049 32.4315 Q1045.11 32.4315 1041.42 33.3632 Q1037.74 34.295 1034.33 36.1584 L1034.33 29.2718 Q1038.42 27.692 1042.27 26.9223 Q1046.12 26.1121 1049.77 26.1121 Q1059.61 26.1121 1064.47 31.2163 Q1069.33 36.3204 1069.33 46.6907 Z" fill="#000000" fill-rule="nonzero" fill-opacity="1" /><path clip-path="url(#clip430)" d="M1084.69 9.54393 L1092.14 9.54393 L1092.14 72.576 L1084.69 72.576 L1084.69 9.54393 Z" fill="#000000" fill-rule="nonzero" fill-opacity="1" /><path clip-path="url(#clip430)" d="M1142.61 18.8205 L1142.61 41.5461 L1152.9 41.5461 Q1158.62 41.5461 1161.73 38.5889 Q1164.85 35.6318 1164.85 30.163 Q1164.85 24.7348 1161.73 21.7777 Q1158.62 18.8205 1152.9 18.8205 L1142.61 18.8205 M1134.43 12.096 L1152.9 12.096 Q1163.07 12.096 1168.26 16.714 Q1173.48 21.2916 1173.48 30.163 Q1173.48 39.1155 1168.26 43.6931 Q1163.07 48.2706 1152.9 48.2706 L1142.61 48.2706 L1142.61 72.576 L1134.43 72.576 L1134.43 12.096 Z" fill="#000000" fill-rule="nonzero" fill-opacity="1" /><path clip-path="url(#clip430)" d="M1184.14 9.54393 L1191.59 9.54393 L1191.59 72.576 L1184.14 72.576 L1184.14 9.54393 Z" fill="#000000" fill-rule="nonzero" fill-opacity="1" /><path clip-path="url(#clip430)" d="M1227.8 49.7694 Q1218.77 49.7694 1215.29 51.8354 Q1211.8 53.9013 1211.8 58.8839 Q1211.8 62.8538 1214.4 65.2034 Q1217.03 67.5124 1221.53 67.5124 Q1227.72 67.5124 1231.45 63.1374 Q1235.22 58.7219 1235.22 51.4303 L1235.22 49.7694 L1227.8 49.7694 M1242.67 46.6907 L1242.67 72.576 L1235.22 72.576 L1235.22 65.6895 Q1232.67 69.8214 1228.86 71.8063 Q1225.05 73.7508 1219.54 73.7508 Q1212.57 73.7508 1208.44 69.8619 Q1204.35 65.9325 1204.35 59.3701 Q1204.35 51.7138 1209.45 47.825 Q1214.6 43.9361 1224.77 43.9361 L1235.22 43.9361 L1235.22 43.2069 Q1235.22 38.0623 1231.81 35.2672 Q1228.45 32.4315 1222.34 32.4315 Q1218.45 32.4315 1214.76 33.3632 Q1211.07 34.295 1207.67 36.1584 L1207.67 29.2718 Q1211.76 27.692 1215.61 26.9223 Q1219.46 26.1121 1223.11 26.1121 Q1232.95 26.1121 1237.81 31.2163 Q1242.67 36.3204 1242.67 46.6907 Z" fill="#000000" fill-rule="nonzero" fill-opacity="1" /><path clip-path="url(#clip430)" d="M1290.67 28.9478 L1290.67 35.9153 Q1287.51 34.1734 1284.31 33.3227 Q1281.15 32.4315 1277.91 32.4315 Q1270.66 32.4315 1266.65 37.0496 Q1262.64 41.6271 1262.64 49.9314 Q1262.64 58.2358 1266.65 62.8538 Q1270.66 67.4314 1277.91 67.4314 Q1281.15 67.4314 1284.31 66.5807 Q1287.51 65.6895 1290.67 63.9476 L1290.67 70.8341 Q1287.56 72.2924 1284.19 73.0216 Q1280.87 73.7508 1277.1 73.7508 Q1266.86 73.7508 1260.82 67.3098 Q1254.78 60.8689 1254.78 49.9314 Q1254.78 38.832 1260.86 32.472 Q1266.98 26.1121 1277.59 26.1121 Q1281.03 26.1121 1284.31 26.8413 Q1287.6 27.5299 1290.67 28.9478 Z" fill="#000000" fill-rule="nonzero" fill-opacity="1" /><path clip-path="url(#clip430)" d="M1342.45 48.0275 L1342.45 51.6733 L1308.17 51.6733 Q1308.66 59.3701 1312.79 63.421 Q1316.96 67.4314 1324.38 67.4314 Q1328.67 67.4314 1332.68 66.3781 Q1336.73 65.3249 1340.7 63.2184 L1340.7 70.267 Q1336.69 71.9684 1332.48 72.8596 Q1328.27 73.7508 1323.93 73.7508 Q1313.08 73.7508 1306.72 67.4314 Q1300.4 61.1119 1300.4 50.3365 Q1300.4 39.1965 1306.39 32.6746 Q1312.43 26.1121 1322.64 26.1121 Q1331.79 26.1121 1337.1 32.0264 Q1342.45 37.9003 1342.45 48.0275 M1334.99 45.84 Q1334.91 39.7232 1331.55 36.0774 Q1328.23 32.4315 1322.72 32.4315 Q1316.48 32.4315 1312.71 35.9558 Q1308.98 39.4801 1308.42 45.8805 L1334.99 45.84 Z" fill="#000000" fill-rule="nonzero" fill-opacity="1" /><path clip-path="url(#clip430)" d="M1426.66 16.7545 L1426.66 25.383 Q1422.53 21.5346 1417.83 19.6307 Q1413.17 17.7268 1407.91 17.7268 Q1397.54 17.7268 1392.03 24.0867 Q1386.52 30.4061 1386.52 42.3968 Q1386.52 54.3469 1392.03 60.7069 Q1397.54 67.0263 1407.91 67.0263 Q1413.17 67.0263 1417.83 65.1223 Q1422.53 63.2184 1426.66 59.3701 L1426.66 67.9175 Q1422.37 70.8341 1417.55 72.2924 Q1412.77 73.7508 1407.42 73.7508 Q1393.69 73.7508 1385.79 65.3654 Q1377.89 56.9395 1377.89 42.3968 Q1377.89 27.8135 1385.79 19.4281 Q1393.69 11.0023 1407.42 11.0023 Q1412.85 11.0023 1417.63 12.4606 Q1422.45 13.8784 1426.66 16.7545 Z" fill="#000000" fill-rule="nonzero" fill-opacity="1" /><path clip-path="url(#clip430)" d="M1477.79 48.0275 L1477.79 51.6733 L1443.52 51.6733 Q1444 59.3701 1448.13 63.421 Q1452.31 67.4314 1459.72 67.4314 Q1464.01 67.4314 1468.02 66.3781 Q1472.07 65.3249 1476.04 63.2184 L1476.04 70.267 Q1472.03 71.9684 1467.82 72.8596 Q1463.61 73.7508 1459.27 73.7508 Q1448.42 73.7508 1442.06 67.4314 Q1435.74 61.1119 1435.74 50.3365 Q1435.74 39.1965 1441.73 32.6746 Q1447.77 26.1121 1457.98 26.1121 Q1467.13 26.1121 1472.44 32.0264 Q1477.79 37.9003 1477.79 48.0275 M1470.33 45.84 Q1470.25 39.7232 1466.89 36.0774 Q1463.57 32.4315 1458.06 32.4315 Q1451.82 32.4315 1448.05 35.9558 Q1444.33 39.4801 1443.76 45.8805 L1470.33 45.84 Z" fill="#000000" fill-rule="nonzero" fill-opacity="1" /><path clip-path="url(#clip430)" d="M1490.02 9.54393 L1497.47 9.54393 L1497.47 72.576 L1490.02 72.576 L1490.02 9.54393 Z" fill="#000000" fill-rule="nonzero" fill-opacity="1" /><path clip-path="url(#clip430)" d="M1513.07 9.54393 L1520.52 9.54393 L1520.52 72.576 L1513.07 72.576 L1513.07 9.54393 Z" fill="#000000" fill-rule="nonzero" fill-opacity="1" /><path clip-path="url(#clip430)" d="M1562.81 12.096 L1597.57 12.096 L1597.57 18.9825 L1571 18.9825 L1571 36.8065 L1594.98 36.8065 L1594.98 43.6931 L1571 43.6931 L1571 72.576 L1562.81 72.576 L1562.81 12.096 Z" fill="#000000" fill-rule="nonzero" fill-opacity="1" /><path clip-path="url(#clip430)" d="M1604.17 27.2059 L1611.63 27.2059 L1611.63 72.576 L1604.17 72.576 L1604.17 27.2059 M1604.17 9.54393 L1611.63 9.54393 L1611.63 18.9825 L1604.17 18.9825 L1604.17 9.54393 Z" fill="#000000" fill-rule="nonzero" fill-opacity="1" /><path clip-path="url(#clip430)" d="M1653.51 34.1734 Q1652.26 33.4443 1650.76 33.1202 Q1649.3 32.7556 1647.52 32.7556 Q1641.2 32.7556 1637.8 36.8875 Q1634.43 40.9789 1634.43 48.6757 L1634.43 72.576 L1626.94 72.576 L1626.94 27.2059 L1634.43 27.2059 L1634.43 34.2544 Q1636.78 30.1225 1640.55 28.1376 Q1644.32 26.1121 1649.71 26.1121 Q1650.48 26.1121 1651.41 26.2337 Q1652.34 26.3147 1653.47 26.5172 L1653.51 34.1734 Z" fill="#000000" fill-rule="nonzero" fill-opacity="1" /><path clip-path="url(#clip430)" d="M1661.33 27.2059 L1668.79 27.2059 L1668.79 72.576 L1661.33 72.576 L1661.33 27.2059 M1661.33 9.54393 L1668.79 9.54393 L1668.79 18.9825 L1661.33 18.9825 L1661.33 9.54393 Z" fill="#000000" fill-rule="nonzero" fill-opacity="1" /><path clip-path="url(#clip430)" d="M1722.1 45.1919 L1722.1 72.576 L1714.64 72.576 L1714.64 45.4349 Q1714.64 38.994 1712.13 35.7938 Q1709.62 32.5936 1704.6 32.5936 Q1698.56 32.5936 1695.08 36.4419 Q1691.59 40.2903 1691.59 46.9338 L1691.59 72.576 L1684.1 72.576 L1684.1 27.2059 L1691.59 27.2059 L1691.59 34.2544 Q1694.27 30.163 1697.87 28.1376 Q1701.52 26.1121 1706.26 26.1121 Q1714.07 26.1121 1718.09 30.9732 Q1722.1 35.7938 1722.1 45.1919 Z" fill="#000000" fill-rule="nonzero" fill-opacity="1" /><path clip-path="url(#clip430)" d="M1766.82 49.3643 Q1766.82 41.2625 1763.46 36.8065 Q1760.13 32.3505 1754.1 32.3505 Q1748.1 32.3505 1744.74 36.8065 Q1741.42 41.2625 1741.42 49.3643 Q1741.42 57.4256 1744.74 61.8816 Q1748.1 66.3376 1754.1 66.3376 Q1760.13 66.3376 1763.46 61.8816 Q1766.82 57.4256 1766.82 49.3643 M1774.27 66.9452 Q1774.27 78.5308 1769.13 84.1616 Q1763.98 89.8329 1753.37 89.8329 Q1749.44 89.8329 1745.96 89.2252 Q1742.47 88.6581 1739.19 87.4428 L1739.19 80.1917 Q1742.47 81.9741 1745.67 82.8248 Q1748.87 83.6755 1752.19 83.6755 Q1759.53 83.6755 1763.17 79.8271 Q1766.82 76.0193 1766.82 68.282 L1766.82 64.5957 Q1764.51 68.6061 1760.9 70.5911 Q1757.3 72.576 1752.28 72.576 Q1743.93 72.576 1738.83 66.2161 Q1733.72 59.8562 1733.72 49.3643 Q1733.72 38.832 1738.83 32.472 Q1743.93 26.1121 1752.28 26.1121 Q1757.3 26.1121 1760.9 28.0971 Q1764.51 30.082 1766.82 34.0924 L1766.82 27.2059 L1774.27 27.2059 L1774.27 66.9452 Z" fill="#000000" fill-rule="nonzero" fill-opacity="1" /><path clip-path="url(#clip430)" d="M1845 44.2197 Q1847.63 45.1109 1850.1 48.0275 Q1852.62 50.9442 1855.13 56.0483 L1863.43 72.576 L1854.64 72.576 L1846.9 57.061 Q1843.91 50.9847 1841.07 48.9997 Q1838.28 47.0148 1833.41 47.0148 L1824.5 47.0148 L1824.5 72.576 L1816.32 72.576 L1816.32 12.096 L1834.79 12.096 Q1845.16 12.096 1850.27 16.4305 Q1855.37 20.7649 1855.37 29.5149 Q1855.37 35.2267 1852.7 38.994 Q1850.06 42.7613 1845 44.2197 M1824.5 18.8205 L1824.5 40.2903 L1834.79 40.2903 Q1840.71 40.2903 1843.7 37.5762 Q1846.74 34.8216 1846.74 29.5149 Q1846.74 24.2082 1843.7 21.5346 Q1840.71 18.8205 1834.79 18.8205 L1824.5 18.8205 Z" fill="#000000" fill-rule="nonzero" fill-opacity="1" /><path clip-path="url(#clip430)" d="M1892.44 49.7694 Q1883.4 49.7694 1879.92 51.8354 Q1876.44 53.9013 1876.44 58.8839 Q1876.44 62.8538 1879.03 65.2034 Q1881.66 67.5124 1886.16 67.5124 Q1892.36 67.5124 1896.08 63.1374 Q1899.85 58.7219 1899.85 51.4303 L1899.85 49.7694 L1892.44 49.7694 M1907.3 46.6907 L1907.3 72.576 L1899.85 72.576 L1899.85 65.6895 Q1897.3 69.8214 1893.49 71.8063 Q1889.68 73.7508 1884.17 73.7508 Q1877.2 73.7508 1873.07 69.8619 Q1868.98 65.9325 1868.98 59.3701 Q1868.98 51.7138 1874.09 47.825 Q1879.23 43.9361 1889.4 43.9361 L1899.85 43.9361 L1899.85 43.2069 Q1899.85 38.0623 1896.45 35.2672 Q1893.08 32.4315 1886.97 32.4315 Q1883.08 32.4315 1879.39 33.3632 Q1875.71 34.295 1872.3 36.1584 L1872.3 29.2718 Q1876.39 27.692 1880.24 26.9223 Q1884.09 26.1121 1887.74 26.1121 Q1897.58 26.1121 1902.44 31.2163 Q1907.3 36.3204 1907.3 46.6907 Z" fill="#000000" fill-rule="nonzero" fill-opacity="1" /><path clip-path="url(#clip430)" d="M1930.03 14.324 L1930.03 27.2059 L1945.38 27.2059 L1945.38 32.9987 L1930.03 32.9987 L1930.03 57.6282 Q1930.03 63.1779 1931.53 64.7578 Q1933.07 66.3376 1937.73 66.3376 L1945.38 66.3376 L1945.38 72.576 L1937.73 72.576 Q1929.1 72.576 1925.82 69.3758 Q1922.53 66.1351 1922.53 57.6282 L1922.53 32.9987 L1917.07 32.9987 L1917.07 27.2059 L1922.53 27.2059 L1922.53 14.324 L1930.03 14.324 Z" fill="#000000" fill-rule="nonzero" fill-opacity="1" /><path clip-path="url(#clip430)" d="M1993.99 48.0275 L1993.99 51.6733 L1959.72 51.6733 Q1960.21 59.3701 1964.34 63.421 Q1968.51 67.4314 1975.93 67.4314 Q1980.22 67.4314 1984.23 66.3781 Q1988.28 65.3249 1992.25 63.2184 L1992.25 70.267 Q1988.24 71.9684 1984.03 72.8596 Q1979.81 73.7508 1975.48 73.7508 Q1964.62 73.7508 1958.26 67.4314 Q1951.94 61.1119 1951.94 50.3365 Q1951.94 39.1965 1957.94 32.6746 Q1963.98 26.1121 1974.18 26.1121 Q1983.34 26.1121 1988.65 32.0264 Q1993.99 37.9003 1993.99 48.0275 M1986.54 45.84 Q1986.46 39.7232 1983.1 36.0774 Q1979.77 32.4315 1974.26 32.4315 Q1968.03 32.4315 1964.26 35.9558 Q1960.53 39.4801 1959.96 45.8805 L1986.54 45.84 Z" fill="#000000" fill-rule="nonzero" fill-opacity="1" /><polyline clip-path="url(#clip431)" style="stroke:#009af9; stroke-linecap:round; stroke-linejoin:round; stroke-width:8; stroke-opacity:1; fill:none" points="264.778,1381.66 266.806,1381.55 268.833,1381.44 270.86,1381.33 272.887,1381.22 274.914,1381.1 276.941,1380.98 278.969,1380.86 280.996,1380.74 283.023,1380.62 285.05,1380.49 287.077,1380.36 289.104,1380.23 291.132,1380.09 293.159,1379.95 295.186,1379.81 297.213,1379.67 299.24,1379.52 301.267,1379.37 303.295,1379.22 305.322,1379.07 307.349,1378.91 309.376,1378.75 311.403,1378.59 313.43,1378.42 315.458,1378.25 317.485,1378.07 319.512,1377.9 321.539,1377.72 323.566,1377.53 325.593,1377.35 327.62,1377.16 329.648,1376.96 331.675,1376.76 333.702,1376.56 335.729,1376.36 337.756,1376.15 339.783,1375.93 341.811,1375.72 343.838,1375.49 345.865,1375.27 347.892,1375.04 349.919,1374.8 351.946,1374.57 353.974,1374.32 356.001,1374.08 358.028,1373.83 360.055,1373.57 362.082,1373.31 364.109,1373.04 366.137,1372.77 368.164,1372.5 370.191,1372.22 372.218,1371.94 374.245,1371.65 376.272,1371.35 378.3,1371.05 380.327,1370.74 382.354,1370.43 384.381,1370.12 386.408,1369.8 388.435,1369.47 390.463,1369.14 392.49,1368.8 394.517,1368.45 396.544,1368.1 398.571,1367.74 400.598,1367.38 402.626,1367.01 404.653,1366.64 406.68,1366.26 408.707,1365.87 410.734,1365.47 412.761,1365.07 414.788,1364.66 416.816,1364.25 418.843,1363.83 420.87,1363.4 422.897,1362.96 424.924,1362.52 426.951,1362.07 428.979,1361.61 431.006,1361.14 433.033,1360.67 435.06,1360.19 437.087,1359.7 439.114,1359.21 441.142,1358.7 443.169,1358.19 445.196,1357.67 447.223,1357.14 449.25,1356.6 451.277,1356.06 453.305,1355.5 455.332,1354.94 457.359,1354.37 459.386,1353.79 461.413,1353.2 463.44,1352.6 465.468,1351.99 467.495,1351.37 469.522,1350.74 471.549,1350.11 473.576,1349.46 475.603,1348.8 477.631,1348.14 479.658,1347.46 481.685,1346.77 483.712,1346.07 485.739,1345.37 487.766,1344.65 489.793,1343.92 491.821,1343.18 493.848,1342.43 495.875,1341.67 497.902,1340.89 499.929,1340.11 501.956,1339.31 503.984,1338.51 506.011,1337.69 508.038,1336.86 510.065,1336.02 512.092,1335.16 514.119,1334.29 516.147,1333.41 518.174,1332.52 520.201,1331.62 522.228,1330.7 524.255,1329.77 526.282,1328.83 528.31,1327.87 530.337,1326.9 532.364,1325.92 534.391,1324.93 536.418,1323.92 538.445,1322.89 540.473,1321.86 542.5,1320.81 544.527,1319.74 546.554,1318.66 548.581,1317.57 550.608,1316.46 552.636,1315.33 554.663,1314.2 556.69,1313.04 558.717,1311.88 560.744,1310.69 562.771,1309.49 564.799,1308.28 566.826,1307.05 568.853,1305.8 570.88,1304.54 572.907,1303.26 574.934,1301.97 576.961,1300.66 578.989,1299.33 581.016,1297.99 583.043,1296.63 585.07,1295.25 587.097,1293.86 589.124,1292.45 591.152,1291.02 593.179,1289.57 595.206,1288.11 597.233,1286.63 599.26,1285.13 601.287,1283.61 603.315,1282.08 605.342,1280.53 607.369,1278.96 609.396,1277.37 611.423,1275.76 613.45,1274.13 615.478,1272.48 617.505,1270.82 619.532,1269.13 621.559,1267.43 623.586,1265.71 625.613,1263.97 627.641,1262.2 629.668,1260.42 631.695,1258.62 633.722,1256.8 635.749,1254.96 637.776,1253.1 639.804,1251.21 641.831,1249.31 643.858,1247.39 645.885,1245.44 647.912,1243.48 649.939,1241.49 651.967,1239.48 653.994,1237.46 656.021,1235.41 658.048,1233.34 660.075,1231.24 662.102,1229.13 664.129,1226.99 666.157,1224.84 668.184,1222.66 670.211,1220.46 672.238,1218.23 674.265,1215.99 676.292,1213.72 678.32,1211.43 680.347,1209.11 682.374,1206.78 684.401,1204.42 686.428,1202.04 688.455,1199.64 690.483,1197.21 692.51,1194.76 694.537,1192.29 696.564,1189.79 698.591,1187.27 700.618,1184.73 702.646,1182.16 704.673,1179.57 706.7,1176.96 708.727,1174.32 710.754,1171.66 712.781,1168.98 714.809,1166.27 716.836,1163.54 718.863,1160.78 720.89,1158 722.917,1155.2 724.944,1152.37 726.972,1149.52 728.999,1146.64 731.026,1143.74 733.053,1140.82 735.08,1137.87 737.107,1134.9 739.134,1131.9 741.162,1128.88 743.189,1125.84 745.216,1122.77 747.243,1119.67 749.27,1116.56 751.297,1113.41 753.325,1110.25 755.352,1107.06 757.379,1103.84 759.406,1100.6 761.433,1097.34 763.46,1094.05 765.488,1090.74 767.515,1087.4 769.542,1084.04 771.569,1080.66 773.596,1077.25 775.623,1073.81 777.651,1070.36 779.678,1066.87 781.705,1063.37 783.732,1059.84 785.759,1056.29 787.786,1052.71 789.814,1049.11 791.841,1045.48 793.868,1041.83 795.895,1038.16 797.922,1034.47 799.949,1030.75 801.977,1027.01 804.004,1023.24 806.031,1019.45 808.058,1015.64 810.085,1011.81 812.112,1007.95 814.14,1004.07 816.167,1000.17 818.194,996.243 820.221,992.296 822.248,988.326 824.275,984.335 826.302,980.321 828.33,976.286 830.357,972.228 832.384,968.149 834.411,964.049 836.438,959.928 838.465,955.785 840.493,951.622 842.52,947.438 844.547,943.233 846.574,939.008 848.601,934.763 850.628,930.497 852.656,926.212 854.683,921.907 856.71,917.583 858.737,913.239 860.764,908.877 862.791,904.496 864.819,900.096 866.846,895.677 868.873,891.241 870.9,886.787 872.927,882.315 874.954,877.825 876.982,873.319 879.009,868.795 881.036,864.255 883.063,859.698 885.09,855.126 887.117,850.537 889.145,845.933 891.172,841.313 893.199,836.679 895.226,832.029 897.253,827.365 899.28,822.687 901.308,817.995 903.335,813.29 905.362,808.571 907.389,803.839 909.416,799.095 911.443,794.338 913.47,789.57 915.498,784.789 917.525,779.997 919.552,775.195 921.579,770.381 923.606,765.558 925.633,760.724 927.661,755.881 929.688,751.028 931.715,746.167 933.742,741.297 935.769,736.419 937.796,731.533 939.824,726.64 941.851,721.739 943.878,716.832 945.905,711.919 947.932,707 949.959,702.076 951.987,697.146 954.014,692.212 956.041,687.273 958.068,682.331 960.095,677.385 962.122,672.436 964.15,667.485 966.177,662.532 968.204,657.576 970.231,652.62 972.258,647.662 974.285,642.705 976.313,637.747 978.34,632.789 980.367,627.833 982.394,622.878 984.421,617.924 986.448,612.973 988.475,608.024 990.503,603.079 992.53,598.137 994.557,593.2 996.584,588.267 998.611,583.339 1000.64,578.416 1002.67,573.499 1004.69,568.589 1006.72,563.686 1008.75,558.79 1010.77,553.902 1012.8,549.022 1014.83,544.151 1016.86,539.29 1018.88,534.438 1020.91,529.596 1022.94,524.766 1024.96,519.946 1026.99,515.139 1029.02,510.343 1031.05,505.561 1033.07,500.791 1035.1,496.036 1037.13,491.294 1039.15,486.568 1041.18,481.856 1043.21,477.161 1045.24,472.481 1047.26,467.819 1049.29,463.173 1051.32,458.546 1053.34,453.936 1055.37,449.345 1057.4,444.774 1059.43,440.222 1061.45,435.691 1063.48,431.18 1065.51,426.691 1067.53,422.223 1069.56,417.778 1071.59,413.355 1073.62,408.956 1075.64,404.58 1077.67,400.229 1079.7,395.902 1081.72,391.6 1083.75,387.325 1085.78,383.075 1087.81,378.852 1089.83,374.657 1091.86,370.489 1093.89,366.349 1095.92,362.238 1097.94,358.156 1099.97,354.104 1102,350.081 1104.02,346.09 1106.05,342.129 1108.08,338.2 1110.11,334.303 1112.13,330.438 1114.16,326.606 1116.19,322.807 1118.21,319.043 1120.24,315.312 1122.27,311.617 1124.3,307.956 1126.32,304.331 1128.35,300.743 1130.38,297.19 1132.4,293.675 1134.43,290.197 1136.46,286.757 1138.49,283.355 1140.51,279.992 1142.54,276.668 1144.57,273.383 1146.59,270.138 1148.62,266.934 1150.65,263.77 1152.68,260.647 1154.7,257.566 1156.73,254.526 1158.76,251.529 1160.78,248.575 1162.81,245.663 1164.84,242.795 1166.87,239.971 1168.89,237.191 1170.92,234.455 1172.95,231.764 1174.97,229.118 1177,226.518 1179.03,223.963 1181.06,221.455 1183.08,218.993 1185.11,216.578 1187.14,214.21 1189.16,211.889 1191.19,209.616 1193.22,207.391 1195.25,205.214 1197.27,203.086 1199.3,201.007 1201.33,198.977 1203.35,196.996 1205.38,195.065 1207.41,193.184 1209.44,191.353 1211.46,189.573 1213.49,187.843 1215.52,186.164 1217.54,184.535 1219.57,182.959 1221.6,181.433 1223.63,179.96 1225.65,178.538 1227.68,177.168 1229.71,175.851 1231.74,174.586 1233.76,173.373 1235.79,172.214 1237.82,171.107 1239.84,170.053 1241.87,169.053 1243.9,168.106 1245.93,167.212 1247.95,166.372 1249.98,165.585 1252.01,164.853 1254.03,164.174 1256.06,163.549 1258.09,162.978 1260.12,162.461 1262.14,161.999 1264.17,161.591 1266.2,161.237 1268.22,160.937 1270.25,160.692 1272.28,160.502 1274.31,160.365 1276.33,160.284 1278.36,160.256 1280.39,160.284 1282.41,160.365 1284.44,160.502 1286.47,160.692 1288.5,160.937 1290.52,161.237 1292.55,161.591 1294.58,161.999 1296.6,162.461 1298.63,162.978 1300.66,163.549 1302.69,164.174 1304.71,164.853 1306.74,165.585 1308.77,166.372 1310.79,167.212 1312.82,168.106 1314.85,169.053 1316.88,170.053 1318.9,171.107 1320.93,172.214 1322.96,173.373 1324.98,174.586 1327.01,175.851 1329.04,177.168 1331.07,178.538 1333.09,179.96 1335.12,181.433 1337.15,182.959 1339.17,184.535 1341.2,186.164 1343.23,187.843 1345.26,189.573 1347.28,191.353 1349.31,193.184 1351.34,195.065 1353.36,196.996 1355.39,198.977 1357.42,201.007 1359.45,203.086 1361.47,205.214 1363.5,207.391 1365.53,209.616 1367.55,211.889 1369.58,214.21 1371.61,216.578 1373.64,218.993 1375.66,221.455 1377.69,223.963 1379.72,226.518 1381.75,229.118 1383.77,231.764 1385.8,234.455 1387.83,237.191 1389.85,239.971 1391.88,242.795 1393.91,245.663 1395.94,248.575 1397.96,251.529 1399.99,254.526 1402.02,257.566 1404.04,260.647 1406.07,263.77 1408.1,266.934 1410.13,270.138 1412.15,273.383 1414.18,276.668 1416.21,279.992 1418.23,283.355 1420.26,286.757 1422.29,290.197 1424.32,293.675 1426.34,297.19 1428.37,300.743 1430.4,304.331 1432.42,307.956 1434.45,311.617 1436.48,315.312 1438.51,319.043 1440.53,322.807 1442.56,326.606 1444.59,330.438 1446.61,334.303 1448.64,338.2 1450.67,342.129 1452.7,346.09 1454.72,350.081 1456.75,354.104 1458.78,358.156 1460.8,362.238 1462.83,366.349 1464.86,370.489 1466.89,374.657 1468.91,378.852 1470.94,383.075 1472.97,387.325 1474.99,391.6 1477.02,395.902 1479.05,400.229 1481.08,404.58 1483.1,408.956 1485.13,413.355 1487.16,417.778 1489.18,422.223 1491.21,426.691 1493.24,431.18 1495.27,435.691 1497.29,440.222 1499.32,444.774 1501.35,449.345 1503.37,453.936 1505.4,458.546 1507.43,463.173 1509.46,467.819 1511.48,472.481 1513.51,477.161 1515.54,481.856 1517.56,486.568 1519.59,491.294 1521.62,496.036 1523.65,500.791 1525.67,505.561 1527.7,510.343 1529.73,515.139 1531.76,519.946 1533.78,524.766 1535.81,529.596 1537.84,534.438 1539.86,539.29 1541.89,544.151 1543.92,549.022 1545.95,553.902 1547.97,558.79 1550,563.686 1552.03,568.589 1554.05,573.499 1556.08,578.416 1558.11,583.339 1560.14,588.267 1562.16,593.2 1564.19,598.137 1566.22,603.079 1568.24,608.024 1570.27,612.973 1572.3,617.924 1574.33,622.878 1576.35,627.833 1578.38,632.789 1580.41,637.747 1582.43,642.705 1584.46,647.662 1586.49,652.62 1588.52,657.576 1590.54,662.532 1592.57,667.485 1594.6,672.436 1596.62,677.385 1598.65,682.331 1600.68,687.273 1602.71,692.212 1604.73,697.146 1606.76,702.076 1608.79,707 1610.81,711.919 1612.84,716.832 1614.87,721.739 1616.9,726.64 1618.92,731.533 1620.95,736.419 1622.98,741.297 1625,746.167 1627.03,751.028 1629.06,755.881 1631.09,760.724 1633.11,765.558 1635.14,770.381 1637.17,775.195 1639.19,779.997 1641.22,784.789 1643.25,789.57 1645.28,794.338 1647.3,799.095 1649.33,803.839 1651.36,808.571 1653.38,813.29 1655.41,817.995 1657.44,822.687 1659.47,827.365 1661.49,832.029 1663.52,836.679 1665.55,841.313 1667.57,845.933 1669.6,850.537 1671.63,855.126 1673.66,859.698 1675.68,864.255 1677.71,868.795 1679.74,873.319 1681.77,877.825 1683.79,882.315 1685.82,886.787 1687.85,891.241 1689.87,895.677 1691.9,900.096 1693.93,904.496 1695.96,908.877 1697.98,913.239 1700.01,917.583 1702.04,921.907 1704.06,926.212 1706.09,930.497 1708.12,934.763 1710.15,939.008 1712.17,943.233 1714.2,947.438 1716.23,951.622 1718.25,955.785 1720.28,959.928 1722.31,964.049 1724.34,968.149 1726.36,972.228 1728.39,976.286 1730.42,980.321 1732.44,984.335 1734.47,988.326 1736.5,992.296 1738.53,996.243 1740.55,1000.17 1742.58,1004.07 1744.61,1007.95 1746.63,1011.81 1748.66,1015.64 1750.69,1019.45 1752.72,1023.24 1754.74,1027.01 1756.77,1030.75 1758.8,1034.47 1760.82,1038.16 1762.85,1041.83 1764.88,1045.48 1766.91,1049.11 1768.93,1052.71 1770.96,1056.29 1772.99,1059.84 1775.01,1063.37 1777.04,1066.87 1779.07,1070.36 1781.1,1073.81 1783.12,1077.25 1785.15,1080.66 1787.18,1084.04 1789.2,1087.4 1791.23,1090.74 1793.26,1094.05 1795.29,1097.34 1797.31,1100.6 1799.34,1103.84 1801.37,1107.06 1803.39,1110.25 1805.42,1113.41 1807.45,1116.56 1809.48,1119.67 1811.5,1122.77 1813.53,1125.84 1815.56,1128.88 1817.58,1131.9 1819.61,1134.9 1821.64,1137.87 1823.67,1140.82 1825.69,1143.74 1827.72,1146.64 1829.75,1149.52 1831.78,1152.37 1833.8,1155.2 1835.83,1158 1837.86,1160.78 1839.88,1163.54 1841.91,1166.27 1843.94,1168.98 1845.97,1171.66 1847.99,1174.32 1850.02,1176.96 1852.05,1179.57 1854.07,1182.16 1856.1,1184.73 1858.13,1187.27 1860.16,1189.79 1862.18,1192.29 1864.21,1194.76 1866.24,1197.21 1868.26,1199.64 1870.29,1202.04 1872.32,1204.42 1874.35,1206.78 1876.37,1209.11 1878.4,1211.43 1880.43,1213.72 1882.45,1215.99 1884.48,1218.23 1886.51,1220.46 1888.54,1222.66 1890.56,1224.84 1892.59,1226.99 1894.62,1229.13 1896.64,1231.24 1898.67,1233.34 1900.7,1235.41 1902.73,1237.46 1904.75,1239.48 1906.78,1241.49 1908.81,1243.48 1910.83,1245.44 1912.86,1247.39 1914.89,1249.31 1916.92,1251.21 1918.94,1253.1 1920.97,1254.96 1923,1256.8 1925.02,1258.62 1927.05,1260.42 1929.08,1262.2 1931.11,1263.97 1933.13,1265.71 1935.16,1267.43 1937.19,1269.13 1939.21,1270.82 1941.24,1272.48 1943.27,1274.13 1945.3,1275.76 1947.32,1277.37 1949.35,1278.96 1951.38,1280.53 1953.4,1282.08 1955.43,1283.61 1957.46,1285.13 1959.49,1286.63 1961.51,1288.11 1963.54,1289.57 1965.57,1291.02 1967.6,1292.45 1969.62,1293.86 1971.65,1295.25 1973.68,1296.63 1975.7,1297.99 1977.73,1299.33 1979.76,1300.66 1981.79,1301.97 1983.81,1303.26 1985.84,1304.54 1987.87,1305.8 1989.89,1307.05 1991.92,1308.28 1993.95,1309.49 1995.98,1310.69 1998,1311.88 2000.03,1313.04 2002.06,1314.2 2004.08,1315.33 2006.11,1316.46 2008.14,1317.57 2010.17,1318.66 2012.19,1319.74 2014.22,1320.81 2016.25,1321.86 2018.27,1322.89 2020.3,1323.92 2022.33,1324.93 2024.36,1325.92 2026.38,1326.9 2028.41,1327.87 2030.44,1328.83 2032.46,1329.77 2034.49,1330.7 2036.52,1331.62 2038.55,1332.52 2040.57,1333.41 2042.6,1334.29 2044.63,1335.16 2046.65,1336.02 2048.68,1336.86 2050.71,1337.69 2052.74,1338.51 2054.76,1339.31 2056.79,1340.11 2058.82,1340.89 2060.84,1341.67 2062.87,1342.43 2064.9,1343.18 2066.93,1343.92 2068.95,1344.65 2070.98,1345.37 2073.01,1346.07 2075.03,1346.77 2077.06,1347.46 2079.09,1348.14 2081.12,1348.8 2083.14,1349.46 2085.17,1350.11 2087.2,1350.74 2089.22,1351.37 2091.25,1351.99 2093.28,1352.6 2095.31,1353.2 2097.33,1353.79 2099.36,1354.37 2101.39,1354.94 2103.41,1355.5 2105.44,1356.06 2107.47,1356.6 2109.5,1357.14 2111.52,1357.67 2113.55,1358.19 2115.58,1358.7 2117.61,1359.21 2119.63,1359.7 2121.66,1360.19 2123.69,1360.67 2125.71,1361.14 2127.74,1361.61 2129.77,1362.07 2131.8,1362.52 2133.82,1362.96 2135.85,1363.4 2137.88,1363.83 2139.9,1364.25 2141.93,1364.66 2143.96,1365.07 2145.99,1365.47 2148.01,1365.87 2150.04,1366.26 2152.07,1366.64 2154.09,1367.01 2156.12,1367.38 2158.15,1367.74 2160.18,1368.1 2162.2,1368.45 2164.23,1368.8 2166.26,1369.14 2168.28,1369.47 2170.31,1369.8 2172.34,1370.12 2174.37,1370.43 2176.39,1370.74 2178.42,1371.05 2180.45,1371.35 2182.47,1371.65 2184.5,1371.94 2186.53,1372.22 2188.56,1372.5 2190.58,1372.77 2192.61,1373.04 2194.64,1373.31 2196.66,1373.57 2198.69,1373.83 2200.72,1374.08 2202.75,1374.32 2204.77,1374.57 2206.8,1374.8 2208.83,1375.04 2210.85,1375.27 2212.88,1375.49 2214.91,1375.72 2216.94,1375.93 2218.96,1376.15 2220.99,1376.36 2223.02,1376.56 2225.04,1376.76 2227.07,1376.96 2229.1,1377.16 2231.13,1377.35 2233.15,1377.53 2235.18,1377.72 2237.21,1377.9 2239.23,1378.07 2241.26,1378.25 2243.29,1378.42 2245.32,1378.59 2247.34,1378.75 2249.37,1378.91 2251.4,1379.07 2253.42,1379.22 2255.45,1379.37 2257.48,1379.52 2259.51,1379.67 2261.53,1379.81 2263.56,1379.95 2265.59,1380.09 2267.62,1380.23 2269.64,1380.36 2271.67,1380.49 2273.7,1380.62 2275.72,1380.74 2277.75,1380.86 2279.78,1380.98 2281.81,1381.1 2283.83,1381.22 2285.86,1381.33 2287.89,1381.44 2289.91,1381.55 2291.94,1381.66 "/>
<line clip-path="url(#clip431)" x1="491.297" y1="1426.4" x2="491.297" y2="1346.4" style="stroke:#ff0000; stroke-width:3.2; stroke-opacity:0.6"/>
<line clip-path="url(#clip431)" x1="629.808" y1="1426.4" x2="629.808" y2="1346.4" style="stroke:#ff0000; stroke-width:3.2; stroke-opacity:0.6"/>
<line clip-path="url(#clip431)" x1="720.607" y1="1426.4" x2="720.607" y2="1346.4" style="stroke:#ff0000; stroke-width:3.2; stroke-opacity:0.6"/>
<line clip-path="url(#clip431)" x1="869.309" y1="1426.4" x2="869.309" y2="1346.4" style="stroke:#ff0000; stroke-width:3.2; stroke-opacity:0.6"/>
<line clip-path="url(#clip431)" x1="894.235" y1="1426.4" x2="894.235" y2="1346.4" style="stroke:#ff0000; stroke-width:3.2; stroke-opacity:0.6"/>
<line clip-path="url(#clip431)" x1="917.906" y1="1426.4" x2="917.906" y2="1346.4" style="stroke:#ff0000; stroke-width:3.2; stroke-opacity:0.6"/>
<line clip-path="url(#clip431)" x1="919.897" y1="1426.4" x2="919.897" y2="1346.4" style="stroke:#ff0000; stroke-width:3.2; stroke-opacity:0.6"/>
<line clip-path="url(#clip431)" x1="938.286" y1="1426.4" x2="938.286" y2="1346.4" style="stroke:#ff0000; stroke-width:3.2; stroke-opacity:0.6"/>
<line clip-path="url(#clip431)" x1="951.546" y1="1426.4" x2="951.546" y2="1346.4" style="stroke:#ff0000; stroke-width:3.2; stroke-opacity:0.6"/>
<line clip-path="url(#clip431)" x1="997.207" y1="1426.4" x2="997.207" y2="1346.4" style="stroke:#ff0000; stroke-width:3.2; stroke-opacity:0.6"/>
<line clip-path="url(#clip431)" x1="1062.74" y1="1426.4" x2="1062.74" y2="1346.4" style="stroke:#ff0000; stroke-width:3.2; stroke-opacity:0.6"/>
<line clip-path="url(#clip431)" x1="1074.28" y1="1426.4" x2="1074.28" y2="1346.4" style="stroke:#ff0000; stroke-width:3.2; stroke-opacity:0.6"/>
<line clip-path="url(#clip431)" x1="1078.42" y1="1426.4" x2="1078.42" y2="1346.4" style="stroke:#ff0000; stroke-width:3.2; stroke-opacity:0.6"/>
<line clip-path="url(#clip431)" x1="1082.38" y1="1426.4" x2="1082.38" y2="1346.4" style="stroke:#ff0000; stroke-width:3.2; stroke-opacity:0.6"/>
<line clip-path="url(#clip431)" x1="1082.83" y1="1426.4" x2="1082.83" y2="1346.4" style="stroke:#ff0000; stroke-width:3.2; stroke-opacity:0.6"/>
<line clip-path="url(#clip431)" x1="1085.61" y1="1426.4" x2="1085.61" y2="1346.4" style="stroke:#ff0000; stroke-width:3.2; stroke-opacity:0.6"/>
<line clip-path="url(#clip431)" x1="1095.86" y1="1426.4" x2="1095.86" y2="1346.4" style="stroke:#ff0000; stroke-width:3.2; stroke-opacity:0.6"/>
<line clip-path="url(#clip431)" x1="1113.89" y1="1426.4" x2="1113.89" y2="1346.4" style="stroke:#ff0000; stroke-width:3.2; stroke-opacity:0.6"/>
<line clip-path="url(#clip431)" x1="1117.5" y1="1426.4" x2="1117.5" y2="1346.4" style="stroke:#ff0000; stroke-width:3.2; stroke-opacity:0.6"/>
<line clip-path="url(#clip431)" x1="1120.25" y1="1426.4" x2="1120.25" y2="1346.4" style="stroke:#ff0000; stroke-width:3.2; stroke-opacity:0.6"/>
<line clip-path="url(#clip431)" x1="1130.7" y1="1426.4" x2="1130.7" y2="1346.4" style="stroke:#ff0000; stroke-width:3.2; stroke-opacity:0.6"/>
<line clip-path="url(#clip431)" x1="1158.71" y1="1426.4" x2="1158.71" y2="1346.4" style="stroke:#ff0000; stroke-width:3.2; stroke-opacity:0.6"/>
<line clip-path="url(#clip431)" x1="1163.74" y1="1426.4" x2="1163.74" y2="1346.4" style="stroke:#ff0000; stroke-width:3.2; stroke-opacity:0.6"/>
<line clip-path="url(#clip431)" x1="1182.78" y1="1426.4" x2="1182.78" y2="1346.4" style="stroke:#ff0000; stroke-width:3.2; stroke-opacity:0.6"/>
<line clip-path="url(#clip431)" x1="1224.07" y1="1426.4" x2="1224.07" y2="1346.4" style="stroke:#ff0000; stroke-width:3.2; stroke-opacity:0.6"/>
<line clip-path="url(#clip431)" x1="1230.07" y1="1426.4" x2="1230.07" y2="1346.4" style="stroke:#ff0000; stroke-width:3.2; stroke-opacity:0.6"/>
<line clip-path="url(#clip431)" x1="1258.24" y1="1426.4" x2="1258.24" y2="1346.4" style="stroke:#ff0000; stroke-width:3.2; stroke-opacity:0.6"/>
<line clip-path="url(#clip431)" x1="1306.98" y1="1426.4" x2="1306.98" y2="1346.4" style="stroke:#ff0000; stroke-width:3.2; stroke-opacity:0.6"/>
<line clip-path="url(#clip431)" x1="1317.82" y1="1426.4" x2="1317.82" y2="1346.4" style="stroke:#ff0000; stroke-width:3.2; stroke-opacity:0.6"/>
<line clip-path="url(#clip431)" x1="1319.39" y1="1426.4" x2="1319.39" y2="1346.4" style="stroke:#ff0000; stroke-width:3.2; stroke-opacity:0.6"/>
<line clip-path="url(#clip431)" x1="1323.23" y1="1426.4" x2="1323.23" y2="1346.4" style="stroke:#ff0000; stroke-width:3.2; stroke-opacity:0.6"/>
<line clip-path="url(#clip431)" x1="1337.23" y1="1426.4" x2="1337.23" y2="1346.4" style="stroke:#ff0000; stroke-width:3.2; stroke-opacity:0.6"/>
<line clip-path="url(#clip431)" x1="1346.13" y1="1426.4" x2="1346.13" y2="1346.4" style="stroke:#ff0000; stroke-width:3.2; stroke-opacity:0.6"/>
<line clip-path="url(#clip431)" x1="1347.99" y1="1426.4" x2="1347.99" y2="1346.4" style="stroke:#ff0000; stroke-width:3.2; stroke-opacity:0.6"/>
<line clip-path="url(#clip431)" x1="1359.95" y1="1426.4" x2="1359.95" y2="1346.4" style="stroke:#ff0000; stroke-width:3.2; stroke-opacity:0.6"/>
<line clip-path="url(#clip431)" x1="1386.88" y1="1426.4" x2="1386.88" y2="1346.4" style="stroke:#ff0000; stroke-width:3.2; stroke-opacity:0.6"/>
<line clip-path="url(#clip431)" x1="1393.95" y1="1426.4" x2="1393.95" y2="1346.4" style="stroke:#ff0000; stroke-width:3.2; stroke-opacity:0.6"/>
<line clip-path="url(#clip431)" x1="1402.93" y1="1426.4" x2="1402.93" y2="1346.4" style="stroke:#ff0000; stroke-width:3.2; stroke-opacity:0.6"/>
<line clip-path="url(#clip431)" x1="1407.48" y1="1426.4" x2="1407.48" y2="1346.4" style="stroke:#ff0000; stroke-width:3.2; stroke-opacity:0.6"/>
<line clip-path="url(#clip431)" x1="1415.1" y1="1426.4" x2="1415.1" y2="1346.4" style="stroke:#ff0000; stroke-width:3.2; stroke-opacity:0.6"/>
<line clip-path="url(#clip431)" x1="1420.38" y1="1426.4" x2="1420.38" y2="1346.4" style="stroke:#ff0000; stroke-width:3.2; stroke-opacity:0.6"/>
<line clip-path="url(#clip431)" x1="1421.4" y1="1426.4" x2="1421.4" y2="1346.4" style="stroke:#ff0000; stroke-width:3.2; stroke-opacity:0.6"/>
<line clip-path="url(#clip431)" x1="1433.73" y1="1426.4" x2="1433.73" y2="1346.4" style="stroke:#ff0000; stroke-width:3.2; stroke-opacity:0.6"/>
<line clip-path="url(#clip431)" x1="1435.12" y1="1426.4" x2="1435.12" y2="1346.4" style="stroke:#ff0000; stroke-width:3.2; stroke-opacity:0.6"/>
<line clip-path="url(#clip431)" x1="1440.25" y1="1426.4" x2="1440.25" y2="1346.4" style="stroke:#ff0000; stroke-width:3.2; stroke-opacity:0.6"/>
<line clip-path="url(#clip431)" x1="1469.59" y1="1426.4" x2="1469.59" y2="1346.4" style="stroke:#ff0000; stroke-width:3.2; stroke-opacity:0.6"/>
<line clip-path="url(#clip431)" x1="1489.66" y1="1426.4" x2="1489.66" y2="1346.4" style="stroke:#ff0000; stroke-width:3.2; stroke-opacity:0.6"/>
<line clip-path="url(#clip431)" x1="1492.08" y1="1426.4" x2="1492.08" y2="1346.4" style="stroke:#ff0000; stroke-width:3.2; stroke-opacity:0.6"/>
<line clip-path="url(#clip431)" x1="1494.05" y1="1426.4" x2="1494.05" y2="1346.4" style="stroke:#ff0000; stroke-width:3.2; stroke-opacity:0.6"/>
<line clip-path="url(#clip431)" x1="1500.32" y1="1426.4" x2="1500.32" y2="1346.4" style="stroke:#ff0000; stroke-width:3.2; stroke-opacity:0.6"/>
<line clip-path="url(#clip431)" x1="1502.18" y1="1426.4" x2="1502.18" y2="1346.4" style="stroke:#ff0000; stroke-width:3.2; stroke-opacity:0.6"/>
<line clip-path="url(#clip431)" x1="1507.9" y1="1426.4" x2="1507.9" y2="1346.4" style="stroke:#ff0000; stroke-width:3.2; stroke-opacity:0.6"/>
<line clip-path="url(#clip431)" x1="1525.44" y1="1426.4" x2="1525.44" y2="1346.4" style="stroke:#ff0000; stroke-width:3.2; stroke-opacity:0.6"/>
<line clip-path="url(#clip431)" x1="1581.67" y1="1426.4" x2="1581.67" y2="1346.4" style="stroke:#ff0000; stroke-width:3.2; stroke-opacity:0.6"/>
<line clip-path="url(#clip431)" x1="1605.18" y1="1426.4" x2="1605.18" y2="1346.4" style="stroke:#ff0000; stroke-width:3.2; stroke-opacity:0.6"/>
<line clip-path="url(#clip431)" x1="1623.34" y1="1426.4" x2="1623.34" y2="1346.4" style="stroke:#ff0000; stroke-width:3.2; stroke-opacity:0.6"/>
<line clip-path="url(#clip431)" x1="1643.81" y1="1426.4" x2="1643.81" y2="1346.4" style="stroke:#ff0000; stroke-width:3.2; stroke-opacity:0.6"/>
<line clip-path="url(#clip431)" x1="1655.14" y1="1426.4" x2="1655.14" y2="1346.4" style="stroke:#ff0000; stroke-width:3.2; stroke-opacity:0.6"/>
<line clip-path="url(#clip431)" x1="1662.38" y1="1426.4" x2="1662.38" y2="1346.4" style="stroke:#ff0000; stroke-width:3.2; stroke-opacity:0.6"/>
<line clip-path="url(#clip431)" x1="1739.61" y1="1426.4" x2="1739.61" y2="1346.4" style="stroke:#ff0000; stroke-width:3.2; stroke-opacity:0.6"/>
<line clip-path="url(#clip431)" x1="1827.16" y1="1426.4" x2="1827.16" y2="1346.4" style="stroke:#ff0000; stroke-width:3.2; stroke-opacity:0.6"/>
<line clip-path="url(#clip431)" x1="1862.3" y1="1426.4" x2="1862.3" y2="1346.4" style="stroke:#ff0000; stroke-width:3.2; stroke-opacity:0.6"/>
<path clip-path="url(#clip430)" d="M1680.49 322.316 L2281.13 322.316 L2281.13 166.796 L1680.49 166.796  Z" fill="#ffffff" fill-rule="evenodd" fill-opacity="1"/>
<polyline clip-path="url(#clip430)" style="stroke:#000000; stroke-linecap:round; stroke-linejoin:round; stroke-width:4; stroke-opacity:1; fill:none" points="1680.49,322.316 2281.13,322.316 2281.13,166.796 1680.49,166.796 1680.49,322.316 "/>
<polyline clip-path="url(#clip430)" style="stroke:#009af9; stroke-linecap:round; stroke-linejoin:round; stroke-width:8; stroke-opacity:1; fill:none" points="1704.36,218.636 1847.62,218.636 "/>
<path clip-path="url(#clip430)" d="M1871.49 201.356 L1900.73 201.356 L1900.73 205.291 L1888.46 205.291 L1888.46 235.916 L1883.76 235.916 L1883.76 205.291 L1871.49 205.291 L1871.49 201.356 Z" fill="#000000" fill-rule="nonzero" fill-opacity="1" /><path clip-path="url(#clip430)" d="M1913.11 213.971 Q1912.39 213.555 1911.54 213.37 Q1910.7 213.161 1909.69 213.161 Q1906.08 213.161 1904.13 215.522 Q1902.21 217.86 1902.21 222.258 L1902.21 235.916 L1897.93 235.916 L1897.93 209.99 L1902.21 209.99 L1902.21 214.018 Q1903.55 211.657 1905.7 210.522 Q1907.86 209.365 1910.94 209.365 Q1911.38 209.365 1911.91 209.434 Q1912.44 209.481 1913.09 209.596 L1913.11 213.971 Z" fill="#000000" fill-rule="nonzero" fill-opacity="1" /><path clip-path="url(#clip430)" d="M1917.14 225.684 L1917.14 209.99 L1921.4 209.99 L1921.4 225.522 Q1921.4 229.203 1922.83 231.055 Q1924.27 232.883 1927.14 232.883 Q1930.59 232.883 1932.58 230.684 Q1934.59 228.485 1934.59 224.689 L1934.59 209.99 L1938.85 209.99 L1938.85 235.916 L1934.59 235.916 L1934.59 231.934 Q1933.04 234.295 1930.98 235.453 Q1928.95 236.587 1926.24 236.587 Q1921.77 236.587 1919.45 233.809 Q1917.14 231.031 1917.14 225.684 M1927.86 209.365 L1927.86 209.365 Z" fill="#000000" fill-rule="nonzero" fill-opacity="1" /><path clip-path="url(#clip430)" d="M1969.8 221.888 L1969.8 223.971 L1950.22 223.971 Q1950.5 228.369 1952.86 230.684 Q1955.24 232.976 1959.48 232.976 Q1961.93 232.976 1964.22 232.374 Q1966.54 231.772 1968.81 230.569 L1968.81 234.596 Q1966.51 235.568 1964.11 236.078 Q1961.7 236.587 1959.22 236.587 Q1953.02 236.587 1949.39 232.976 Q1945.77 229.365 1945.77 223.207 Q1945.77 216.842 1949.2 213.115 Q1952.65 209.365 1958.48 209.365 Q1963.71 209.365 1966.75 212.745 Q1969.8 216.101 1969.8 221.888 M1965.54 220.638 Q1965.5 217.143 1963.58 215.059 Q1961.68 212.976 1958.53 212.976 Q1954.96 212.976 1952.81 214.99 Q1950.68 217.004 1950.36 220.661 L1965.54 220.638 Z" fill="#000000" fill-rule="nonzero" fill-opacity="1" /><path clip-path="url(#clip430)" d="M1995.98 232.027 L1995.98 245.777 L1991.7 245.777 L1991.7 209.99 L1995.98 209.99 L1995.98 213.925 Q1997.32 211.61 1999.36 210.499 Q2001.42 209.365 2004.27 209.365 Q2008.99 209.365 2011.93 213.115 Q2014.89 216.865 2014.89 222.976 Q2014.89 229.087 2011.93 232.837 Q2008.99 236.587 2004.27 236.587 Q2001.42 236.587 1999.36 235.476 Q1997.32 234.342 1995.98 232.027 M2010.47 222.976 Q2010.47 218.277 2008.53 215.615 Q2006.61 212.93 2003.23 212.93 Q1999.85 212.93 1997.9 215.615 Q1995.98 218.277 1995.98 222.976 Q1995.98 227.675 1997.9 230.36 Q1999.85 233.022 2003.23 233.022 Q2006.61 233.022 2008.53 230.36 Q2010.47 227.675 2010.47 222.976 Z" fill="#000000" fill-rule="nonzero" fill-opacity="1" /><path clip-path="url(#clip430)" d="M2021.95 199.897 L2026.21 199.897 L2026.21 235.916 L2021.95 235.916 L2021.95 199.897 Z" fill="#000000" fill-rule="nonzero" fill-opacity="1" /><path clip-path="url(#clip430)" d="M2046.91 222.883 Q2041.75 222.883 2039.76 224.064 Q2037.76 225.244 2037.76 228.092 Q2037.76 230.36 2039.25 231.703 Q2040.75 233.022 2043.32 233.022 Q2046.86 233.022 2048.99 230.522 Q2051.14 227.999 2051.14 223.832 L2051.14 222.883 L2046.91 222.883 M2055.4 221.124 L2055.4 235.916 L2051.14 235.916 L2051.14 231.981 Q2049.69 234.342 2047.51 235.476 Q2045.33 236.587 2042.19 236.587 Q2038.2 236.587 2035.84 234.365 Q2033.51 232.119 2033.51 228.369 Q2033.51 223.994 2036.42 221.772 Q2039.36 219.55 2045.17 219.55 L2051.14 219.55 L2051.14 219.133 Q2051.14 216.194 2049.2 214.596 Q2047.28 212.976 2043.78 212.976 Q2041.56 212.976 2039.45 213.508 Q2037.35 214.041 2035.4 215.106 L2035.4 211.17 Q2037.74 210.268 2039.94 209.828 Q2042.14 209.365 2044.22 209.365 Q2049.85 209.365 2052.63 212.282 Q2055.4 215.198 2055.4 221.124 Z" fill="#000000" fill-rule="nonzero" fill-opacity="1" /><path clip-path="url(#clip430)" d="M2082.83 210.985 L2082.83 214.967 Q2081.03 213.971 2079.2 213.485 Q2077.39 212.976 2075.54 212.976 Q2071.4 212.976 2069.11 215.615 Q2066.82 218.231 2066.82 222.976 Q2066.82 227.721 2069.11 230.36 Q2071.4 232.976 2075.54 232.976 Q2077.39 232.976 2079.2 232.49 Q2081.03 231.981 2082.83 230.985 L2082.83 234.92 Q2081.05 235.754 2079.13 236.17 Q2077.23 236.587 2075.08 236.587 Q2069.22 236.587 2065.77 232.906 Q2062.32 229.226 2062.32 222.976 Q2062.32 216.633 2065.8 212.999 Q2069.29 209.365 2075.36 209.365 Q2077.32 209.365 2079.2 209.782 Q2081.07 210.175 2082.83 210.985 Z" fill="#000000" fill-rule="nonzero" fill-opacity="1" /><path clip-path="url(#clip430)" d="M2112.42 221.888 L2112.42 223.971 L2092.83 223.971 Q2093.11 228.369 2095.47 230.684 Q2097.86 232.976 2102.09 232.976 Q2104.55 232.976 2106.84 232.374 Q2109.15 231.772 2111.42 230.569 L2111.42 234.596 Q2109.13 235.568 2106.72 236.078 Q2104.32 236.587 2101.84 236.587 Q2095.63 236.587 2092 232.976 Q2088.39 229.365 2088.39 223.207 Q2088.39 216.842 2091.82 213.115 Q2095.26 209.365 2101.1 209.365 Q2106.33 209.365 2109.36 212.745 Q2112.42 216.101 2112.42 221.888 M2108.16 220.638 Q2108.11 217.143 2106.19 215.059 Q2104.29 212.976 2101.14 212.976 Q2097.58 212.976 2095.43 214.99 Q2093.3 217.004 2092.97 220.661 L2108.16 220.638 Z" fill="#000000" fill-rule="nonzero" fill-opacity="1" /><path clip-path="url(#clip430)" d="M2147.6 199.897 L2147.6 203.439 L2143.53 203.439 Q2141.24 203.439 2140.33 204.365 Q2139.45 205.291 2139.45 207.698 L2139.45 209.99 L2146.47 209.99 L2146.47 213.3 L2139.45 213.3 L2139.45 235.916 L2135.17 235.916 L2135.17 213.3 L2131.1 213.3 L2131.1 209.99 L2135.17 209.99 L2135.17 208.184 Q2135.17 203.856 2137.19 201.888 Q2139.2 199.897 2143.57 199.897 L2147.6 199.897 Z" fill="#000000" fill-rule="nonzero" fill-opacity="1" /><path clip-path="url(#clip430)" d="M2151.17 209.99 L2155.43 209.99 L2155.43 235.916 L2151.17 235.916 L2151.17 209.99 M2151.17 199.897 L2155.43 199.897 L2155.43 205.291 L2151.17 205.291 L2151.17 199.897 Z" fill="#000000" fill-rule="nonzero" fill-opacity="1" /><path clip-path="url(#clip430)" d="M2186.51 221.888 L2186.51 223.971 L2166.93 223.971 Q2167.21 228.369 2169.57 230.684 Q2171.95 232.976 2176.19 232.976 Q2178.64 232.976 2180.93 232.374 Q2183.25 231.772 2185.52 230.569 L2185.52 234.596 Q2183.23 235.568 2180.82 236.078 Q2178.41 236.587 2175.94 236.587 Q2169.73 236.587 2166.1 232.976 Q2162.49 229.365 2162.49 223.207 Q2162.49 216.842 2165.91 213.115 Q2169.36 209.365 2175.19 209.365 Q2180.43 209.365 2183.46 212.745 Q2186.51 216.101 2186.51 221.888 M2182.25 220.638 Q2182.21 217.143 2180.29 215.059 Q2178.39 212.976 2175.24 212.976 Q2171.68 212.976 2169.52 214.99 Q2167.39 217.004 2167.07 220.661 L2182.25 220.638 Z" fill="#000000" fill-rule="nonzero" fill-opacity="1" /><path clip-path="url(#clip430)" d="M2193.5 199.897 L2197.76 199.897 L2197.76 235.916 L2193.5 235.916 L2193.5 199.897 Z" fill="#000000" fill-rule="nonzero" fill-opacity="1" /><path clip-path="url(#clip430)" d="M2223.74 213.925 L2223.74 199.897 L2227.99 199.897 L2227.99 235.916 L2223.74 235.916 L2223.74 232.027 Q2222.39 234.342 2220.33 235.476 Q2218.3 236.587 2215.43 236.587 Q2210.73 236.587 2207.76 232.837 Q2204.82 229.087 2204.82 222.976 Q2204.82 216.865 2207.76 213.115 Q2210.73 209.365 2215.43 209.365 Q2218.3 209.365 2220.33 210.499 Q2222.39 211.61 2223.74 213.925 M2209.22 222.976 Q2209.22 227.675 2211.14 230.36 Q2213.09 233.022 2216.47 233.022 Q2219.85 233.022 2221.79 230.36 Q2223.74 227.675 2223.74 222.976 Q2223.74 218.277 2221.79 215.615 Q2219.85 212.93 2216.47 212.93 Q2213.09 212.93 2211.14 215.615 Q2209.22 218.277 2209.22 222.976 Z" fill="#000000" fill-rule="nonzero" fill-opacity="1" /><line clip-path="url(#clip430)" x1="1775.99" y1="294.857" x2="1775.99" y2="246.095" style="stroke:#ff0000; stroke-width:1.95048; stroke-opacity:0.6"/>
<path clip-path="url(#clip430)" d="M1887.51 256.367 Q1882.42 256.367 1879.41 260.163 Q1876.42 263.96 1876.42 270.51 Q1876.42 277.038 1879.41 280.834 Q1882.42 284.631 1887.51 284.631 Q1892.6 284.631 1895.57 280.834 Q1898.55 277.038 1898.55 270.51 Q1898.55 263.96 1895.57 260.163 Q1892.6 256.367 1887.51 256.367 M1887.51 252.571 Q1894.78 252.571 1899.13 257.455 Q1903.48 262.316 1903.48 270.51 Q1903.48 278.682 1899.13 283.566 Q1894.78 288.427 1887.51 288.427 Q1880.22 288.427 1875.84 283.566 Q1871.49 278.705 1871.49 270.51 Q1871.49 262.316 1875.84 257.455 Q1880.22 252.571 1887.51 252.571 Z" fill="#000000" fill-rule="nonzero" fill-opacity="1" /><path clip-path="url(#clip430)" d="M1929.22 274.816 Q1929.22 270.117 1927.28 267.455 Q1925.36 264.77 1921.98 264.77 Q1918.6 264.77 1916.65 267.455 Q1914.73 270.117 1914.73 274.816 Q1914.73 279.515 1916.65 282.2 Q1918.6 284.862 1921.98 284.862 Q1925.36 284.862 1927.28 282.2 Q1929.22 279.515 1929.22 274.816 M1914.73 265.765 Q1916.08 263.45 1918.11 262.339 Q1920.17 261.205 1923.02 261.205 Q1927.74 261.205 1930.68 264.955 Q1933.64 268.705 1933.64 274.816 Q1933.64 280.927 1930.68 284.677 Q1927.74 288.427 1923.02 288.427 Q1920.17 288.427 1918.11 287.316 Q1916.08 286.182 1914.73 283.867 L1914.73 287.756 L1910.45 287.756 L1910.45 251.737 L1914.73 251.737 L1914.73 265.765 Z" fill="#000000" fill-rule="nonzero" fill-opacity="1" /><path clip-path="url(#clip430)" d="M1957.23 262.594 L1957.23 266.622 Q1955.43 265.696 1953.48 265.233 Q1951.54 264.77 1949.45 264.77 Q1946.28 264.77 1944.69 265.742 Q1943.11 266.714 1943.11 268.659 Q1943.11 270.14 1944.25 270.997 Q1945.38 271.83 1948.81 272.594 L1950.26 272.918 Q1954.8 273.89 1956.7 275.672 Q1958.62 277.432 1958.62 280.603 Q1958.62 284.214 1955.75 286.321 Q1952.9 288.427 1947.9 288.427 Q1945.82 288.427 1943.55 288.01 Q1941.31 287.617 1938.81 286.807 L1938.81 282.409 Q1941.17 283.635 1943.46 284.26 Q1945.75 284.862 1948 284.862 Q1951.01 284.862 1952.63 283.844 Q1954.25 282.802 1954.25 280.927 Q1954.25 279.191 1953.07 278.265 Q1951.91 277.339 1947.95 276.483 L1946.47 276.135 Q1942.51 275.302 1940.75 273.589 Q1938.99 271.853 1938.99 268.844 Q1938.99 265.186 1941.58 263.196 Q1944.18 261.205 1948.95 261.205 Q1951.31 261.205 1953.39 261.552 Q1955.47 261.899 1957.23 262.594 Z" fill="#000000" fill-rule="nonzero" fill-opacity="1" /><path clip-path="url(#clip430)" d="M1987.58 273.728 L1987.58 275.811 L1968 275.811 Q1968.27 280.209 1970.64 282.524 Q1973.02 284.816 1977.26 284.816 Q1979.71 284.816 1982 284.214 Q1984.32 283.612 1986.58 282.409 L1986.58 286.436 Q1984.29 287.408 1981.89 287.918 Q1979.48 288.427 1977 288.427 Q1970.8 288.427 1967.16 284.816 Q1963.55 281.205 1963.55 275.047 Q1963.55 268.682 1966.98 264.955 Q1970.43 261.205 1976.26 261.205 Q1981.49 261.205 1984.52 264.585 Q1987.58 267.941 1987.58 273.728 M1983.32 272.478 Q1983.27 268.983 1981.35 266.899 Q1979.45 264.816 1976.31 264.816 Q1972.74 264.816 1970.59 266.83 Q1968.46 268.844 1968.14 272.501 L1983.32 272.478 Z" fill="#000000" fill-rule="nonzero" fill-opacity="1" /><path clip-path="url(#clip430)" d="M2009.59 265.811 Q2008.88 265.395 2008.02 265.21 Q2007.19 265.001 2006.17 265.001 Q2002.56 265.001 2000.61 267.362 Q1998.69 269.7 1998.69 274.098 L1998.69 287.756 L1994.41 287.756 L1994.41 261.83 L1998.69 261.83 L1998.69 265.858 Q2000.03 263.497 2002.19 262.362 Q2004.34 261.205 2007.42 261.205 Q2007.86 261.205 2008.39 261.274 Q2008.92 261.321 2009.57 261.436 L2009.59 265.811 Z" fill="#000000" fill-rule="nonzero" fill-opacity="1" /><path clip-path="url(#clip430)" d="M2011.01 261.83 L2015.52 261.83 L2023.62 283.589 L2031.72 261.83 L2036.24 261.83 L2026.51 287.756 L2020.73 287.756 L2011.01 261.83 Z" fill="#000000" fill-rule="nonzero" fill-opacity="1" /><path clip-path="url(#clip430)" d="M2064.29 273.728 L2064.29 275.811 L2044.71 275.811 Q2044.99 280.209 2047.35 282.524 Q2049.73 284.816 2053.97 284.816 Q2056.42 284.816 2058.71 284.214 Q2061.03 283.612 2063.3 282.409 L2063.3 286.436 Q2061.01 287.408 2058.6 287.918 Q2056.19 288.427 2053.71 288.427 Q2047.51 288.427 2043.88 284.816 Q2040.26 281.205 2040.26 275.047 Q2040.26 268.682 2043.69 264.955 Q2047.14 261.205 2052.97 261.205 Q2058.2 261.205 2061.24 264.585 Q2064.29 267.941 2064.29 273.728 M2060.03 272.478 Q2059.99 268.983 2058.07 266.899 Q2056.17 264.816 2053.02 264.816 Q2049.45 264.816 2047.3 266.83 Q2045.17 268.844 2044.85 272.501 L2060.03 272.478 Z" fill="#000000" fill-rule="nonzero" fill-opacity="1" /><path clip-path="url(#clip430)" d="M2088.34 265.765 L2088.34 251.737 L2092.6 251.737 L2092.6 287.756 L2088.34 287.756 L2088.34 283.867 Q2087 286.182 2084.94 287.316 Q2082.9 288.427 2080.03 288.427 Q2075.33 288.427 2072.37 284.677 Q2069.43 280.927 2069.43 274.816 Q2069.43 268.705 2072.37 264.955 Q2075.33 261.205 2080.03 261.205 Q2082.9 261.205 2084.94 262.339 Q2087 263.45 2088.34 265.765 M2073.83 274.816 Q2073.83 279.515 2075.75 282.2 Q2077.69 284.862 2081.07 284.862 Q2084.45 284.862 2086.4 282.2 Q2088.34 279.515 2088.34 274.816 Q2088.34 270.117 2086.4 267.455 Q2084.45 264.77 2081.07 264.77 Q2077.69 264.77 2075.75 267.455 Q2073.83 270.117 2073.83 274.816 Z" fill="#000000" fill-rule="nonzero" fill-opacity="1" /><path clip-path="url(#clip430)" d="M2132.97 262.594 L2132.97 266.622 Q2131.17 265.696 2129.22 265.233 Q2127.28 264.77 2125.19 264.77 Q2122.02 264.77 2120.43 265.742 Q2118.85 266.714 2118.85 268.659 Q2118.85 270.14 2119.99 270.997 Q2121.12 271.83 2124.55 272.594 L2126 272.918 Q2130.54 273.89 2132.44 275.672 Q2134.36 277.432 2134.36 280.603 Q2134.36 284.214 2131.49 286.321 Q2128.64 288.427 2123.64 288.427 Q2121.56 288.427 2119.29 288.01 Q2117.05 287.617 2114.55 286.807 L2114.55 282.409 Q2116.91 283.635 2119.2 284.26 Q2121.49 284.862 2123.74 284.862 Q2126.75 284.862 2128.37 283.844 Q2129.99 282.802 2129.99 280.927 Q2129.99 279.191 2128.81 278.265 Q2127.65 277.339 2123.69 276.483 L2122.21 276.135 Q2118.25 275.302 2116.49 273.589 Q2114.73 271.853 2114.73 268.844 Q2114.73 265.186 2117.32 263.196 Q2119.92 261.205 2124.69 261.205 Q2127.05 261.205 2129.13 261.552 Q2131.21 261.899 2132.97 262.594 Z" fill="#000000" fill-rule="nonzero" fill-opacity="1" /><path clip-path="url(#clip430)" d="M2145.26 283.867 L2145.26 297.617 L2140.98 297.617 L2140.98 261.83 L2145.26 261.83 L2145.26 265.765 Q2146.61 263.45 2148.64 262.339 Q2150.7 261.205 2153.55 261.205 Q2158.27 261.205 2161.21 264.955 Q2164.18 268.705 2164.18 274.816 Q2164.18 280.927 2161.21 284.677 Q2158.27 288.427 2153.55 288.427 Q2150.7 288.427 2148.64 287.316 Q2146.61 286.182 2145.26 283.867 M2159.75 274.816 Q2159.75 270.117 2157.81 267.455 Q2155.89 264.77 2152.51 264.77 Q2149.13 264.77 2147.19 267.455 Q2145.26 270.117 2145.26 274.816 Q2145.26 279.515 2147.19 282.2 Q2149.13 284.862 2152.51 284.862 Q2155.89 284.862 2157.81 282.2 Q2159.75 279.515 2159.75 274.816 Z" fill="#000000" fill-rule="nonzero" fill-opacity="1" /><path clip-path="url(#clip430)" d="M2171.24 261.83 L2175.5 261.83 L2175.5 287.756 L2171.24 287.756 L2171.24 261.83 M2171.24 251.737 L2175.5 251.737 L2175.5 257.131 L2171.24 257.131 L2171.24 251.737 Z" fill="#000000" fill-rule="nonzero" fill-opacity="1" /><path clip-path="url(#clip430)" d="M2184.25 251.737 L2188.53 251.737 L2188.53 273.01 L2201.24 261.83 L2206.68 261.83 L2192.93 273.959 L2207.25 287.756 L2201.7 287.756 L2188.53 275.094 L2188.53 287.756 L2184.25 287.756 L2184.25 251.737 Z" fill="#000000" fill-rule="nonzero" fill-opacity="1" /><path clip-path="url(#clip430)" d="M2232.35 273.728 L2232.35 275.811 L2212.76 275.811 Q2213.04 280.209 2215.4 282.524 Q2217.79 284.816 2222.02 284.816 Q2224.48 284.816 2226.77 284.214 Q2229.08 283.612 2231.35 282.409 L2231.35 286.436 Q2229.06 287.408 2226.65 287.918 Q2224.24 288.427 2221.77 288.427 Q2215.56 288.427 2211.93 284.816 Q2208.32 281.205 2208.32 275.047 Q2208.32 268.682 2211.75 264.955 Q2215.19 261.205 2221.03 261.205 Q2226.26 261.205 2229.29 264.585 Q2232.35 267.941 2232.35 273.728 M2228.09 272.478 Q2228.04 268.983 2226.12 266.899 Q2224.22 264.816 2221.07 264.816 Q2217.51 264.816 2215.36 266.83 Q2213.23 268.844 2212.9 272.501 L2228.09 272.478 Z" fill="#000000" fill-rule="nonzero" fill-opacity="1" /><path clip-path="url(#clip430)" d="M2255.87 262.594 L2255.87 266.622 Q2254.06 265.696 2252.12 265.233 Q2250.17 264.77 2248.09 264.77 Q2244.92 264.77 2243.32 265.742 Q2241.74 266.714 2241.74 268.659 Q2241.74 270.14 2242.88 270.997 Q2244.01 271.83 2247.44 272.594 L2248.9 272.918 Q2253.43 273.89 2255.33 275.672 Q2257.25 277.432 2257.25 280.603 Q2257.25 284.214 2254.38 286.321 Q2251.54 288.427 2246.54 288.427 Q2244.45 288.427 2242.18 288.01 Q2239.94 287.617 2237.44 286.807 L2237.44 282.409 Q2239.8 283.635 2242.09 284.26 Q2244.38 284.862 2246.63 284.862 Q2249.64 284.862 2251.26 283.844 Q2252.88 282.802 2252.88 280.927 Q2252.88 279.191 2251.7 278.265 Q2250.54 277.339 2246.58 276.483 L2245.1 276.135 Q2241.14 275.302 2239.38 273.589 Q2237.62 271.853 2237.62 268.844 Q2237.62 265.186 2240.22 263.196 Q2242.81 261.205 2247.58 261.205 Q2249.94 261.205 2252.02 261.552 Q2254.11 261.899 2255.87 262.594 Z" fill="#000000" fill-rule="nonzero" fill-opacity="1" /></svg>
