<?xml version="1.0" encoding="utf-8"?>
<svg xmlns="http://www.w3.org/2000/svg" xmlns:xlink="http://www.w3.org/1999/xlink" width="600" height="400" viewBox="0 0 2400 1600">
<defs>
  <clipPath id="clip340">
    <rect x="0" y="0" width="2400" height="1600"/>
  </clipPath>
</defs>
<path clip-path="url(#clip340)" d="M0 1600 L2400 1600 L2400 0 L0 0  Z" fill="#ffffff" fill-rule="evenodd" fill-opacity="1"/>
<defs>
  <clipPath id="clip341">
    <rect x="175" y="123" width="2178" height="1301"/>
  </clipPath>
</defs>
<path clip-path="url(#clip340)" d="M175.445 1423.18 L2352.76 1423.18 L2352.76 123.472 L175.445 123.472  Z" fill="#ffffff" fill-rule="evenodd" fill-opacity="1"/>
<polyline clip-path="url(#clip341)" style="stroke:#000000; stroke-linecap:round; stroke-linejoin:round; stroke-width:2; stroke-opacity:0.1; fill:none" points="237.067,1423.18 237.067,123.472 "/>
<polyline clip-path="url(#clip341)" style="stroke:#000000; stroke-linecap:round; stroke-linejoin:round; stroke-width:2; stroke-opacity:0.1; fill:none" points="637.08,1423.18 637.08,123.472 "/>
<polyline clip-path="url(#clip341)" style="stroke:#000000; stroke-linecap:round; stroke-linejoin:round; stroke-width:2; stroke-opacity:0.1; fill:none" points="1037.09,1423.18 1037.09,123.472 "/>
<polyline clip-path="url(#clip341)" style="stroke:#000000; stroke-linecap:round; stroke-linejoin:round; stroke-width:2; stroke-opacity:0.1; fill:none" points="1437.11,1423.18 1437.11,123.472 "/>
<polyline clip-path="url(#clip341)" style="stroke:#000000; stroke-linecap:round; stroke-linejoin:round; stroke-width:2; stroke-opacity:0.1; fill:none" points="1837.12,1423.18 1837.12,123.472 "/>
<polyline clip-path="url(#clip341)" style="stroke:#000000; stroke-linecap:round; stroke-linejoin:round; stroke-width:2; stroke-opacity:0.1; fill:none" points="2237.13,1423.18 2237.13,123.472 "/>
<polyline clip-path="url(#clip341)" style="stroke:#000000; stroke-linecap:round; stroke-linejoin:round; stroke-width:2; stroke-opacity:0.1; fill:none" points="175.445,1423.18 2352.76,1423.18 "/>
<polyline clip-path="url(#clip341)" style="stroke:#000000; stroke-linecap:round; stroke-linejoin:round; stroke-width:2; stroke-opacity:0.1; fill:none" points="175.445,1173.24 2352.76,1173.24 "/>
<polyline clip-path="url(#clip341)" style="stroke:#000000; stroke-linecap:round; stroke-linejoin:round; stroke-width:2; stroke-opacity:0.1; fill:none" points="175.445,923.292 2352.76,923.292 "/>
<polyline clip-path="url(#clip341)" style="stroke:#000000; stroke-linecap:round; stroke-linejoin:round; stroke-width:2; stroke-opacity:0.1; fill:none" points="175.445,673.348 2352.76,673.348 "/>
<polyline clip-path="url(#clip341)" style="stroke:#000000; stroke-linecap:round; stroke-linejoin:round; stroke-width:2; stroke-opacity:0.1; fill:none" points="175.445,423.405 2352.76,423.405 "/>
<polyline clip-path="url(#clip341)" style="stroke:#000000; stroke-linecap:round; stroke-linejoin:round; stroke-width:2; stroke-opacity:0.1; fill:none" points="175.445,173.461 2352.76,173.461 "/>
<polyline clip-path="url(#clip340)" style="stroke:#000000; stroke-linecap:round; stroke-linejoin:round; stroke-width:4; stroke-opacity:1; fill:none" points="175.445,1423.18 2352.76,1423.18 "/>
<polyline clip-path="url(#clip340)" style="stroke:#000000; stroke-linecap:round; stroke-linejoin:round; stroke-width:4; stroke-opacity:1; fill:none" points="237.067,1423.18 237.067,1404.28 "/>
<polyline clip-path="url(#clip340)" style="stroke:#000000; stroke-linecap:round; stroke-linejoin:round; stroke-width:4; stroke-opacity:1; fill:none" points="637.08,1423.18 637.08,1404.28 "/>
<polyline clip-path="url(#clip340)" style="stroke:#000000; stroke-linecap:round; stroke-linejoin:round; stroke-width:4; stroke-opacity:1; fill:none" points="1037.09,1423.18 1037.09,1404.28 "/>
<polyline clip-path="url(#clip340)" style="stroke:#000000; stroke-linecap:round; stroke-linejoin:round; stroke-width:4; stroke-opacity:1; fill:none" points="1437.11,1423.18 1437.11,1404.28 "/>
<polyline clip-path="url(#clip340)" style="stroke:#000000; stroke-linecap:round; stroke-linejoin:round; stroke-width:4; stroke-opacity:1; fill:none" points="1837.12,1423.18 1837.12,1404.28 "/>
<polyline clip-path="url(#clip340)" style="stroke:#000000; stroke-linecap:round; stroke-linejoin:round; stroke-width:4; stroke-opacity:1; fill:none" points="2237.13,1423.18 2237.13,1404.28 "/>
<path clip-path="url(#clip340)" d="M214.452 1454.1 Q210.84 1454.1 209.012 1457.66 Q207.206 1461.2 207.206 1468.33 Q207.206 1475.44 209.012 1479.01 Q210.84 1482.55 214.452 1482.55 Q218.086 1482.55 219.891 1479.01 Q221.72 1475.44 221.72 1468.33 Q221.72 1461.2 219.891 1457.66 Q218.086 1454.1 214.452 1454.1 M214.452 1450.39 Q220.262 1450.39 223.317 1455 Q226.396 1459.58 226.396 1468.33 Q226.396 1477.06 223.317 1481.67 Q220.262 1486.25 214.452 1486.25 Q208.641 1486.25 205.563 1481.67 Q202.507 1477.06 202.507 1468.33 Q202.507 1459.58 205.563 1455 Q208.641 1450.39 214.452 1450.39 Z" fill="#000000" fill-rule="nonzero" fill-opacity="1" /><path clip-path="url(#clip340)" d="M234.614 1479.7 L239.498 1479.7 L239.498 1485.58 L234.614 1485.58 L234.614 1479.7 Z" fill="#000000" fill-rule="nonzero" fill-opacity="1" /><path clip-path="url(#clip340)" d="M259.683 1454.1 Q256.072 1454.1 254.243 1457.66 Q252.437 1461.2 252.437 1468.33 Q252.437 1475.44 254.243 1479.01 Q256.072 1482.55 259.683 1482.55 Q263.317 1482.55 265.123 1479.01 Q266.951 1475.44 266.951 1468.33 Q266.951 1461.2 265.123 1457.66 Q263.317 1454.1 259.683 1454.1 M259.683 1450.39 Q265.493 1450.39 268.549 1455 Q271.627 1459.58 271.627 1468.33 Q271.627 1477.06 268.549 1481.67 Q265.493 1486.25 259.683 1486.25 Q253.873 1486.25 250.794 1481.67 Q247.738 1477.06 247.738 1468.33 Q247.738 1459.58 250.794 1455 Q253.873 1450.39 259.683 1450.39 Z" fill="#000000" fill-rule="nonzero" fill-opacity="1" /><path clip-path="url(#clip340)" d="M615.078 1454.1 Q611.467 1454.1 609.638 1457.66 Q607.833 1461.2 607.833 1468.33 Q607.833 1475.44 609.638 1479.01 Q611.467 1482.55 615.078 1482.55 Q618.712 1482.55 620.518 1479.01 Q622.346 1475.44 622.346 1468.33 Q622.346 1461.2 620.518 1457.66 Q618.712 1454.1 615.078 1454.1 M615.078 1450.39 Q620.888 1450.39 623.944 1455 Q627.022 1459.58 627.022 1468.33 Q627.022 1477.06 623.944 1481.67 Q620.888 1486.25 615.078 1486.25 Q609.268 1486.25 606.189 1481.67 Q603.134 1477.06 603.134 1468.33 Q603.134 1459.58 606.189 1455 Q609.268 1450.39 615.078 1450.39 Z" fill="#000000" fill-rule="nonzero" fill-opacity="1" /><path clip-path="url(#clip340)" d="M635.24 1479.7 L640.124 1479.7 L640.124 1485.58 L635.24 1485.58 L635.24 1479.7 Z" fill="#000000" fill-rule="nonzero" fill-opacity="1" /><path clip-path="url(#clip340)" d="M651.119 1481.64 L658.758 1481.64 L658.758 1455.28 L650.448 1456.95 L650.448 1452.69 L658.712 1451.02 L663.388 1451.02 L663.388 1481.64 L671.027 1481.64 L671.027 1485.58 L651.119 1485.58 L651.119 1481.64 Z" fill="#000000" fill-rule="nonzero" fill-opacity="1" /><path clip-path="url(#clip340)" d="M1015.28 1454.1 Q1011.67 1454.1 1009.84 1457.66 Q1008.03 1461.2 1008.03 1468.33 Q1008.03 1475.44 1009.84 1479.01 Q1011.67 1482.55 1015.28 1482.55 Q1018.91 1482.55 1020.72 1479.01 Q1022.54 1475.44 1022.54 1468.33 Q1022.54 1461.2 1020.72 1457.66 Q1018.91 1454.1 1015.28 1454.1 M1015.28 1450.39 Q1021.09 1450.39 1024.14 1455 Q1027.22 1459.58 1027.22 1468.33 Q1027.22 1477.06 1024.14 1481.67 Q1021.09 1486.25 1015.28 1486.25 Q1009.47 1486.25 1006.39 1481.67 Q1003.33 1477.06 1003.33 1468.33 Q1003.33 1459.58 1006.39 1455 Q1009.47 1450.39 1015.28 1450.39 Z" fill="#000000" fill-rule="nonzero" fill-opacity="1" /><path clip-path="url(#clip340)" d="M1035.44 1479.7 L1040.32 1479.7 L1040.32 1485.58 L1035.44 1485.58 L1035.44 1479.7 Z" fill="#000000" fill-rule="nonzero" fill-opacity="1" /><path clip-path="url(#clip340)" d="M1054.54 1481.64 L1070.85 1481.64 L1070.85 1485.58 L1048.91 1485.58 L1048.91 1481.64 Q1051.57 1478.89 1056.16 1474.26 Q1060.76 1469.61 1061.94 1468.27 Q1064.19 1465.74 1065.07 1464.01 Q1065.97 1462.25 1065.97 1460.56 Q1065.97 1457.8 1064.03 1456.07 Q1062.1 1454.33 1059 1454.33 Q1056.8 1454.33 1054.35 1455.09 Q1051.92 1455.86 1049.14 1457.41 L1049.14 1452.69 Q1051.97 1451.55 1054.42 1450.97 Q1056.87 1450.39 1058.91 1450.39 Q1064.28 1450.39 1067.47 1453.08 Q1070.67 1455.77 1070.67 1460.26 Q1070.67 1462.39 1069.86 1464.31 Q1069.07 1466.2 1066.97 1468.8 Q1066.39 1469.47 1063.29 1472.69 Q1060.18 1475.88 1054.54 1481.64 Z" fill="#000000" fill-rule="nonzero" fill-opacity="1" /><path clip-path="url(#clip340)" d="M1414.81 1454.1 Q1411.2 1454.1 1409.37 1457.66 Q1407.57 1461.2 1407.57 1468.33 Q1407.57 1475.44 1409.37 1479.01 Q1411.2 1482.55 1414.81 1482.55 Q1418.45 1482.55 1420.25 1479.01 Q1422.08 1475.44 1422.08 1468.33 Q1422.08 1461.2 1420.25 1457.66 Q1418.45 1454.1 1414.81 1454.1 M1414.81 1450.39 Q1420.62 1450.39 1423.68 1455 Q1426.76 1459.58 1426.76 1468.33 Q1426.76 1477.06 1423.68 1481.67 Q1420.62 1486.25 1414.81 1486.25 Q1409 1486.25 1405.93 1481.67 Q1402.87 1477.06 1402.87 1468.33 Q1402.87 1459.58 1405.93 1455 Q1409 1450.39 1414.81 1450.39 Z" fill="#000000" fill-rule="nonzero" fill-opacity="1" /><path clip-path="url(#clip340)" d="M1434.98 1479.7 L1439.86 1479.7 L1439.86 1485.58 L1434.98 1485.58 L1434.98 1479.7 Z" fill="#000000" fill-rule="nonzero" fill-opacity="1" /><path clip-path="url(#clip340)" d="M1464.21 1466.95 Q1467.57 1467.66 1469.44 1469.93 Q1471.34 1472.2 1471.34 1475.53 Q1471.34 1480.65 1467.82 1483.45 Q1464.31 1486.25 1457.82 1486.25 Q1455.65 1486.25 1453.33 1485.81 Q1451.04 1485.39 1448.59 1484.54 L1448.59 1480.02 Q1450.53 1481.16 1452.85 1481.74 Q1455.16 1482.32 1457.68 1482.32 Q1462.08 1482.32 1464.37 1480.58 Q1466.69 1478.84 1466.69 1475.53 Q1466.69 1472.48 1464.54 1470.77 Q1462.41 1469.03 1458.59 1469.03 L1454.56 1469.03 L1454.56 1465.19 L1458.77 1465.19 Q1462.22 1465.19 1464.05 1463.82 Q1465.88 1462.43 1465.88 1459.84 Q1465.88 1457.18 1463.98 1455.77 Q1462.11 1454.33 1458.59 1454.33 Q1456.67 1454.33 1454.47 1454.75 Q1452.27 1455.16 1449.63 1456.04 L1449.63 1451.88 Q1452.29 1451.14 1454.61 1450.77 Q1456.94 1450.39 1459 1450.39 Q1464.33 1450.39 1467.43 1452.83 Q1470.53 1455.23 1470.53 1459.35 Q1470.53 1462.22 1468.89 1464.21 Q1467.24 1466.18 1464.21 1466.95 Z" fill="#000000" fill-rule="nonzero" fill-opacity="1" /><path clip-path="url(#clip340)" d="M1814.26 1454.1 Q1810.65 1454.1 1808.82 1457.66 Q1807.02 1461.2 1807.02 1468.33 Q1807.02 1475.44 1808.82 1479.01 Q1810.65 1482.55 1814.26 1482.55 Q1817.89 1482.55 1819.7 1479.01 Q1821.53 1475.44 1821.53 1468.33 Q1821.53 1461.2 1819.7 1457.66 Q1817.89 1454.1 1814.26 1454.1 M1814.26 1450.39 Q1820.07 1450.39 1823.13 1455 Q1826.2 1459.58 1826.2 1468.33 Q1826.2 1477.06 1823.13 1481.67 Q1820.07 1486.25 1814.26 1486.25 Q1808.45 1486.25 1805.37 1481.67 Q1802.32 1477.06 1802.32 1468.33 Q1802.32 1459.58 1805.37 1455 Q1808.45 1450.39 1814.26 1450.39 Z" fill="#000000" fill-rule="nonzero" fill-opacity="1" /><path clip-path="url(#clip340)" d="M1834.42 1479.7 L1839.31 1479.7 L1839.31 1485.58 L1834.42 1485.58 L1834.42 1479.7 Z" fill="#000000" fill-rule="nonzero" fill-opacity="1" /><path clip-path="url(#clip340)" d="M1862.34 1455.09 L1850.53 1473.54 L1862.34 1473.54 L1862.34 1455.09 M1861.11 1451.02 L1866.99 1451.02 L1866.99 1473.54 L1871.92 1473.54 L1871.92 1477.43 L1866.99 1477.43 L1866.99 1485.58 L1862.34 1485.58 L1862.34 1477.43 L1846.74 1477.43 L1846.74 1472.92 L1861.11 1451.02 Z" fill="#000000" fill-rule="nonzero" fill-opacity="1" /><path clip-path="url(#clip340)" d="M2215.01 1454.1 Q2211.4 1454.1 2209.57 1457.66 Q2207.77 1461.2 2207.77 1468.33 Q2207.77 1475.44 2209.57 1479.01 Q2211.4 1482.55 2215.01 1482.55 Q2218.65 1482.55 2220.45 1479.01 Q2222.28 1475.44 2222.28 1468.33 Q2222.28 1461.2 2220.45 1457.66 Q2218.65 1454.1 2215.01 1454.1 M2215.01 1450.39 Q2220.82 1450.39 2223.88 1455 Q2226.96 1459.58 2226.96 1468.33 Q2226.96 1477.06 2223.88 1481.67 Q2220.82 1486.25 2215.01 1486.25 Q2209.2 1486.25 2206.13 1481.67 Q2203.07 1477.06 2203.07 1468.33 Q2203.07 1459.58 2206.13 1455 Q2209.2 1450.39 2215.01 1450.39 Z" fill="#000000" fill-rule="nonzero" fill-opacity="1" /><path clip-path="url(#clip340)" d="M2235.18 1479.7 L2240.06 1479.7 L2240.06 1485.58 L2235.18 1485.58 L2235.18 1479.7 Z" fill="#000000" fill-rule="nonzero" fill-opacity="1" /><path clip-path="url(#clip340)" d="M2250.29 1451.02 L2268.65 1451.02 L2268.65 1454.96 L2254.57 1454.96 L2254.57 1463.43 Q2255.59 1463.08 2256.61 1462.92 Q2257.63 1462.73 2258.65 1462.73 Q2264.44 1462.73 2267.81 1465.9 Q2271.19 1469.08 2271.19 1474.49 Q2271.19 1480.07 2267.72 1483.17 Q2264.25 1486.25 2257.93 1486.25 Q2255.75 1486.25 2253.49 1485.88 Q2251.24 1485.51 2248.83 1484.77 L2248.83 1480.07 Q2250.92 1481.2 2253.14 1481.76 Q2255.36 1482.32 2257.84 1482.32 Q2261.84 1482.32 2264.18 1480.21 Q2266.52 1478.1 2266.52 1474.49 Q2266.52 1470.88 2264.18 1468.77 Q2261.84 1466.67 2257.84 1466.67 Q2255.96 1466.67 2254.09 1467.08 Q2252.24 1467.5 2250.29 1468.38 L2250.29 1451.02 Z" fill="#000000" fill-rule="nonzero" fill-opacity="1" /><path clip-path="url(#clip340)" d="M1060.57 1520.52 L1067.07 1520.52 L1077.06 1560.69 L1087.02 1520.52 L1094.25 1520.52 L1104.24 1560.69 L1114.2 1520.52 L1120.73 1520.52 L1108.79 1568.04 L1100.71 1568.04 L1090.68 1526.79 L1080.56 1568.04 L1072.48 1568.04 L1060.57 1520.52 Z" fill="#000000" fill-rule="nonzero" fill-opacity="1" /><path clip-path="url(#clip340)" d="M1141.04 1550.12 Q1133.94 1550.12 1131.2 1551.75 Q1128.46 1553.37 1128.46 1557.29 Q1128.46 1560.4 1130.5 1562.25 Q1132.57 1564.07 1136.1 1564.07 Q1140.97 1564.07 1143.9 1560.63 Q1146.86 1557.16 1146.86 1551.43 L1146.86 1550.12 L1141.04 1550.12 M1152.72 1547.71 L1152.72 1568.04 L1146.86 1568.04 L1146.86 1562.63 Q1144.85 1565.88 1141.86 1567.44 Q1138.87 1568.97 1134.54 1568.97 Q1129.07 1568.97 1125.82 1565.91 Q1122.61 1562.82 1122.61 1557.67 Q1122.61 1551.65 1126.62 1548.6 Q1130.66 1545.54 1138.65 1545.54 L1146.86 1545.54 L1146.86 1544.97 Q1146.86 1540.93 1144.19 1538.73 Q1141.54 1536.5 1136.74 1536.5 Q1133.68 1536.5 1130.79 1537.23 Q1127.89 1537.97 1125.22 1539.43 L1125.22 1534.02 Q1128.43 1532.78 1131.46 1532.17 Q1134.48 1531.54 1137.34 1531.54 Q1145.08 1531.54 1148.9 1535.55 Q1152.72 1539.56 1152.72 1547.71 Z" fill="#000000" fill-rule="nonzero" fill-opacity="1" /><path clip-path="url(#clip340)" d="M1164.78 1532.4 L1170.64 1532.4 L1170.64 1568.04 L1164.78 1568.04 L1164.78 1532.4 M1164.78 1518.52 L1170.64 1518.52 L1170.64 1525.93 L1164.78 1525.93 L1164.78 1518.52 Z" fill="#000000" fill-rule="nonzero" fill-opacity="1" /><path clip-path="url(#clip340)" d="M1188.68 1522.27 L1188.68 1532.4 L1200.75 1532.4 L1200.75 1536.95 L1188.68 1536.95 L1188.68 1556.3 Q1188.68 1560.66 1189.86 1561.9 Q1191.07 1563.14 1194.73 1563.14 L1200.75 1563.14 L1200.75 1568.04 L1194.73 1568.04 Q1187.95 1568.04 1185.37 1565.53 Q1182.79 1562.98 1182.79 1556.3 L1182.79 1536.95 L1178.5 1536.95 L1178.5 1532.4 L1182.79 1532.4 L1182.79 1522.27 L1188.68 1522.27 Z" fill="#000000" fill-rule="nonzero" fill-opacity="1" /><path clip-path="url(#clip340)" d="M1208.45 1532.4 L1214.3 1532.4 L1214.3 1568.04 L1208.45 1568.04 L1208.45 1532.4 M1208.45 1518.52 L1214.3 1518.52 L1214.3 1525.93 L1208.45 1525.93 L1208.45 1518.52 Z" fill="#000000" fill-rule="nonzero" fill-opacity="1" /><path clip-path="url(#clip340)" d="M1256.19 1546.53 L1256.19 1568.04 L1250.33 1568.04 L1250.33 1546.72 Q1250.33 1541.66 1248.36 1539.14 Q1246.39 1536.63 1242.44 1536.63 Q1237.7 1536.63 1234.96 1539.65 Q1232.22 1542.68 1232.22 1547.9 L1232.22 1568.04 L1226.34 1568.04 L1226.34 1532.4 L1232.22 1532.4 L1232.22 1537.93 Q1234.32 1534.72 1237.16 1533.13 Q1240.02 1531.54 1243.75 1531.54 Q1249.89 1531.54 1253.04 1535.36 Q1256.19 1539.14 1256.19 1546.53 Z" fill="#000000" fill-rule="nonzero" fill-opacity="1" /><path clip-path="url(#clip340)" d="M1291.33 1549.81 Q1291.33 1543.44 1288.69 1539.94 Q1286.08 1536.44 1281.34 1536.44 Q1276.63 1536.44 1273.98 1539.94 Q1271.37 1543.44 1271.37 1549.81 Q1271.37 1556.14 1273.98 1559.64 Q1276.63 1563.14 1281.34 1563.14 Q1286.08 1563.14 1288.69 1559.64 Q1291.33 1556.14 1291.33 1549.81 M1297.19 1563.62 Q1297.19 1572.72 1293.14 1577.15 Q1289.1 1581.6 1280.76 1581.6 Q1277.68 1581.6 1274.94 1581.13 Q1272.2 1580.68 1269.62 1579.72 L1269.62 1574.03 Q1272.2 1575.43 1274.72 1576.1 Q1277.23 1576.76 1279.84 1576.76 Q1285.6 1576.76 1288.47 1573.74 Q1291.33 1570.75 1291.33 1564.67 L1291.33 1561.77 Q1289.52 1564.92 1286.68 1566.48 Q1283.85 1568.04 1279.9 1568.04 Q1273.35 1568.04 1269.34 1563.05 Q1265.33 1558.05 1265.33 1549.81 Q1265.33 1541.53 1269.34 1536.53 Q1273.35 1531.54 1279.9 1531.54 Q1283.85 1531.54 1286.68 1533.1 Q1289.52 1534.66 1291.33 1537.81 L1291.33 1532.4 L1297.19 1532.4 L1297.19 1563.62 Z" fill="#000000" fill-rule="nonzero" fill-opacity="1" /><path clip-path="url(#clip340)" d="M1335.76 1522.27 L1335.76 1532.4 L1347.83 1532.4 L1347.83 1536.95 L1335.76 1536.95 L1335.76 1556.3 Q1335.76 1560.66 1336.94 1561.9 Q1338.15 1563.14 1341.81 1563.14 L1347.83 1563.14 L1347.83 1568.04 L1341.81 1568.04 Q1335.03 1568.04 1332.45 1565.53 Q1329.87 1562.98 1329.87 1556.3 L1329.87 1536.95 L1325.58 1536.95 L1325.58 1532.4 L1329.87 1532.4 L1329.87 1522.27 L1335.76 1522.27 Z" fill="#000000" fill-rule="nonzero" fill-opacity="1" /><path clip-path="url(#clip340)" d="M1355.53 1532.4 L1361.38 1532.4 L1361.38 1568.04 L1355.53 1568.04 L1355.53 1532.4 M1355.53 1518.52 L1361.38 1518.52 L1361.38 1525.93 L1355.53 1525.93 L1355.53 1518.52 Z" fill="#000000" fill-rule="nonzero" fill-opacity="1" /><path clip-path="url(#clip340)" d="M1401.39 1539.24 Q1403.59 1535.29 1406.64 1533.41 Q1409.7 1531.54 1413.84 1531.54 Q1419.41 1531.54 1422.43 1535.45 Q1425.46 1539.33 1425.46 1546.53 L1425.46 1568.04 L1419.57 1568.04 L1419.57 1546.72 Q1419.57 1541.59 1417.75 1539.11 Q1415.94 1536.63 1412.21 1536.63 Q1407.66 1536.63 1405.02 1539.65 Q1402.38 1542.68 1402.38 1547.9 L1402.38 1568.04 L1396.49 1568.04 L1396.49 1546.72 Q1396.49 1541.56 1394.68 1539.11 Q1392.86 1536.63 1389.08 1536.63 Q1384.59 1536.63 1381.95 1539.68 Q1379.3 1542.71 1379.3 1547.9 L1379.3 1568.04 L1373.42 1568.04 L1373.42 1532.4 L1379.3 1532.4 L1379.3 1537.93 Q1381.31 1534.66 1384.11 1533.1 Q1386.91 1531.54 1390.76 1531.54 Q1394.65 1531.54 1397.35 1533.51 Q1400.09 1535.48 1401.39 1539.24 Z" fill="#000000" fill-rule="nonzero" fill-opacity="1" /><path clip-path="url(#clip340)" d="M1467.63 1548.76 L1467.63 1551.62 L1440.7 1551.62 Q1441.08 1557.67 1444.33 1560.85 Q1447.61 1564 1453.43 1564 Q1456.81 1564 1459.96 1563.17 Q1463.14 1562.35 1466.26 1560.69 L1466.26 1566.23 Q1463.11 1567.57 1459.8 1568.27 Q1456.49 1568.97 1453.08 1568.97 Q1444.55 1568.97 1439.56 1564 Q1434.59 1559.04 1434.59 1550.57 Q1434.59 1541.82 1439.3 1536.69 Q1444.04 1531.54 1452.06 1531.54 Q1459.26 1531.54 1463.43 1536.18 Q1467.63 1540.8 1467.63 1548.76 M1461.77 1547.04 Q1461.71 1542.23 1459.07 1539.37 Q1456.46 1536.5 1452.13 1536.5 Q1447.23 1536.5 1444.27 1539.27 Q1441.34 1542.04 1440.89 1547.07 L1461.77 1547.04 Z" fill="#000000" fill-rule="nonzero" fill-opacity="1" /><polyline clip-path="url(#clip340)" style="stroke:#000000; stroke-linecap:round; stroke-linejoin:round; stroke-width:4; stroke-opacity:1; fill:none" points="175.445,1423.18 175.445,123.472 "/>
<polyline clip-path="url(#clip340)" style="stroke:#000000; stroke-linecap:round; stroke-linejoin:round; stroke-width:4; stroke-opacity:1; fill:none" points="175.445,1423.18 194.343,1423.18 "/>
<polyline clip-path="url(#clip340)" style="stroke:#000000; stroke-linecap:round; stroke-linejoin:round; stroke-width:4; stroke-opacity:1; fill:none" points="175.445,1173.24 194.343,1173.24 "/>
<polyline clip-path="url(#clip340)" style="stroke:#000000; stroke-linecap:round; stroke-linejoin:round; stroke-width:4; stroke-opacity:1; fill:none" points="175.445,923.292 194.343,923.292 "/>
<polyline clip-path="url(#clip340)" style="stroke:#000000; stroke-linecap:round; stroke-linejoin:round; stroke-width:4; stroke-opacity:1; fill:none" points="175.445,673.348 194.343,673.348 "/>
<polyline clip-path="url(#clip340)" style="stroke:#000000; stroke-linecap:round; stroke-linejoin:round; stroke-width:4; stroke-opacity:1; fill:none" points="175.445,423.405 194.343,423.405 "/>
<polyline clip-path="url(#clip340)" style="stroke:#000000; stroke-linecap:round; stroke-linejoin:round; stroke-width:4; stroke-opacity:1; fill:none" points="175.445,173.461 194.343,173.461 "/>
<path clip-path="url(#clip340)" d="M127.501 1408.98 Q123.89 1408.98 122.061 1412.54 Q120.255 1416.08 120.255 1423.21 Q120.255 1430.32 122.061 1433.89 Q123.89 1437.43 127.501 1437.43 Q131.135 1437.43 132.941 1433.89 Q134.769 1430.32 134.769 1423.21 Q134.769 1416.08 132.941 1412.54 Q131.135 1408.98 127.501 1408.98 M127.501 1405.27 Q133.311 1405.27 136.367 1409.88 Q139.445 1414.46 139.445 1423.21 Q139.445 1431.94 136.367 1436.55 Q133.311 1441.13 127.501 1441.13 Q121.691 1441.13 118.612 1436.55 Q115.556 1431.94 115.556 1423.21 Q115.556 1414.46 118.612 1409.88 Q121.691 1405.27 127.501 1405.27 Z" fill="#000000" fill-rule="nonzero" fill-opacity="1" /><path clip-path="url(#clip340)" d="M119.538 1186.58 L127.177 1186.58 L127.177 1160.22 L118.867 1161.88 L118.867 1157.62 L127.13 1155.96 L131.806 1155.96 L131.806 1186.58 L139.445 1186.58 L139.445 1190.52 L119.538 1190.52 L119.538 1186.58 Z" fill="#000000" fill-rule="nonzero" fill-opacity="1" /><path clip-path="url(#clip340)" d="M123.126 936.637 L139.445 936.637 L139.445 940.572 L117.501 940.572 L117.501 936.637 Q120.163 933.882 124.746 929.253 Q129.353 924.6 130.533 923.258 Q132.779 920.734 133.658 918.998 Q134.561 917.239 134.561 915.549 Q134.561 912.795 132.617 911.059 Q130.695 909.322 127.593 909.322 Q125.394 909.322 122.941 910.086 Q120.51 910.85 117.732 912.401 L117.732 907.679 Q120.556 906.545 123.01 905.966 Q125.464 905.387 127.501 905.387 Q132.871 905.387 136.066 908.072 Q139.26 910.758 139.26 915.248 Q139.26 917.378 138.45 919.299 Q137.663 921.197 135.556 923.79 Q134.978 924.461 131.876 927.679 Q128.774 930.873 123.126 936.637 Z" fill="#000000" fill-rule="nonzero" fill-opacity="1" /><path clip-path="url(#clip340)" d="M132.316 671.994 Q135.672 672.712 137.547 674.98 Q139.445 677.249 139.445 680.582 Q139.445 685.698 135.927 688.499 Q132.408 691.3 125.927 691.3 Q123.751 691.3 121.436 690.86 Q119.144 690.443 116.691 689.587 L116.691 685.073 Q118.635 686.207 120.95 686.786 Q123.265 687.365 125.788 687.365 Q130.186 687.365 132.478 685.628 Q134.792 683.892 134.792 680.582 Q134.792 677.527 132.64 675.814 Q130.51 674.078 126.691 674.078 L122.663 674.078 L122.663 670.235 L126.876 670.235 Q130.325 670.235 132.154 668.869 Q133.982 667.48 133.982 664.888 Q133.982 662.226 132.084 660.814 Q130.209 659.379 126.691 659.379 Q124.769 659.379 122.57 659.795 Q120.371 660.212 117.732 661.092 L117.732 656.925 Q120.394 656.184 122.709 655.814 Q125.047 655.443 127.107 655.443 Q132.431 655.443 135.533 657.874 Q138.635 660.281 138.635 664.402 Q138.635 667.272 136.992 669.263 Q135.348 671.23 132.316 671.994 Z" fill="#000000" fill-rule="nonzero" fill-opacity="1" /><path clip-path="url(#clip340)" d="M129.862 410.199 L118.056 428.648 L129.862 428.648 L129.862 410.199 M128.635 406.125 L134.515 406.125 L134.515 428.648 L139.445 428.648 L139.445 432.537 L134.515 432.537 L134.515 440.685 L129.862 440.685 L129.862 432.537 L114.26 432.537 L114.26 428.023 L128.635 406.125 Z" fill="#000000" fill-rule="nonzero" fill-opacity="1" /><path clip-path="url(#clip340)" d="M118.543 156.181 L136.899 156.181 L136.899 160.116 L122.825 160.116 L122.825 168.588 Q123.843 168.241 124.862 168.079 Q125.88 167.894 126.899 167.894 Q132.686 167.894 136.066 171.065 Q139.445 174.236 139.445 179.653 Q139.445 185.232 135.973 188.333 Q132.501 191.412 126.181 191.412 Q124.005 191.412 121.737 191.042 Q119.492 190.671 117.084 189.931 L117.084 185.232 Q119.168 186.366 121.39 186.921 Q123.612 187.477 126.089 187.477 Q130.093 187.477 132.431 185.371 Q134.769 183.264 134.769 179.653 Q134.769 176.042 132.431 173.935 Q130.093 171.829 126.089 171.829 Q124.214 171.829 122.339 172.246 Q120.487 172.662 118.543 173.542 L118.543 156.181 Z" fill="#000000" fill-rule="nonzero" fill-opacity="1" /><path clip-path="url(#clip340)" d="M21.7677 886.636 L58.7206 886.636 L58.7206 878.869 Q58.7206 869.034 54.2646 864.483 Q49.8086 859.9 40.1964 859.9 Q30.6479 859.9 26.2237 864.483 Q21.7677 869.034 21.7677 878.869 L21.7677 886.636 M16.4842 893.065 L16.4842 879.856 Q16.4842 866.043 22.2451 859.581 Q27.9743 853.12 40.1964 853.12 Q52.4822 853.12 58.2432 859.613 Q64.0042 866.106 64.0042 879.856 L64.0042 893.065 L16.4842 893.065 Z" fill="#000000" fill-rule="nonzero" fill-opacity="1" /><path clip-path="url(#clip340)" d="M44.7161 812.634 L47.5806 812.634 L47.5806 839.561 Q53.6281 839.179 56.8109 835.933 Q59.9619 832.654 59.9619 826.83 Q59.9619 823.456 59.1344 820.305 Q58.3069 817.122 56.6518 814.003 L62.1899 814.003 Q63.5267 817.154 64.227 820.464 Q64.9272 823.774 64.9272 827.18 Q64.9272 835.71 59.9619 840.707 Q54.9967 845.672 46.5303 845.672 Q37.7774 845.672 32.6531 840.962 Q27.4968 836.219 27.4968 828.198 Q27.4968 821.005 32.1438 816.836 Q36.7589 812.634 44.7161 812.634 M42.9973 818.491 Q38.1912 818.554 35.3266 821.196 Q32.4621 823.806 32.4621 828.135 Q32.4621 833.036 35.2312 835.996 Q38.0002 838.925 43.0292 839.37 L42.9973 818.491 Z" fill="#000000" fill-rule="nonzero" fill-opacity="1" /><path clip-path="url(#clip340)" d="M42.4881 773.39 L64.0042 773.39 L64.0042 779.246 L42.679 779.246 Q37.6183 779.246 35.1038 781.219 Q32.5894 783.193 32.5894 787.14 Q32.5894 791.882 35.6131 794.619 Q38.6368 797.357 43.8567 797.357 L64.0042 797.357 L64.0042 803.245 L28.3562 803.245 L28.3562 797.357 L33.8944 797.357 Q30.6797 795.256 29.0883 792.423 Q27.4968 789.559 27.4968 785.835 Q27.4968 779.692 31.3163 776.541 Q35.1038 773.39 42.4881 773.39 Z" fill="#000000" fill-rule="nonzero" fill-opacity="1" /><path clip-path="url(#clip340)" d="M29.4065 738.983 L34.9447 738.983 Q33.6716 741.466 33.035 744.139 Q32.3984 746.813 32.3984 749.677 Q32.3984 754.038 33.7352 756.234 Q35.072 758.398 37.7456 758.398 Q39.7826 758.398 40.9603 756.839 Q42.1061 755.279 43.1565 750.569 L43.6021 748.563 Q44.9389 742.325 47.3897 739.715 Q49.8086 737.073 54.1691 737.073 Q59.1344 737.073 62.0308 741.02 Q64.9272 744.935 64.9272 751.81 Q64.9272 754.674 64.3543 757.794 Q63.8132 760.881 62.6992 764.319 L56.6518 764.319 Q58.3387 761.072 59.198 757.921 Q60.0256 754.77 60.0256 751.683 Q60.0256 747.545 58.6251 745.317 Q57.1929 743.089 54.6147 743.089 Q52.2276 743.089 50.9545 744.712 Q49.6813 746.304 48.5037 751.746 L48.0262 753.783 Q46.8804 759.226 44.5251 761.645 Q42.138 764.064 38.0002 764.064 Q32.9713 764.064 30.2341 760.499 Q27.4968 756.934 27.4968 750.378 Q27.4968 747.131 27.9743 744.267 Q28.4517 741.402 29.4065 738.983 Z" fill="#000000" fill-rule="nonzero" fill-opacity="1" /><path clip-path="url(#clip340)" d="M28.3562 727.748 L28.3562 721.891 L64.0042 721.891 L64.0042 727.748 L28.3562 727.748 M14.479 727.748 L14.479 721.891 L21.895 721.891 L21.895 727.748 L14.479 727.748 Z" fill="#000000" fill-rule="nonzero" fill-opacity="1" /><path clip-path="url(#clip340)" d="M18.2347 703.844 L28.3562 703.844 L28.3562 691.781 L32.9077 691.781 L32.9077 703.844 L52.2594 703.844 Q56.6199 703.844 57.8613 702.667 Q59.1026 701.457 59.1026 697.797 L59.1026 691.781 L64.0042 691.781 L64.0042 697.797 Q64.0042 704.576 61.4897 707.154 Q58.9434 709.733 52.2594 709.733 L32.9077 709.733 L32.9077 714.029 L28.3562 714.029 L28.3562 709.733 L18.2347 709.733 L18.2347 703.844 Z" fill="#000000" fill-rule="nonzero" fill-opacity="1" /><path clip-path="url(#clip340)" d="M67.3143 669.247 Q73.68 671.729 75.6216 674.085 Q77.5631 676.44 77.5631 680.387 L77.5631 685.065 L72.6615 685.065 L72.6615 681.628 Q72.6615 679.209 71.5157 677.872 Q70.3699 676.535 66.1048 674.912 L63.4312 673.862 L28.3562 688.28 L28.3562 682.074 L56.238 670.934 L28.3562 659.794 L28.3562 653.587 L67.3143 669.247 Z" fill="#000000" fill-rule="nonzero" fill-opacity="1" /><path clip-path="url(#clip340)" d="M696.63 12.096 L704.812 12.096 L704.812 36.8875 L734.546 36.8875 L734.546 12.096 L742.729 12.096 L742.729 72.576 L734.546 72.576 L734.546 43.7741 L704.812 43.7741 L704.812 72.576 L696.63 72.576 L696.63 12.096 Z" fill="#000000" fill-rule="nonzero" fill-opacity="1" /><path clip-path="url(#clip340)" d="M758.689 27.2059 L766.143 27.2059 L766.143 72.576 L758.689 72.576 L758.689 27.2059 M758.689 9.54393 L766.143 9.54393 L766.143 18.9825 L758.689 18.9825 L758.689 9.54393 Z" fill="#000000" fill-rule="nonzero" fill-opacity="1" /><path clip-path="url(#clip340)" d="M810.663 28.5427 L810.663 35.5912 Q807.503 33.9709 804.1 33.1607 Q800.697 32.3505 797.052 32.3505 Q791.502 32.3505 788.707 34.0519 Q785.952 35.7533 785.952 39.156 Q785.952 41.7486 787.937 43.2475 Q789.922 44.7058 795.917 46.0426 L798.469 46.6097 Q806.409 48.3111 809.731 51.4303 Q813.093 54.509 813.093 60.0587 Q813.093 66.3781 808.07 70.0644 Q803.087 73.7508 794.337 73.7508 Q790.692 73.7508 786.722 73.0216 Q782.792 72.3329 778.417 70.9151 L778.417 63.2184 Q782.549 65.3654 786.56 66.4591 Q790.57 67.5124 794.499 67.5124 Q799.766 67.5124 802.601 65.73 Q805.437 63.9071 805.437 60.6258 Q805.437 57.5877 803.371 55.9673 Q801.346 54.3469 794.418 52.8481 L791.826 52.2405 Q784.899 50.7821 781.82 47.7845 Q778.741 44.7463 778.741 39.4801 Q778.741 33.0797 783.278 29.5959 Q787.815 26.1121 796.16 26.1121 Q800.292 26.1121 803.938 26.7198 Q807.584 27.3274 810.663 28.5427 Z" fill="#000000" fill-rule="nonzero" fill-opacity="1" /><path clip-path="url(#clip340)" d="M832.335 14.324 L832.335 27.2059 L847.688 27.2059 L847.688 32.9987 L832.335 32.9987 L832.335 57.6282 Q832.335 63.1779 833.834 64.7578 Q835.373 66.3376 840.032 66.3376 L847.688 66.3376 L847.688 72.576 L840.032 72.576 Q831.403 72.576 828.122 69.3758 Q824.841 66.1351 824.841 57.6282 L824.841 32.9987 L819.372 32.9987 L819.372 27.2059 L824.841 27.2059 L824.841 14.324 L832.335 14.324 Z" fill="#000000" fill-rule="nonzero" fill-opacity="1" /><path clip-path="url(#clip340)" d="M875.072 32.4315 Q869.077 32.4315 865.593 37.1306 Q862.109 41.7891 862.109 49.9314 Q862.109 58.0738 865.552 62.7728 Q869.036 67.4314 875.072 67.4314 Q881.027 67.4314 884.511 62.7323 Q887.994 58.0333 887.994 49.9314 Q887.994 41.8701 884.511 37.1711 Q881.027 32.4315 875.072 32.4315 M875.072 26.1121 Q884.794 26.1121 890.344 32.4315 Q895.894 38.7509 895.894 49.9314 Q895.894 61.0714 890.344 67.4314 Q884.794 73.7508 875.072 73.7508 Q865.309 73.7508 859.76 67.4314 Q854.25 61.0714 854.25 49.9314 Q854.25 38.7509 859.76 32.4315 Q865.309 26.1121 875.072 26.1121 Z" fill="#000000" fill-rule="nonzero" fill-opacity="1" /><path clip-path="url(#clip340)" d="M938.104 49.3643 Q938.104 41.2625 934.742 36.8065 Q931.42 32.3505 925.384 32.3505 Q919.389 32.3505 916.027 36.8065 Q912.705 41.2625 912.705 49.3643 Q912.705 57.4256 916.027 61.8816 Q919.389 66.3376 925.384 66.3376 Q931.42 66.3376 934.742 61.8816 Q938.104 57.4256 938.104 49.3643 M945.558 66.9452 Q945.558 78.5308 940.413 84.1616 Q935.268 89.8329 924.655 89.8329 Q920.726 89.8329 917.242 89.2252 Q913.758 88.6581 910.477 87.4428 L910.477 80.1917 Q913.758 81.9741 916.958 82.8248 Q920.159 83.6755 923.48 83.6755 Q930.812 83.6755 934.458 79.8271 Q938.104 76.0193 938.104 68.282 L938.104 64.5957 Q935.795 68.6061 932.19 70.5911 Q928.584 72.576 923.561 72.576 Q915.216 72.576 910.112 66.2161 Q905.008 59.8562 905.008 49.3643 Q905.008 38.832 910.112 32.472 Q915.216 26.1121 923.561 26.1121 Q928.584 26.1121 932.19 28.0971 Q935.795 30.082 938.104 34.0924 L938.104 27.2059 L945.558 27.2059 L945.558 66.9452 Z" fill="#000000" fill-rule="nonzero" fill-opacity="1" /><path clip-path="url(#clip340)" d="M987.201 34.1734 Q985.945 33.4443 984.446 33.1202 Q982.988 32.7556 981.206 32.7556 Q974.886 32.7556 971.483 36.8875 Q968.121 40.9789 968.121 48.6757 L968.121 72.576 L960.627 72.576 L960.627 27.2059 L968.121 27.2059 L968.121 34.2544 Q970.471 30.1225 974.238 28.1376 Q978.005 26.1121 983.393 26.1121 Q984.163 26.1121 985.095 26.2337 Q986.026 26.3147 987.16 26.5172 L987.201 34.1734 Z" fill="#000000" fill-rule="nonzero" fill-opacity="1" /><path clip-path="url(#clip340)" d="M1015.64 49.7694 Q1006.6 49.7694 1003.12 51.8354 Q999.637 53.9013 999.637 58.8839 Q999.637 62.8538 1002.23 65.2034 Q1004.86 67.5124 1009.36 67.5124 Q1015.56 67.5124 1019.28 63.1374 Q1023.05 58.7219 1023.05 51.4303 L1023.05 49.7694 L1015.64 49.7694 M1030.51 46.6907 L1030.51 72.576 L1023.05 72.576 L1023.05 65.6895 Q1020.5 69.8214 1016.69 71.8063 Q1012.88 73.7508 1007.37 73.7508 Q1000.41 73.7508 996.275 69.8619 Q992.184 65.9325 992.184 59.3701 Q992.184 51.7138 997.288 47.825 Q1002.43 43.9361 1012.6 43.9361 L1023.05 43.9361 L1023.05 43.2069 Q1023.05 38.0623 1019.65 35.2672 Q1016.29 32.4315 1010.17 32.4315 Q1006.28 32.4315 1002.59 33.3632 Q998.908 34.295 995.505 36.1584 L995.505 29.2718 Q999.597 27.692 1003.45 26.9223 Q1007.29 26.1121 1010.94 26.1121 Q1020.78 26.1121 1025.64 31.2163 Q1030.51 36.3204 1030.51 46.6907 Z" fill="#000000" fill-rule="nonzero" fill-opacity="1" /><path clip-path="url(#clip340)" d="M1081.18 35.9153 Q1083.98 30.8922 1087.87 28.5022 Q1091.75 26.1121 1097.02 26.1121 Q1104.11 26.1121 1107.96 31.0947 Q1111.81 36.0368 1111.81 45.1919 L1111.81 72.576 L1104.31 72.576 L1104.31 45.4349 Q1104.31 38.913 1102 35.7533 Q1099.69 32.5936 1094.96 32.5936 Q1089.16 32.5936 1085.8 36.4419 Q1082.44 40.2903 1082.44 46.9338 L1082.44 72.576 L1074.94 72.576 L1074.94 45.4349 Q1074.94 38.8725 1072.63 35.7533 Q1070.33 32.5936 1065.5 32.5936 Q1059.79 32.5936 1056.43 36.4824 Q1053.07 40.3308 1053.07 46.9338 L1053.07 72.576 L1045.57 72.576 L1045.57 27.2059 L1053.07 27.2059 L1053.07 34.2544 Q1055.62 30.082 1059.19 28.0971 Q1062.75 26.1121 1067.65 26.1121 Q1072.59 26.1121 1076.04 28.6237 Q1079.52 31.1352 1081.18 35.9153 Z" fill="#000000" fill-rule="nonzero" fill-opacity="1" /><path clip-path="url(#clip340)" d="M1170.63 32.4315 Q1164.63 32.4315 1161.15 37.1306 Q1157.66 41.7891 1157.66 49.9314 Q1157.66 58.0738 1161.11 62.7728 Q1164.59 67.4314 1170.63 67.4314 Q1176.58 67.4314 1180.06 62.7323 Q1183.55 58.0333 1183.55 49.9314 Q1183.55 41.8701 1180.06 37.1711 Q1176.58 32.4315 1170.63 32.4315 M1170.63 26.1121 Q1180.35 26.1121 1185.9 32.4315 Q1191.45 38.7509 1191.45 49.9314 Q1191.45 61.0714 1185.9 67.4314 Q1180.35 73.7508 1170.63 73.7508 Q1160.86 73.7508 1155.31 67.4314 Q1149.8 61.0714 1149.8 49.9314 Q1149.8 38.7509 1155.31 32.4315 Q1160.86 26.1121 1170.63 26.1121 Z" fill="#000000" fill-rule="nonzero" fill-opacity="1" /><path clip-path="url(#clip340)" d="M1226.77 9.54393 L1226.77 15.7418 L1219.64 15.7418 Q1215.63 15.7418 1214.05 17.3622 Q1212.51 18.9825 1212.51 23.1955 L1212.51 27.2059 L1224.79 27.2059 L1224.79 32.9987 L1212.51 32.9987 L1212.51 72.576 L1205.02 72.576 L1205.02 32.9987 L1197.89 32.9987 L1197.89 27.2059 L1205.02 27.2059 L1205.02 24.0462 Q1205.02 16.471 1208.54 13.0277 Q1212.07 9.54393 1219.72 9.54393 L1226.77 9.54393 Z" fill="#000000" fill-rule="nonzero" fill-opacity="1" /><path clip-path="url(#clip340)" d="M1254.32 12.096 L1262.58 12.096 L1275.3 63.2184 L1287.98 12.096 L1297.18 12.096 L1309.9 63.2184 L1322.58 12.096 L1330.88 12.096 L1315.69 72.576 L1305.4 72.576 L1292.64 20.0763 L1279.76 72.576 L1269.47 72.576 L1254.32 12.096 Z" fill="#000000" fill-rule="nonzero" fill-opacity="1" /><path clip-path="url(#clip340)" d="M1356.72 49.7694 Q1347.69 49.7694 1344.21 51.8354 Q1340.72 53.9013 1340.72 58.8839 Q1340.72 62.8538 1343.32 65.2034 Q1345.95 67.5124 1350.45 67.5124 Q1356.64 67.5124 1360.37 63.1374 Q1364.14 58.7219 1364.14 51.4303 L1364.14 49.7694 L1356.72 49.7694 M1371.59 46.6907 L1371.59 72.576 L1364.14 72.576 L1364.14 65.6895 Q1361.59 69.8214 1357.78 71.8063 Q1353.97 73.7508 1348.46 73.7508 Q1341.49 73.7508 1337.36 69.8619 Q1333.27 65.9325 1333.27 59.3701 Q1333.27 51.7138 1338.37 47.825 Q1343.52 43.9361 1353.69 43.9361 L1364.14 43.9361 L1364.14 43.2069 Q1364.14 38.0623 1360.73 35.2672 Q1357.37 32.4315 1351.26 32.4315 Q1347.37 32.4315 1343.68 33.3632 Q1339.99 34.295 1336.59 36.1584 L1336.59 29.2718 Q1340.68 27.692 1344.53 26.9223 Q1348.38 26.1121 1352.03 26.1121 Q1361.87 26.1121 1366.73 31.2163 Q1371.59 36.3204 1371.59 46.6907 Z" fill="#000000" fill-rule="nonzero" fill-opacity="1" /><path clip-path="url(#clip340)" d="M1386.94 27.2059 L1394.4 27.2059 L1394.4 72.576 L1386.94 72.576 L1386.94 27.2059 M1386.94 9.54393 L1394.4 9.54393 L1394.4 18.9825 L1386.94 18.9825 L1386.94 9.54393 Z" fill="#000000" fill-rule="nonzero" fill-opacity="1" /><path clip-path="url(#clip340)" d="M1417.37 14.324 L1417.37 27.2059 L1432.72 27.2059 L1432.72 32.9987 L1417.37 32.9987 L1417.37 57.6282 Q1417.37 63.1779 1418.87 64.7578 Q1420.4 66.3376 1425.06 66.3376 L1432.72 66.3376 L1432.72 72.576 L1425.06 72.576 Q1416.43 72.576 1413.15 69.3758 Q1409.87 66.1351 1409.87 57.6282 L1409.87 32.9987 L1404.4 32.9987 L1404.4 27.2059 L1409.87 27.2059 L1409.87 14.324 L1417.37 14.324 Z" fill="#000000" fill-rule="nonzero" fill-opacity="1" /><path clip-path="url(#clip340)" d="M1442.52 27.2059 L1449.98 27.2059 L1449.98 72.576 L1442.52 72.576 L1442.52 27.2059 M1442.52 9.54393 L1449.98 9.54393 L1449.98 18.9825 L1442.52 18.9825 L1442.52 9.54393 Z" fill="#000000" fill-rule="nonzero" fill-opacity="1" /><path clip-path="url(#clip340)" d="M1503.29 45.1919 L1503.29 72.576 L1495.83 72.576 L1495.83 45.4349 Q1495.83 38.994 1493.32 35.7938 Q1490.81 32.5936 1485.79 32.5936 Q1479.75 32.5936 1476.27 36.4419 Q1472.78 40.2903 1472.78 46.9338 L1472.78 72.576 L1465.29 72.576 L1465.29 27.2059 L1472.78 27.2059 L1472.78 34.2544 Q1475.46 30.163 1479.06 28.1376 Q1482.71 26.1121 1487.45 26.1121 Q1495.27 26.1121 1499.28 30.9732 Q1503.29 35.7938 1503.29 45.1919 Z" fill="#000000" fill-rule="nonzero" fill-opacity="1" /><path clip-path="url(#clip340)" d="M1548.01 49.3643 Q1548.01 41.2625 1544.65 36.8065 Q1541.32 32.3505 1535.29 32.3505 Q1529.29 32.3505 1525.93 36.8065 Q1522.61 41.2625 1522.61 49.3643 Q1522.61 57.4256 1525.93 61.8816 Q1529.29 66.3376 1535.29 66.3376 Q1541.32 66.3376 1544.65 61.8816 Q1548.01 57.4256 1548.01 49.3643 M1555.46 66.9452 Q1555.46 78.5308 1550.32 84.1616 Q1545.17 89.8329 1534.56 89.8329 Q1530.63 89.8329 1527.15 89.2252 Q1523.66 88.6581 1520.38 87.4428 L1520.38 80.1917 Q1523.66 81.9741 1526.86 82.8248 Q1530.06 83.6755 1533.38 83.6755 Q1540.72 83.6755 1544.36 79.8271 Q1548.01 76.0193 1548.01 68.282 L1548.01 64.5957 Q1545.7 68.6061 1542.09 70.5911 Q1538.49 72.576 1533.47 72.576 Q1525.12 72.576 1520.02 66.2161 Q1514.91 59.8562 1514.91 49.3643 Q1514.91 38.832 1520.02 32.472 Q1525.12 26.1121 1533.47 26.1121 Q1538.49 26.1121 1542.09 28.0971 Q1545.7 30.082 1548.01 34.0924 L1548.01 27.2059 L1555.46 27.2059 L1555.46 66.9452 Z" fill="#000000" fill-rule="nonzero" fill-opacity="1" /><path clip-path="url(#clip340)" d="M1589.12 12.096 L1640.29 12.096 L1640.29 18.9825 L1618.82 18.9825 L1618.82 72.576 L1610.59 72.576 L1610.59 18.9825 L1589.12 18.9825 L1589.12 12.096 Z" fill="#000000" fill-rule="nonzero" fill-opacity="1" /><path clip-path="url(#clip340)" d="M1645.31 27.2059 L1652.76 27.2059 L1652.76 72.576 L1645.31 72.576 L1645.31 27.2059 M1645.31 9.54393 L1652.76 9.54393 L1652.76 18.9825 L1645.31 18.9825 L1645.31 9.54393 Z" fill="#000000" fill-rule="nonzero" fill-opacity="1" /><path clip-path="url(#clip340)" d="M1703.68 35.9153 Q1706.48 30.8922 1710.37 28.5022 Q1714.26 26.1121 1719.52 26.1121 Q1726.61 26.1121 1730.46 31.0947 Q1734.31 36.0368 1734.31 45.1919 L1734.31 72.576 L1726.82 72.576 L1726.82 45.4349 Q1726.82 38.913 1724.51 35.7533 Q1722.2 32.5936 1717.46 32.5936 Q1711.66 32.5936 1708.3 36.4419 Q1704.94 40.2903 1704.94 46.9338 L1704.94 72.576 L1697.45 72.576 L1697.45 45.4349 Q1697.45 38.8725 1695.14 35.7533 Q1692.83 32.5936 1688.01 32.5936 Q1682.3 32.5936 1678.93 36.4824 Q1675.57 40.3308 1675.57 46.9338 L1675.57 72.576 L1668.08 72.576 L1668.08 27.2059 L1675.57 27.2059 L1675.57 34.2544 Q1678.12 30.082 1681.69 28.0971 Q1685.25 26.1121 1690.15 26.1121 Q1695.1 26.1121 1698.54 28.6237 Q1702.02 31.1352 1703.68 35.9153 Z" fill="#000000" fill-rule="nonzero" fill-opacity="1" /><path clip-path="url(#clip340)" d="M1787.98 48.0275 L1787.98 51.6733 L1753.71 51.6733 Q1754.2 59.3701 1758.33 63.421 Q1762.5 67.4314 1769.92 67.4314 Q1774.21 67.4314 1778.22 66.3781 Q1782.27 65.3249 1786.24 63.2184 L1786.24 70.267 Q1782.23 71.9684 1778.02 72.8596 Q1773.81 73.7508 1769.47 73.7508 Q1758.61 73.7508 1752.25 67.4314 Q1745.94 61.1119 1745.94 50.3365 Q1745.94 39.1965 1751.93 32.6746 Q1757.97 26.1121 1768.17 26.1121 Q1777.33 26.1121 1782.64 32.0264 Q1787.98 37.9003 1787.98 48.0275 M1780.53 45.84 Q1780.45 39.7232 1777.09 36.0774 Q1773.77 32.4315 1768.26 32.4315 Q1762.02 32.4315 1758.25 35.9558 Q1754.52 39.4801 1753.96 45.8805 L1780.53 45.84 Z" fill="#000000" fill-rule="nonzero" fill-opacity="1" /><path clip-path="url(#clip340)" d="M1829.14 28.5427 L1829.14 35.5912 Q1825.98 33.9709 1822.58 33.1607 Q1819.18 32.3505 1815.53 32.3505 Q1809.98 32.3505 1807.19 34.0519 Q1804.43 35.7533 1804.43 39.156 Q1804.43 41.7486 1806.42 43.2475 Q1808.4 44.7058 1814.4 46.0426 L1816.95 46.6097 Q1824.89 48.3111 1828.21 51.4303 Q1831.57 54.509 1831.57 60.0587 Q1831.57 66.3781 1826.55 70.0644 Q1821.57 73.7508 1812.82 73.7508 Q1809.17 73.7508 1805.2 73.0216 Q1801.27 72.3329 1796.9 70.9151 L1796.9 63.2184 Q1801.03 65.3654 1805.04 66.4591 Q1809.05 67.5124 1812.98 67.5124 Q1818.24 67.5124 1821.08 65.73 Q1823.92 63.9071 1823.92 60.6258 Q1823.92 57.5877 1821.85 55.9673 Q1819.82 54.3469 1812.9 52.8481 L1810.3 52.2405 Q1803.38 50.7821 1800.3 47.7845 Q1797.22 44.7463 1797.22 39.4801 Q1797.22 33.0797 1801.76 29.5959 Q1806.29 26.1121 1814.64 26.1121 Q1818.77 26.1121 1822.42 26.7198 Q1826.06 27.3274 1829.14 28.5427 Z" fill="#000000" fill-rule="nonzero" fill-opacity="1" /><path clip-path="url(#clip341)" d="M437.074 723.337 L437.074 1423.18 L637.08 1423.18 L637.08 723.337 L437.074 723.337 L437.074 723.337  Z" fill="#009af9" fill-rule="evenodd" fill-opacity="1"/>
<polyline clip-path="url(#clip341)" style="stroke:#000000; stroke-linecap:round; stroke-linejoin:round; stroke-width:4; stroke-opacity:1; fill:none" points="437.074,723.337 437.074,1423.18 637.08,1423.18 637.08,723.337 437.074,723.337 "/>
<path clip-path="url(#clip341)" d="M637.08 123.472 L637.08 1423.18 L837.087 1423.18 L837.087 123.472 L637.08 123.472 L637.08 123.472  Z" fill="#009af9" fill-rule="evenodd" fill-opacity="1"/>
<polyline clip-path="url(#clip341)" style="stroke:#000000; stroke-linecap:round; stroke-linejoin:round; stroke-width:4; stroke-opacity:1; fill:none" points="637.08,123.472 637.08,1423.18 837.087,1423.18 837.087,123.472 637.08,123.472 "/>
<path clip-path="url(#clip341)" d="M837.087 123.472 L837.087 1423.18 L1037.09 1423.18 L1037.09 123.472 L837.087 123.472 L837.087 123.472  Z" fill="#009af9" fill-rule="evenodd" fill-opacity="1"/>
<polyline clip-path="url(#clip341)" style="stroke:#000000; stroke-linecap:round; stroke-linejoin:round; stroke-width:4; stroke-opacity:1; fill:none" points="837.087,123.472 837.087,1423.18 1037.09,1423.18 1037.09,123.472 837.087,123.472 "/>
<path clip-path="url(#clip341)" d="M1037.09 923.292 L1037.09 1423.18 L1237.1 1423.18 L1237.1 923.292 L1037.09 923.292 L1037.09 923.292  Z" fill="#009af9" fill-rule="evenodd" fill-opacity="1"/>
<polyline clip-path="url(#clip341)" style="stroke:#000000; stroke-linecap:round; stroke-linejoin:round; stroke-width:4; stroke-opacity:1; fill:none" points="1037.09,923.292 1037.09,1423.18 1237.1,1423.18 1237.1,923.292 1037.09,923.292 "/>
<path clip-path="url(#clip341)" d="M1237.1 923.292 L1237.1 1423.18 L1437.11 1423.18 L1437.11 923.292 L1237.1 923.292 L1237.1 923.292  Z" fill="#009af9" fill-rule="evenodd" fill-opacity="1"/>
<polyline clip-path="url(#clip341)" style="stroke:#000000; stroke-linecap:round; stroke-linejoin:round; stroke-width:4; stroke-opacity:1; fill:none" points="1237.1,923.292 1237.1,1423.18 1437.11,1423.18 1437.11,923.292 1237.1,923.292 "/>
<path clip-path="url(#clip341)" d="M1437.11 1323.2 L1437.11 1423.18 L1637.11 1423.18 L1637.11 1323.2 L1437.11 1323.2 L1437.11 1323.2  Z" fill="#009af9" fill-rule="evenodd" fill-opacity="1"/>
<polyline clip-path="url(#clip341)" style="stroke:#000000; stroke-linecap:round; stroke-linejoin:round; stroke-width:4; stroke-opacity:1; fill:none" points="1437.11,1323.2 1437.11,1423.18 1637.11,1423.18 1637.11,1323.2 1437.11,1323.2 "/>
<path clip-path="url(#clip341)" d="M1637.11 1023.27 L1637.11 1423.18 L1837.12 1423.18 L1837.12 1023.27 L1637.11 1023.27 L1637.11 1023.27  Z" fill="#009af9" fill-rule="evenodd" fill-opacity="1"/>
<polyline clip-path="url(#clip341)" style="stroke:#000000; stroke-linecap:round; stroke-linejoin:round; stroke-width:4; stroke-opacity:1; fill:none" points="1637.11,1023.27 1637.11,1423.18 1837.12,1423.18 1837.12,1023.27 1637.11,1023.27 "/>
<path clip-path="url(#clip341)" d="M1837.12 1323.2 L1837.12 1423.18 L2037.13 1423.18 L2037.13 1323.2 L1837.12 1323.2 L1837.12 1323.2  Z" fill="#009af9" fill-rule="evenodd" fill-opacity="1"/>
<polyline clip-path="url(#clip341)" style="stroke:#000000; stroke-linecap:round; stroke-linejoin:round; stroke-width:4; stroke-opacity:1; fill:none" points="1837.12,1323.2 1837.12,1423.18 2037.13,1423.18 2037.13,1323.2 1837.12,1323.2 "/>
<path clip-path="url(#clip341)" d="M2037.13 1323.2 L2037.13 1423.18 L2237.13 1423.18 L2237.13 1323.2 L2037.13 1323.2 L2037.13 1323.2  Z" fill="#009af9" fill-rule="evenodd" fill-opacity="1"/>
<polyline clip-path="url(#clip341)" style="stroke:#000000; stroke-linecap:round; stroke-linejoin:round; stroke-width:4; stroke-opacity:1; fill:none" points="2037.13,1323.2 2037.13,1423.18 2237.13,1423.18 2237.13,1323.2 2037.13,1323.2 "/>
<circle clip-path="url(#clip341)" style="fill:#009af9; stroke:none; fill-opacity:0" cx="537.077" cy="723.337" r="2"/>
<circle clip-path="url(#clip341)" style="fill:#009af9; stroke:none; fill-opacity:0" cx="737.083" cy="123.472" r="2"/>
<circle clip-path="url(#clip341)" style="fill:#009af9; stroke:none; fill-opacity:0" cx="937.09" cy="123.472" r="2"/>
<circle clip-path="url(#clip341)" style="fill:#009af9; stroke:none; fill-opacity:0" cx="1137.1" cy="923.292" r="2"/>
<circle clip-path="url(#clip341)" style="fill:#009af9; stroke:none; fill-opacity:0" cx="1337.1" cy="923.292" r="2"/>
<circle clip-path="url(#clip341)" style="fill:#009af9; stroke:none; fill-opacity:0" cx="1537.11" cy="1323.2" r="2"/>
<circle clip-path="url(#clip341)" style="fill:#009af9; stroke:none; fill-opacity:0" cx="1737.12" cy="1023.27" r="2"/>
<circle clip-path="url(#clip341)" style="fill:#009af9; stroke:none; fill-opacity:0" cx="1937.12" cy="1323.2" r="2"/>
<circle clip-path="url(#clip341)" style="fill:#009af9; stroke:none; fill-opacity:0" cx="2137.13" cy="1323.2" r="2"/>
<polyline clip-path="url(#clip341)" style="stroke:#ff0000; stroke-linecap:round; stroke-linejoin:round; stroke-width:8; stroke-opacity:1; fill:none" points="237.067,254.353 241.65,260.599 246.233,266.811 250.816,272.99 255.399,279.135 259.981,285.248 264.564,291.328 269.147,297.376 273.73,303.392 278.313,309.375 282.896,315.326 287.479,321.246 292.061,327.134 296.644,332.99 301.227,338.815 305.81,344.609 310.393,350.373 314.976,356.105 319.558,361.806 324.141,367.478 328.724,373.119 333.307,378.729 337.89,384.31 342.473,389.861 347.055,395.382 351.638,400.874 356.221,406.336 360.804,411.77 365.387,417.174 369.97,422.549 374.553,427.896 379.135,433.214 383.718,438.504 388.301,443.765 392.884,448.998 397.467,454.204 402.05,459.381 406.632,464.531 411.215,469.653 415.798,474.748 420.381,479.816 424.964,484.856 429.547,489.87 434.13,494.857 438.712,499.817 443.295,504.751 447.878,509.659 452.461,514.54 457.044,519.395 461.627,524.224 466.209,529.027 470.792,533.805 475.375,538.557 479.958,543.284 484.541,547.985 489.124,552.662 493.707,557.313 498.289,561.94 502.872,566.542 507.455,571.119 512.038,575.672 516.621,580.2 521.204,584.704 525.786,589.184 530.369,593.641 534.952,598.073 539.535,602.482 544.118,606.867 548.701,611.229 553.284,615.567 557.866,619.883 562.449,624.175 567.032,628.444 571.615,632.691 576.198,636.914 580.781,641.116 585.363,645.294 589.946,649.451 594.529,653.585 599.112,657.697 603.695,661.787 608.278,665.856 612.861,669.902 617.443,673.927 622.026,677.931 626.609,681.913 631.192,685.873 635.775,689.813 640.358,693.732 644.94,697.629 649.523,701.506 654.106,705.362 658.689,709.198 663.272,713.013 667.855,716.807 672.437,720.582 677.02,724.336 681.603,728.07 686.186,731.784 690.769,735.478 695.352,739.153 699.935,742.808 704.517,746.443 709.1,750.059 713.683,753.656 718.266,757.233 722.849,760.792 727.432,764.331 732.014,767.851 736.597,771.353 741.18,774.836 745.763,778.3 750.346,781.746 754.929,785.173 759.512,788.582 764.094,791.973 768.677,795.346 773.26,798.7 777.843,802.037 782.426,805.356 787.009,808.657 791.591,811.941 796.174,815.207 800.757,818.455 805.34,821.687 809.923,824.9 814.506,828.097 819.089,831.277 823.671,834.44 828.254,837.585 832.837,840.714 837.42,843.827 842.003,846.922 846.586,850.001 851.168,853.064 855.751,856.11 860.334,859.14 864.917,862.154 869.5,865.152 874.083,868.133 878.666,871.099 883.248,874.049 887.831,876.983 892.414,879.902 896.997,882.805 901.58,885.692 906.163,888.564 910.745,891.42 915.328,894.262 919.911,897.088 924.494,899.899 929.077,902.695 933.66,905.476 938.243,908.242 942.825,910.994 947.408,913.731 951.991,916.453 956.574,919.16 961.157,921.853 965.74,924.532 970.322,927.196 974.905,929.847 979.488,932.483 984.071,935.105 988.654,937.712 993.237,940.306 997.819,942.887 1002.4,945.453 1006.99,948.005 1011.57,950.544 1016.15,953.07 1020.73,955.582 1025.32,958.08 1029.9,960.565 1034.48,963.037 1039.07,965.496 1043.65,967.941 1048.23,970.374 1052.81,972.793 1057.4,975.2 1061.98,977.594 1066.56,979.974 1071.15,982.343 1075.73,984.698 1080.31,987.041 1084.89,989.371 1089.48,991.689 1094.06,993.995 1098.64,996.288 1103.22,998.569 1107.81,1000.84 1112.39,1003.09 1116.97,1005.34 1121.56,1007.57 1126.14,1009.79 1130.72,1012 1135.3,1014.2 1139.89,1016.38 1144.47,1018.56 1149.05,1020.72 1153.64,1022.87 1158.22,1025.01 1162.8,1027.14 1167.38,1029.25 1171.97,1031.36 1176.55,1033.45 1181.13,1035.53 1185.72,1037.6 1190.3,1039.66 1194.88,1041.71 1199.46,1043.75 1204.05,1045.78 1208.63,1047.8 1213.21,1049.8 1217.8,1051.8 1222.38,1053.78 1226.96,1055.76 1231.54,1057.72 1236.13,1059.67 1240.71,1061.61 1245.29,1063.55 1249.88,1065.47 1254.46,1067.38 1259.04,1069.28 1263.62,1071.17 1268.21,1073.05 1272.79,1074.92 1277.37,1076.78 1281.96,1078.63 1286.54,1080.48 1291.12,1082.31 1295.7,1084.13 1300.29,1085.94 1304.87,1087.74 1309.45,1089.53 1314.04,1091.32 1318.62,1093.09 1323.2,1094.85 1327.78,1096.61 1332.37,1098.35 1336.95,1100.09 1341.53,1101.81 1346.12,1103.53 1350.7,1105.24 1355.28,1106.94 1359.86,1108.63 1364.45,1110.31 1369.03,1111.98 1373.61,1113.64 1378.2,1115.3 1382.78,1116.94 1387.36,1118.58 1391.94,1120.21 1396.53,1121.83 1401.11,1123.44 1405.69,1125.04 1410.28,1126.63 1414.86,1128.21 1419.44,1129.79 1424.02,1131.36 1428.61,1132.92 1433.19,1134.47 1437.77,1136.01 1442.36,1137.55 1446.94,1139.07 1451.52,1140.59 1456.1,1142.1 1460.69,1143.6 1465.27,1145.1 1469.85,1146.58 1474.44,1148.06 1479.02,1149.53 1483.6,1150.99 1488.18,1152.45 1492.77,1153.89 1497.35,1155.33 1501.93,1156.76 1506.52,1158.19 1511.1,1159.6 1515.68,1161.01 1520.26,1162.41 1524.85,1163.8 1529.43,1165.19 1534.01,1166.57 1538.6,1167.94 1543.18,1169.3 1547.76,1170.66 1552.34,1172.01 1556.93,1173.35 1561.51,1174.69 1566.09,1176.01 1570.68,1177.34 1575.26,1178.65 1579.84,1179.96 1584.42,1181.26 1589.01,1182.55 1593.59,1183.83 1598.17,1185.11 1602.76,1186.38 1607.34,1187.65 1611.92,1188.91 1616.5,1190.16 1621.09,1191.41 1625.67,1192.64 1630.25,1193.88 1634.83,1195.1 1639.42,1196.32 1644,1197.53 1648.58,1198.74 1653.17,1199.94 1657.75,1201.13 1662.33,1202.32 1666.91,1203.5 1671.5,1204.67 1676.08,1205.84 1680.66,1207 1685.25,1208.15 1689.83,1209.3 1694.41,1210.45 1698.99,1211.58 1703.58,1212.71 1708.16,1213.84 1712.74,1214.96 1717.33,1216.07 1721.91,1217.18 1726.49,1218.28 1731.07,1219.37 1735.66,1220.46 1740.24,1221.54 1744.82,1222.62 1749.41,1223.69 1753.99,1224.76 1758.57,1225.82 1763.15,1226.87 1767.74,1227.92 1772.32,1228.96 1776.9,1230 1781.49,1231.03 1786.07,1232.06 1790.65,1233.08 1795.23,1234.1 1799.82,1235.11 1804.4,1236.11 1808.98,1237.11 1813.57,1238.11 1818.15,1239.1 1822.73,1240.08 1827.31,1241.06 1831.9,1242.03 1836.48,1243 1841.06,1243.96 1845.65,1244.92 1850.23,1245.87 1854.81,1246.82 1859.39,1247.76 1863.98,1248.7 1868.56,1249.63 1873.14,1250.56 1877.73,1251.48 1882.31,1252.4 1886.89,1253.31 1891.47,1254.22 1896.06,1255.12 1900.64,1256.02 1905.22,1256.91 1909.81,1257.8 1914.39,1258.68 1918.97,1259.56 1923.55,1260.44 1928.14,1261.31 1932.72,1262.17 1937.3,1263.03 1941.89,1263.89 1946.47,1264.74 1951.05,1265.59 1955.63,1266.43 1960.22,1267.27 1964.8,1268.1 1969.38,1268.93 1973.97,1269.75 1978.55,1270.57 1983.13,1271.39 1987.71,1272.2 1992.3,1273 1996.88,1273.81 2001.46,1274.61 2006.05,1275.4 2010.63,1276.19 2015.21,1276.97 2019.79,1277.76 2024.38,1278.53 2028.96,1279.31 2033.54,1280.07 2038.13,1280.84 2042.71,1281.6 2047.29,1282.36 2051.87,1283.11 2056.46,1283.86 2061.04,1284.6 2065.62,1285.34 "/>
<path clip-path="url(#clip340)" d="M1580.51 322.316 L2280.18 322.316 L2280.18 166.796 L1580.51 166.796  Z" fill="#ffffff" fill-rule="evenodd" fill-opacity="1"/>
<polyline clip-path="url(#clip340)" style="stroke:#000000; stroke-linecap:round; stroke-linejoin:round; stroke-width:4; stroke-opacity:1; fill:none" points="1580.51,322.316 2280.18,322.316 2280.18,166.796 1580.51,166.796 1580.51,322.316 "/>
<path clip-path="url(#clip340)" d="M1604.7 239.372 L1749.85 239.372 L1749.85 197.9 L1604.7 197.9 L1604.7 239.372  Z" fill="#009af9" fill-rule="evenodd" fill-opacity="1"/>
<polyline clip-path="url(#clip340)" style="stroke:#000000; stroke-linecap:round; stroke-linejoin:round; stroke-width:4; stroke-opacity:1; fill:none" points="1604.7,239.372 1749.85,239.372 1749.85,197.9 1604.7,197.9 1604.7,239.372 "/>
<path clip-path="url(#clip340)" d="M1774.04 201.356 L1795.9 201.356 L1795.9 205.291 L1778.72 205.291 L1778.72 215.522 L1795.18 215.522 L1795.18 219.457 L1778.72 219.457 L1778.72 231.981 L1796.31 231.981 L1796.31 235.916 L1774.04 235.916 L1774.04 201.356 Z" fill="#000000" fill-rule="nonzero" fill-opacity="1" /><path clip-path="url(#clip340)" d="M1824 214.967 Q1825.6 212.096 1827.82 210.731 Q1830.04 209.365 1833.05 209.365 Q1837.1 209.365 1839.3 212.212 Q1841.5 215.036 1841.5 220.268 L1841.5 235.916 L1837.22 235.916 L1837.22 220.407 Q1837.22 216.68 1835.9 214.874 Q1834.58 213.069 1831.87 213.069 Q1828.56 213.069 1826.64 215.268 Q1824.72 217.467 1824.72 221.263 L1824.72 235.916 L1820.43 235.916 L1820.43 220.407 Q1820.43 216.657 1819.11 214.874 Q1817.79 213.069 1815.04 213.069 Q1811.78 213.069 1809.85 215.291 Q1807.93 217.49 1807.93 221.263 L1807.93 235.916 L1803.65 235.916 L1803.65 209.99 L1807.93 209.99 L1807.93 214.018 Q1809.39 211.633 1811.43 210.499 Q1813.47 209.365 1816.27 209.365 Q1819.09 209.365 1821.06 210.8 Q1823.05 212.235 1824 214.967 Z" fill="#000000" fill-rule="nonzero" fill-opacity="1" /><path clip-path="url(#clip340)" d="M1854.11 232.027 L1854.11 245.777 L1849.83 245.777 L1849.83 209.99 L1854.11 209.99 L1854.11 213.925 Q1855.46 211.61 1857.49 210.499 Q1859.55 209.365 1862.4 209.365 Q1867.12 209.365 1870.06 213.115 Q1873.03 216.865 1873.03 222.976 Q1873.03 229.087 1870.06 232.837 Q1867.12 236.587 1862.4 236.587 Q1859.55 236.587 1857.49 235.476 Q1855.46 234.342 1854.11 232.027 M1868.6 222.976 Q1868.6 218.277 1866.66 215.615 Q1864.74 212.93 1861.36 212.93 Q1857.98 212.93 1856.03 215.615 Q1854.11 218.277 1854.11 222.976 Q1854.11 227.675 1856.03 230.36 Q1857.98 233.022 1861.36 233.022 Q1864.74 233.022 1866.66 230.36 Q1868.6 227.675 1868.6 222.976 Z" fill="#000000" fill-rule="nonzero" fill-opacity="1" /><path clip-path="url(#clip340)" d="M1880.09 209.99 L1884.35 209.99 L1884.35 235.916 L1880.09 235.916 L1880.09 209.99 M1880.09 199.897 L1884.35 199.897 L1884.35 205.291 L1880.09 205.291 L1880.09 199.897 Z" fill="#000000" fill-rule="nonzero" fill-opacity="1" /><path clip-path="url(#clip340)" d="M1908.28 213.971 Q1907.56 213.555 1906.71 213.37 Q1905.87 213.161 1904.85 213.161 Q1901.24 213.161 1899.3 215.522 Q1897.38 217.86 1897.38 222.258 L1897.38 235.916 L1893.09 235.916 L1893.09 209.99 L1897.38 209.99 L1897.38 214.018 Q1898.72 211.657 1900.87 210.522 Q1903.03 209.365 1906.1 209.365 Q1906.54 209.365 1907.08 209.434 Q1907.61 209.481 1908.26 209.596 L1908.28 213.971 Z" fill="#000000" fill-rule="nonzero" fill-opacity="1" /><path clip-path="url(#clip340)" d="M1912.75 209.99 L1917.01 209.99 L1917.01 235.916 L1912.75 235.916 L1912.75 209.99 M1912.75 199.897 L1917.01 199.897 L1917.01 205.291 L1912.75 205.291 L1912.75 199.897 Z" fill="#000000" fill-rule="nonzero" fill-opacity="1" /><path clip-path="url(#clip340)" d="M1944.58 210.985 L1944.58 214.967 Q1942.77 213.971 1940.94 213.485 Q1939.14 212.976 1937.28 212.976 Q1933.14 212.976 1930.85 215.615 Q1928.56 218.231 1928.56 222.976 Q1928.56 227.721 1930.85 230.36 Q1933.14 232.976 1937.28 232.976 Q1939.14 232.976 1940.94 232.49 Q1942.77 231.981 1944.58 230.985 L1944.58 234.92 Q1942.79 235.754 1940.87 236.17 Q1938.97 236.587 1936.82 236.587 Q1930.97 236.587 1927.52 232.906 Q1924.07 229.226 1924.07 222.976 Q1924.07 216.633 1927.54 212.999 Q1931.03 209.365 1937.1 209.365 Q1939.07 209.365 1940.94 209.782 Q1942.82 210.175 1944.58 210.985 Z" fill="#000000" fill-rule="nonzero" fill-opacity="1" /><path clip-path="url(#clip340)" d="M1963.77 222.883 Q1958.6 222.883 1956.61 224.064 Q1954.62 225.244 1954.62 228.092 Q1954.62 230.36 1956.1 231.703 Q1957.61 233.022 1960.18 233.022 Q1963.72 233.022 1965.85 230.522 Q1968 227.999 1968 223.832 L1968 222.883 L1963.77 222.883 M1972.26 221.124 L1972.26 235.916 L1968 235.916 L1968 231.981 Q1966.54 234.342 1964.37 235.476 Q1962.19 236.587 1959.04 236.587 Q1955.06 236.587 1952.7 234.365 Q1950.36 232.119 1950.36 228.369 Q1950.36 223.994 1953.28 221.772 Q1956.22 219.55 1962.03 219.55 L1968 219.55 L1968 219.133 Q1968 216.194 1966.06 214.596 Q1964.14 212.976 1960.64 212.976 Q1958.42 212.976 1956.31 213.508 Q1954.21 214.041 1952.26 215.106 L1952.26 211.17 Q1954.6 210.268 1956.8 209.828 Q1959 209.365 1961.08 209.365 Q1966.71 209.365 1969.48 212.282 Q1972.26 215.198 1972.26 221.124 Z" fill="#000000" fill-rule="nonzero" fill-opacity="1" /><path clip-path="url(#clip340)" d="M1981.03 199.897 L1985.29 199.897 L1985.29 235.916 L1981.03 235.916 L1981.03 199.897 Z" fill="#000000" fill-rule="nonzero" fill-opacity="1" /><polyline clip-path="url(#clip340)" style="stroke:#ff0000; stroke-linecap:round; stroke-linejoin:round; stroke-width:8; stroke-opacity:1; fill:none" points="1604.7,270.476 1749.85,270.476 "/>
<path clip-path="url(#clip340)" d="M1774.04 253.196 L1795.9 253.196 L1795.9 257.131 L1778.72 257.131 L1778.72 267.362 L1795.18 267.362 L1795.18 271.297 L1778.72 271.297 L1778.72 283.821 L1796.31 283.821 L1796.31 287.756 L1774.04 287.756 L1774.04 253.196 Z" fill="#000000" fill-rule="nonzero" fill-opacity="1" /><path clip-path="url(#clip340)" d="M1825.36 261.83 L1815.99 274.446 L1825.85 287.756 L1820.83 287.756 L1813.28 277.571 L1805.73 287.756 L1800.71 287.756 L1810.78 274.191 L1801.57 261.83 L1806.59 261.83 L1813.47 271.066 L1820.34 261.83 L1825.36 261.83 Z" fill="#000000" fill-rule="nonzero" fill-opacity="1" /><path clip-path="url(#clip340)" d="M1835.99 283.867 L1835.99 297.617 L1831.71 297.617 L1831.71 261.83 L1835.99 261.83 L1835.99 265.765 Q1837.33 263.45 1839.37 262.339 Q1841.43 261.205 1844.28 261.205 Q1849 261.205 1851.94 264.955 Q1854.9 268.705 1854.9 274.816 Q1854.9 280.927 1851.94 284.677 Q1849 288.427 1844.28 288.427 Q1841.43 288.427 1839.37 287.316 Q1837.33 286.182 1835.99 283.867 M1850.48 274.816 Q1850.48 270.117 1848.54 267.455 Q1846.61 264.77 1843.23 264.77 Q1839.85 264.77 1837.91 267.455 Q1835.99 270.117 1835.99 274.816 Q1835.99 279.515 1837.91 282.2 Q1839.85 284.862 1843.23 284.862 Q1846.61 284.862 1848.54 282.2 Q1850.48 279.515 1850.48 274.816 Z" fill="#000000" fill-rule="nonzero" fill-opacity="1" /><path clip-path="url(#clip340)" d="M1872.01 264.816 Q1868.58 264.816 1866.59 267.501 Q1864.6 270.163 1864.6 274.816 Q1864.6 279.469 1866.57 282.154 Q1868.56 284.816 1872.01 284.816 Q1875.41 284.816 1877.4 282.131 Q1879.39 279.446 1879.39 274.816 Q1879.39 270.21 1877.4 267.524 Q1875.41 264.816 1872.01 264.816 M1872.01 261.205 Q1877.56 261.205 1880.73 264.816 Q1883.91 268.427 1883.91 274.816 Q1883.91 281.182 1880.73 284.816 Q1877.56 288.427 1872.01 288.427 Q1866.43 288.427 1863.26 284.816 Q1860.11 281.182 1860.11 274.816 Q1860.11 268.427 1863.26 264.816 Q1866.43 261.205 1872.01 261.205 Z" fill="#000000" fill-rule="nonzero" fill-opacity="1" /><path clip-path="url(#clip340)" d="M1912.52 272.108 L1912.52 287.756 L1908.26 287.756 L1908.26 272.247 Q1908.26 268.566 1906.82 266.737 Q1905.39 264.909 1902.52 264.909 Q1899.07 264.909 1897.08 267.108 Q1895.09 269.307 1895.09 273.103 L1895.09 287.756 L1890.8 287.756 L1890.8 261.83 L1895.09 261.83 L1895.09 265.858 Q1896.61 263.52 1898.67 262.362 Q1900.76 261.205 1903.47 261.205 Q1907.93 261.205 1910.22 263.983 Q1912.52 266.737 1912.52 272.108 Z" fill="#000000" fill-rule="nonzero" fill-opacity="1" /><path clip-path="url(#clip340)" d="M1943.19 273.728 L1943.19 275.811 L1923.6 275.811 Q1923.88 280.209 1926.24 282.524 Q1928.63 284.816 1932.86 284.816 Q1935.32 284.816 1937.61 284.214 Q1939.92 283.612 1942.19 282.409 L1942.19 286.436 Q1939.9 287.408 1937.49 287.918 Q1935.09 288.427 1932.61 288.427 Q1926.4 288.427 1922.77 284.816 Q1919.16 281.205 1919.16 275.047 Q1919.16 268.682 1922.59 264.955 Q1926.03 261.205 1931.87 261.205 Q1937.1 261.205 1940.13 264.585 Q1943.19 267.941 1943.19 273.728 M1938.93 272.478 Q1938.88 268.983 1936.96 266.899 Q1935.06 264.816 1931.91 264.816 Q1928.35 264.816 1926.2 266.83 Q1924.07 268.844 1923.74 272.501 L1938.93 272.478 Z" fill="#000000" fill-rule="nonzero" fill-opacity="1" /><path clip-path="url(#clip340)" d="M1971.73 272.108 L1971.73 287.756 L1967.47 287.756 L1967.47 272.247 Q1967.47 268.566 1966.03 266.737 Q1964.6 264.909 1961.73 264.909 Q1958.28 264.909 1956.29 267.108 Q1954.3 269.307 1954.3 273.103 L1954.3 287.756 L1950.02 287.756 L1950.02 261.83 L1954.3 261.83 L1954.3 265.858 Q1955.83 263.52 1957.89 262.362 Q1959.97 261.205 1962.68 261.205 Q1967.15 261.205 1969.44 263.983 Q1971.73 266.737 1971.73 272.108 Z" fill="#000000" fill-rule="nonzero" fill-opacity="1" /><path clip-path="url(#clip340)" d="M1984.44 254.469 L1984.44 261.83 L1993.21 261.83 L1993.21 265.14 L1984.44 265.14 L1984.44 279.214 Q1984.44 282.385 1985.29 283.288 Q1986.17 284.191 1988.84 284.191 L1993.21 284.191 L1993.21 287.756 L1988.84 287.756 Q1983.9 287.756 1982.03 285.927 Q1980.15 284.075 1980.15 279.214 L1980.15 265.14 L1977.03 265.14 L1977.03 261.83 L1980.15 261.83 L1980.15 254.469 L1984.44 254.469 Z" fill="#000000" fill-rule="nonzero" fill-opacity="1" /><path clip-path="url(#clip340)" d="M1998.81 261.83 L2003.07 261.83 L2003.07 287.756 L1998.81 287.756 L1998.81 261.83 M1998.81 251.737 L2003.07 251.737 L2003.07 257.131 L1998.81 257.131 L1998.81 251.737 Z" fill="#000000" fill-rule="nonzero" fill-opacity="1" /><path clip-path="url(#clip340)" d="M2023.77 274.723 Q2018.6 274.723 2016.61 275.904 Q2014.62 277.084 2014.62 279.932 Q2014.62 282.2 2016.1 283.543 Q2017.61 284.862 2020.18 284.862 Q2023.72 284.862 2025.85 282.362 Q2028 279.839 2028 275.672 L2028 274.723 L2023.77 274.723 M2032.26 272.964 L2032.26 287.756 L2028 287.756 L2028 283.821 Q2026.54 286.182 2024.37 287.316 Q2022.19 288.427 2019.04 288.427 Q2015.06 288.427 2012.7 286.205 Q2010.36 283.959 2010.36 280.209 Q2010.36 275.834 2013.28 273.612 Q2016.22 271.39 2022.03 271.39 L2028 271.39 L2028 270.973 Q2028 268.034 2026.06 266.436 Q2024.14 264.816 2020.64 264.816 Q2018.42 264.816 2016.31 265.348 Q2014.21 265.881 2012.26 266.946 L2012.26 263.01 Q2014.6 262.108 2016.8 261.668 Q2019 261.205 2021.08 261.205 Q2026.71 261.205 2029.48 264.122 Q2032.26 267.038 2032.26 272.964 Z" fill="#000000" fill-rule="nonzero" fill-opacity="1" /><path clip-path="url(#clip340)" d="M2041.03 251.737 L2045.29 251.737 L2045.29 287.756 L2041.03 287.756 L2041.03 251.737 Z" fill="#000000" fill-rule="nonzero" fill-opacity="1" /><path clip-path="url(#clip340)" d="M2064.44 251.784 Q2061.33 257.108 2059.83 262.316 Q2058.33 267.524 2058.33 272.872 Q2058.33 278.219 2059.83 283.473 Q2061.36 288.705 2064.44 294.006 L2060.73 294.006 Q2057.26 288.566 2055.52 283.311 Q2053.81 278.057 2053.81 272.872 Q2053.81 267.71 2055.52 262.478 Q2057.24 257.247 2060.73 251.784 L2064.44 251.784 Z" fill="#000000" fill-rule="nonzero" fill-opacity="1" /><path clip-path="url(#clip340)" d="M2082.91 255.788 L2094.88 287.756 L2090.36 287.756 L2083.09 268.589 L2074.16 287.756 L2069.64 287.756 L2081.01 262.895 L2079.3 258.311 Q2078.21 255.395 2075.73 255.395 L2073.51 255.395 L2073.51 251.737 L2076.22 251.784 Q2081.45 251.853 2082.91 255.788 Z" fill="#000000" fill-rule="nonzero" fill-opacity="1" /><path clip-path="url(#clip340)" d="M2082.72 249.839 L2086.15 249.839 L2091.82 258.543 L2088.6 258.543 L2084.44 252.872 L2080.27 258.543 L2077.05 258.543 L2082.72 249.839 M2084.44 261.205 L2084.44 261.205 Z" fill="#000000" fill-rule="nonzero" fill-opacity="1" /><path clip-path="url(#clip340)" d="M2101.31 266.228 L2130.99 266.228 L2130.99 270.117 L2101.31 270.117 L2101.31 266.228 M2101.31 275.672 L2130.99 275.672 L2130.99 279.608 L2101.31 279.608 L2101.31 275.672 Z" fill="#000000" fill-rule="nonzero" fill-opacity="1" /><path clip-path="url(#clip340)" d="M2153.93 257.27 L2142.12 275.719 L2153.93 275.719 L2153.93 257.27 M2152.7 253.196 L2158.58 253.196 L2158.58 275.719 L2163.51 275.719 L2163.51 279.608 L2158.58 279.608 L2158.58 287.756 L2153.93 287.756 L2153.93 279.608 L2138.33 279.608 L2138.33 275.094 L2152.7 253.196 Z" fill="#000000" fill-rule="nonzero" fill-opacity="1" /><path clip-path="url(#clip340)" d="M2171.24 281.876 L2176.13 281.876 L2176.13 287.756 L2171.24 287.756 L2171.24 281.876 Z" fill="#000000" fill-rule="nonzero" fill-opacity="1" /><path clip-path="url(#clip340)" d="M2196.89 268.612 Q2193.74 268.612 2191.89 270.765 Q2190.06 272.918 2190.06 276.668 Q2190.06 280.395 2191.89 282.571 Q2193.74 284.723 2196.89 284.723 Q2200.04 284.723 2201.87 282.571 Q2203.72 280.395 2203.72 276.668 Q2203.72 272.918 2201.87 270.765 Q2200.04 268.612 2196.89 268.612 M2206.17 253.96 L2206.17 258.219 Q2204.41 257.386 2202.61 256.946 Q2200.82 256.506 2199.07 256.506 Q2194.44 256.506 2191.98 259.631 Q2189.55 262.756 2189.2 269.075 Q2190.57 267.061 2192.63 265.997 Q2194.69 264.909 2197.17 264.909 Q2202.38 264.909 2205.38 268.08 Q2208.42 271.228 2208.42 276.668 Q2208.42 281.992 2205.27 285.209 Q2202.12 288.427 2196.89 288.427 Q2190.89 288.427 2187.72 283.844 Q2184.55 279.237 2184.55 270.51 Q2184.55 262.316 2188.44 257.455 Q2192.33 252.571 2198.88 252.571 Q2200.64 252.571 2202.42 252.918 Q2204.23 253.265 2206.17 253.96 Z" fill="#000000" fill-rule="nonzero" fill-opacity="1" /><path clip-path="url(#clip340)" d="M2226.47 271.344 Q2223.14 271.344 2221.22 273.126 Q2219.32 274.909 2219.32 278.034 Q2219.32 281.159 2221.22 282.941 Q2223.14 284.723 2226.47 284.723 Q2229.81 284.723 2231.73 282.941 Q2233.65 281.135 2233.65 278.034 Q2233.65 274.909 2231.73 273.126 Q2229.83 271.344 2226.47 271.344 M2221.8 269.353 Q2218.79 268.612 2217.1 266.552 Q2215.43 264.492 2215.43 261.529 Q2215.43 257.386 2218.37 254.978 Q2221.33 252.571 2226.47 252.571 Q2231.63 252.571 2234.57 254.978 Q2237.51 257.386 2237.51 261.529 Q2237.51 264.492 2235.82 266.552 Q2234.16 268.612 2231.17 269.353 Q2234.55 270.14 2236.43 272.432 Q2238.32 274.723 2238.32 278.034 Q2238.32 283.057 2235.25 285.742 Q2232.19 288.427 2226.47 288.427 Q2220.76 288.427 2217.68 285.742 Q2214.62 283.057 2214.62 278.034 Q2214.62 274.723 2216.52 272.432 Q2218.42 270.14 2221.8 269.353 M2220.08 261.969 Q2220.08 264.654 2221.75 266.159 Q2223.44 267.663 2226.47 267.663 Q2229.48 267.663 2231.17 266.159 Q2232.88 264.654 2232.88 261.969 Q2232.88 259.284 2231.17 257.779 Q2229.48 256.274 2226.47 256.274 Q2223.44 256.274 2221.75 257.779 Q2220.08 259.284 2220.08 261.969 Z" fill="#000000" fill-rule="nonzero" fill-opacity="1" /><path clip-path="url(#clip340)" d="M2245.36 251.784 L2249.07 251.784 Q2252.54 257.247 2254.25 262.478 Q2255.99 267.71 2255.99 272.872 Q2255.99 278.057 2254.25 283.311 Q2252.54 288.566 2249.07 294.006 L2245.36 294.006 Q2248.44 288.705 2249.94 283.473 Q2251.47 278.219 2251.47 272.872 Q2251.47 267.524 2249.94 262.316 Q2248.44 257.108 2245.36 251.784 Z" fill="#000000" fill-rule="nonzero" fill-opacity="1" /></svg>
